<?xml version="1.0" encoding="utf-8"?>
<!-- Generator: Adobe Illustrator 22.1.0, SVG Export Plug-In . SVG Version: 6.00 Build 0)  -->
<svg version="1.1" id="レイヤー_1" xmlns="http://www.w3.org/2000/svg" xmlns:xlink="http://www.w3.org/1999/xlink" x="0px"
	 y="0px" viewBox="0 0 759 62.7" style="enable-background:new 0 0 759 62.7;" xml:space="preserve">
<style type="text/css">
	.st0{fill:#FFDD00;}
	.st1{fill:#F98A00;}
	.st2{fill:#FFFFFF;}
	.st3{fill:#004EA1;}
</style>
<path class="st0" d="M741.3,62.7H44.7C34.9,62.7,27,54.8,27,45V17.7C27,7.9,34.9,0,44.7,0h696.6c9.8,0,17.7,7.9,17.7,17.7V45
	C759,54.8,751.1,62.7,741.3,62.7z"/>
<g>
	<path class="st1" d="M51.8,31.3c0,14.3-11.6,25.9-25.9,25.9C11.6,57.2,0,45.6,0,31.3S11.6,5.4,25.9,5.4S51.8,17,51.8,31.3z"/>
	<g>
		<path class="st2" d="M21,11.7c0.2,0.2,0.4,0.4,0.6,0.7c0.2,0.2,0.1,0.3-0.1,0.4c0,0-0.1,0.1-0.2,0.1c-0.5,0.4-1.7,1.3-3.2,2.3
			c-0.3,0.2-0.7,0.5-1.1,0.7c0.4-0.1,0.9-0.2,1.3-0.3c1.8-0.3,3.7-0.5,4.8-0.7c0.4,0,0.3-0.1,0.4,0.2c0,0.1,0.1,0.3,0.1,0.5
			c0,0.3,0,0.3-0.3,0.3c-3.5,0-5.1,1.6-5.1,2.9s1.8,1.8,3.9,1.6c-0.1,0.4-0.2,0.7-0.2,1c-2.6,0.1-4.5-0.9-4.5-2.5
			c0-1.1,1.1-2.2,2.4-2.9c-2.2,0.4-3.4,0.7-4.5,1.2c-0.3,0.1-0.3,0.2-0.4,0c-0.1-0.2-0.3-0.4-0.4-0.7c-0.1-0.3,0-0.2,0.2-0.3
			c0.4-0.1,0.9-0.2,1.3-0.3c0.7-0.4,2.2-1.5,3.4-2.4c0.4-0.3,0.8-0.7,1.1-1c-0.4,0.1-1,0.2-1.4,0.3c-0.8,0.1-1.5,0.2-2.1,0.3
			c-0.3,0-0.3,0.1-0.3-0.1c-0.1-0.2-0.1-0.5-0.2-0.7s0-0.2,0.2-0.2c1.2,0,3.1-0.1,4-0.4C20.7,11.7,20.8,11.5,21,11.7z"/>
		<path class="st2" d="M36.2,16.4c0,1.9-0.9,3.9-4,4.6c-0.2-0.3-0.6-0.5-0.8-0.8c1.6-0.2,3.8-1.3,3.8-3.7s-1.8-3.3-3.4-3.4
			c-0.3,2.3-1.1,5.5-2.1,6.7c-0.9,1.1-2.1,0.5-2.6-0.2c-0.4-0.6-0.8-1.4-0.7-2.8c0.1-1.5,1.7-4.3,5-4.5
			C34.7,12.2,36.2,14.7,36.2,16.4z M27.3,16.8c-0.2,1.2,0.2,2,0.5,2.3c0.4,0.5,1,0.5,1.3-0.1c0.8-1.4,1.4-4.1,1.6-5.7
			C29,13.5,27.7,15,27.3,16.8z"/>
	</g>
	<g>
		<path class="st2" d="M31.5,45.5v4h-4.4v-4h-12v-3.7l12.4-15.1h4v14.8H35v4C35,45.5,31.5,45.5,31.5,45.5z M25.4,35.2l-3.2,4
			c-0.5,0.6-1.9,2.2-2.1,2.4c0.1,0,2.4-0.1,2.7-0.1l4.4-0.1c0-0.7,0-1.4,0-1.7c0-0.7,0.1-1.7,0.1-2.5c0.1-1.3,0.2-5.1,0.2-5.1
			S25.8,34.6,25.4,35.2z"/>
	</g>
	<polyline class="st1" points="39.6,46.2 54.9,50.9 47.2,38.2 	"/>
</g>
<g>
	<g>
		<path class="st3" d="M69.6,10.8v-0.3c0-0.5,0-1.4,1-1.4s1,0.9,1,1.4v0.3H74c0.8,0,1.7,0,1.7,1s-1,1-1.2,1c-0.2,1.5-0.5,3.1-0.7,4
			h0.7c0.8,0,1.7,0,1.7,1s-0.9,1-1.7,1h-7.7c-0.8,0-1.7,0-1.7-1s0.9-1,1.7-1h0.8c-0.1-0.6-0.8-3.4-1-4c-0.3,0-1.2,0-1.2-1
			s0.9-1,1.7-1H69.6z M73,20c1.4,0,2.4,0.4,2.4,2.4v3.3c0,2-1,2.4-2.4,2.4h-4.7c-1.4,0-2.4-0.4-2.4-2.4v-3.3c0-2,1-2.4,2.4-2.4H73z
			 M68.8,22.1c-0.8,0-0.9,0.2-0.9,0.7v2.5c0,0.5,0,0.7,0.9,0.7h3.7c0.8,0,0.9-0.2,0.9-0.7v-2.5c0-0.5-0.1-0.7-0.9-0.7
			C72.5,22.1,68.8,22.1,68.8,22.1z M68.6,12.9c0.3,1.3,0.6,2.7,0.9,4h2.4c0.2-1.1,0.3-1.4,0.7-4H68.6z M79.4,11.6
			c-0.4,0-0.7,0-0.7,0.6v14.5c0,0.8,0,1.7-1,1.7c-1.1,0-1.1-0.9-1.1-1.7V11.4c0-1.9,1.3-1.9,1.8-1.9h3.7c0.6,0,2.2,0,2.2,1.9
			c0,2.3-1.2,4.3-2.5,6.1c1.8,1.5,2.8,3.5,2.8,5.9c0,1.1-0.1,3.8-3.6,3.8c-0.4,0-1.8,0-1.8-1.2c0-0.5,0.3-1,1.1-1c0.1,0,0.7,0,0.8,0
			c0.7,0,1.3-0.3,1.3-1.7c0-0.3,0-2.6-2-4.3c-1-0.8-1.1-0.9-1.1-1.4c0-0.4,0.1-0.6,0.7-1.3c1.8-1.9,2-4.2,2-4.3
			c0-0.3-0.3-0.3-0.7-0.3h-1.9V11.6z"/>
		<path class="st3" d="M92.3,16.3c0.4,0.4,0.6,0.6,0.6,1s-0.4,1-1,1c-0.4,0-0.5-0.1-1.5-0.7c-0.4-0.3-2-1.3-2.3-1.5
			c-0.2-0.1-0.3-0.4-0.3-0.7c0-0.7,0.7-1.1,1.1-1C89.7,14.5,92.1,16.1,92.3,16.3z M93.5,21.2c0,1.1-2,4.6-2.5,5.3
			c-1,1.6-1.4,1.7-1.8,1.7c-0.5,0-1.1-0.3-1.1-1c0-0.3,0.1-0.5,0.9-1.5c1-1.3,1.6-2.6,2.4-4.8c0.2-0.6,0.6-0.8,1-0.8
			C92.9,20.1,93.5,20.4,93.5,21.2z M92.5,11.2c0.6,0.5,0.8,0.8,0.8,1.2c0,0.5-0.5,1-1,1c-0.4,0-0.6-0.1-1.8-1.1
			c-0.3-0.2-1.5-1.1-1.7-1.3c-0.3-0.2-0.3-0.4-0.3-0.6c0-0.5,0.3-1,1.1-1C90.2,9.5,91.9,10.8,92.5,11.2z M101.3,14.7h4.1
			c0.7,0,1.7,0,1.7,1s-0.9,1-1.7,1h-4.1v2.7h3.1c1.2,0,1.7,1.1,1.7,1.8v5.2c0,0.7-0.6,1.8-1.7,1.8H96c-1,0-1.7-0.9-1.7-1.8v-5.1
			c0-0.7,0.6-1.8,1.7-1.8h3.2v-2.7H95c-0.8,0-1.7,0-1.7-1s0.9-1,1.7-1h4.2v-2.6c-0.7,0-2.7,0.1-3.9,0.1c-0.5,0-1.4,0-1.4-1
			s1-1,1.7-1c2.7-0.1,5.1-0.1,8-0.6c0.3,0,1.4-0.3,1.6-0.3c0.7,0,1,0.5,1,1c0,0.3-0.1,0.8-0.7,1c-0.3,0.1-1.7,0.4-4.2,0.6
			C101.3,12,101.3,14.7,101.3,14.7z M97.2,21.3c-0.7,0-0.8,0.3-0.8,0.7v3.4c0,0.4,0.1,0.7,0.8,0.7h6.1c0.7,0,0.8-0.3,0.8-0.7V22
			c0-0.4-0.1-0.7-0.8-0.7H97.2z"/>
		<path class="st3" d="M116.3,12.8c-0.8-1.7-1-2.3-1-2.6c0-0.6,0.5-1.1,1.2-1.1c0.8,0,1.1,0.6,1.4,1.3c0.5,1.1,1.4,3.5,2.2,5.6
			c1-0.4,1.8-0.7,2.6-0.9c1.5-0.5,1.8-0.5,2.3-0.5c1.2,0,1.3,1,1.3,1.2c0,0.6-0.5,0.9-0.6,1c-0.3,0.1-1.8,0.5-2.1,0.6
			c-5.8,1.7-8.4,3.3-8.4,5.5c0,2.4,3,2.5,5.1,2.5c2.3,0,4.5-0.4,4.8-0.5c0.1,0,1.4-0.3,1.5-0.3c0.3,0,1,0.2,1,1.1
			c0,0.7-0.4,1-1.4,1.3c-1.4,0.3-3.8,0.7-6.1,0.7c-1.8,0-4.1-0.1-5.5-1.2c-1.7-1.3-1.8-2.7-1.8-3.5c0-3,2.4-4.7,5.4-6.1
			C117.6,15.7,116.8,13.9,116.3,12.8z"/>
		<path class="st3" d="M138.2,25.9c-2.7,0-4.5-2.7-4.5-6c0-5.3,4.2-9,9.5-9c5,0,8.2,3.6,8.2,8.2c0,5.5-4.7,8-7.9,8
			c-1.3,0-1.3-1.1-1.3-1.3c0-1.2,0.9-1.2,1.4-1.3c4.3-0.2,5.5-3.4,5.5-5.6c0-2.8-1.8-5.6-5.3-5.7C143.4,20.2,141.6,25.9,138.2,25.9z
			 M136,19.9c0,2,0.9,3.5,2.1,3.5c1.1,0,1.8-2,2-2.6c0.9-2.7,1.1-5.5,1.2-7.3C137.6,14,136,17.2,136,19.9z"/>
		<path class="st3" d="M166,13.6h5.8c0.6,0,2.2,0,2.2,1.7v10.5c0,1.6-0.3,2.6-3.3,2.6c-1.6,0-3.4-0.2-3.9-0.5
			c-0.6-0.3-0.6-0.7-0.6-0.9c0-0.5,0.3-1,1.1-1c0.1,0,2.8,0.3,3.3,0.3c1.2,0,1.3-0.4,1.3-0.8v-9.3c0-0.5-0.3-0.5-0.6-0.5H166v6.5
			h1.6c0.3,0,0.7-0.1,0.7-0.6v-3.2c0-0.8,0-1.7,1-1.7s1,0.9,1,1.7v4.1c0,1.6-1,1.8-1.9,1.8h-7c-1.8,0-1.8-1.5-1.8-1.9v-4
			c0-0.8,0-1.7,1-1.7s1,0.8,1,1.7v3.2c0,0.6,0.3,0.6,0.5,0.6h1.8v-6.5h-5.2c-0.6,0-0.6,0.4-0.6,0.5v10.6c0,0.8,0,1.7-1,1.7
			s-1-0.9-1-1.7v-11c0-1.6,0.9-2.1,2.1-2.1h5.8v-1.9h-7c-0.8,0-1.7,0-1.7-1s0.9-1,1.7-1h15.8c0.8,0,1.7,0,1.7,1s-0.9,1-1.7,1H166
			V13.6z"/>
		<path class="st3" d="M188.6,25.8c1.7-3.9,2.4-6.7,2.9-8.7c0.3-1.3,0.4-1.7,1.2-1.7c0.5,0,1.2,0.3,1.2,1.2c0,0.5-0.6,3.8-2.9,9.2
			h4.4c0.9,0,1.7,0,1.7,1.1s-0.8,1.1-1.7,1.1h-15.6c-0.9,0-1.7,0-1.7-1.1c0-1.1,0.8-1.1,1.7-1.1C179.8,25.8,188.6,25.8,188.6,25.8z
			 M194.7,11.9c0.8,0,1.7,0,1.7,1.1s-0.9,1.1-1.7,1.1h-14.4c-0.8,0-1.7,0-1.7-1.1s0.9-1.1,1.7-1.1h6v-1.3c0-0.9,0-1.7,1.1-1.7
			c1.3,0,1.3,0.6,1.3,1.7v1.3H194.7z M184.5,25c-0.8,0-0.9-0.4-1.6-2.9c-0.2-0.7-0.8-2.9-1.5-4.6c-0.3-0.7-0.3-0.8-0.3-1
			c0-0.7,0.8-1.1,1.3-1.1c0.7,0,1.1,0.7,1.6,2.3c1,2.6,1.7,5.7,1.7,6.1c0,0.1,0,0.2,0,0.3C185.5,25,184.5,25,184.5,25z"/>
		<path class="st3" d="M206.6,11.4c0-0.8,0.1-1.7,1.2-1.7c1.3,0,1.2,1,1.1,1.8l-0.1,2h2.6c0.7,0,1.7,0,1.7,1.2s-1,1.2-1.7,1.2h-2.8
			l-0.1,2.3h3.1c0.8,0,1.7,0,1.7,1.1c0,1.2-1,1.2-1.7,1.2h-3.2l-0.1,1.6c-0.2,2.5,1.6,3.3,3.3,3.3c3.5,0,4.2-2.4,4.2-3.6
			c0-0.6-0.1-1.3-0.2-1.9c-0.1-0.5-0.1-0.6-0.1-0.7c0-0.6,0.6-1,1.3-1s1,0.5,1.1,0.8c0.2,0.4,0.5,1.4,0.5,2.7c0,3.4-2.2,6-6.7,6
			c-0.7,0-3,0-4.6-1.9c-1-1.2-1-3-0.9-3.8l0.1-1.5h-2.7c-0.7,0-1.7,0-1.7-1.2s0.9-1.2,1.7-1.2h2.9l0.1-2.3H204c-0.7,0-1.7,0-1.7-1.2
			c0-1.1,0.9-1.1,1.7-1.1h2.7L206.6,11.4z"/>
		<path class="st3" d="M226.2,24.9c-1,1.5-1.4,2-2.1,2c-0.5,0-1.2-0.5-1.2-1.1c0-0.4,0.2-0.7,0.4-1c4-5.9,4.2-10.5,4.4-12.7
			c0-0.4,0.1-1.2,1.2-1.2c0.8,0,1.2,0.5,1.2,1C230.1,16.7,228,22.1,226.2,24.9z M241.5,25.8c0,1.1-1.1,1.1-1.3,1.1
			c-0.9,0-1.1-0.8-1.2-1.3c-1.8-7.1-3.8-10.9-4.9-12.9c-0.2-0.4-0.3-0.6-0.3-1c0-0.8,0.8-1.1,1.2-1.1c0.6,0,1,0.7,1.2,1
			c1.1,1.9,2.5,4.5,4.2,9.7C241,23.2,241.5,25.3,241.5,25.8z M238,9.3c0.4,0,0.7,0.4,1.1,0.9c0.5,0.7,1.2,1.6,1.2,2.1
			c0,0.6-0.5,0.7-0.6,0.7c-0.4,0-0.6-0.4-0.8-0.9c-0.2-0.4-1.2-2.1-1.2-2.3c0-0.1,0-0.1,0.1-0.2C237.7,9.4,237.8,9.3,238,9.3z
			 M239.7,8.4c0.7,0,2.3,2.3,2.3,2.9s-0.5,0.6-0.6,0.6c-0.3,0-0.4-0.1-1-1.2c-0.2-0.3-1.1-1.8-1.1-1.9c0,0,0-0.1,0-0.2
			C239.4,8.5,239.5,8.4,239.7,8.4z"/>
		<path class="st3" d="M251,21.3c-0.7,0-0.8-0.2-1.5-2.1c-0.2-0.4-1-2.2-1-2.6s0.4-0.9,1-0.9c0.7,0,1,0.5,1.4,1.6
			c0.3,0.6,1.1,2.6,1.1,3.1C252,20.8,251.6,21.3,251,21.3z M252.6,27.2c-1,0-1-0.8-1-1c0-0.7,0.5-0.9,0.8-1c1.8-0.6,6.6-2.2,7-7.9
			c0.1-1.2,0.1-1.9,1.1-1.9s1,0.9,1,1.2C261.5,24.4,254,27.2,252.6,27.2z M254.9,20c-0.6,0-0.7-0.1-1.4-2c-0.2-0.6-0.3-0.8-0.8-1.8
			c0-0.1-0.2-0.4-0.2-0.7c0-0.3,0.3-0.9,1-0.9s0.9,0.4,1.3,1.3c0.3,0.7,1.1,2.6,1.1,3.2C255.9,19.5,255.6,20,254.9,20z"/>
		<path class="st3" d="M279.4,16.8h5.1c0.9,0,1.7,0,1.7,1.2s-0.8,1.2-1.7,1.2h-5.1c0.1,5.9-5.8,8.4-7.2,8.4c-0.7,0-1.1-0.6-1.1-1.3
			s0.5-1,1.1-1.2c1.6-0.6,3.5-1.3,4.4-3.9c0.3-0.8,0.4-1.7,0.4-2.1h-6.5c-0.9,0-1.7,0-1.7-1.2s0.9-1.2,1.7-1.2h6.5V14
			c-0.5,0.1-3,0.5-4.9,0.5c-1.1,0-2.1,0-2.1-1.2c0-1.1,0.9-1.2,1.1-1.2s1,0.1,1.2,0.1c0.3,0,5,0,8.9-1.7c0.3-0.1,1.5-0.7,1.8-0.8
			c0.2-0.1,0.4-0.1,0.5-0.1c0.6,0,1.1,0.5,1.1,1.3c0,0.7-0.4,1-0.7,1.1c-1.7,0.9-3.7,1.4-4.4,1.5L279.4,16.8L279.4,16.8z"/>
		<path class="st3" d="M296.3,18.7c0,0.8,0,1.7-1.2,1.7s-1.2-0.9-1.2-1.7v-6.9c0-0.8,0-1.7,1.2-1.7s1.2,0.9,1.2,1.7V18.7z M306.1,19
			c0,1.3,0,3.8-2,5.8c-2.3,2.4-5.6,2.9-6.5,2.9c-0.2,0-1.3,0-1.3-1.2c0-1,0.8-1.1,1.4-1.2c3.1-0.4,4.6-1.7,5.3-3
			c0.2-0.4,0.6-1.1,0.6-3.7v-6.8c0-0.7,0-1.7,1.2-1.7s1.2,0.9,1.2,1.7L306.1,19L306.1,19z"/>
		<path class="st3" d="M324.2,25.5c0,0.9-0.8,1.7-1.7,1.7c-0.9,0-1.7-0.7-1.7-1.7s0.8-1.7,1.7-1.7S324.2,24.6,324.2,25.5z M321,11.4
			c-0.1-0.7,0.6-1.7,1.6-1.7c0.9,0,1.6,0.9,1.5,1.7l-0.8,10.5c0,0.4-0.3,0.8-0.8,0.8c-0.7,0-0.7-0.7-0.8-0.8L321,11.4z"/>
		<path class="st3" d="M72.5,36.5c0.4-0.6,0.6-1.1,1-1.9c0.2-0.3,0.4-0.7,1.1-0.7c0.6,0,1.1,0.4,1.1,1c0,0.4-0.1,0.7-0.8,1.7h6
			c1.7,0,2.1,1,2.1,1.9v12.8c0,1-0.5,1.9-2.1,1.9h-12c-1.7,0-2.1-1-2.1-1.9V38.4c0-1,0.5-1.9,2.1-1.9H72.5z M68.9,41.2h12v-1.9
			c0-0.5-0.1-0.7-0.8-0.7H69.7c-0.6,0-0.8,0.3-0.8,0.7C68.9,39.3,68.9,41.2,68.9,41.2z M68.9,46h12v-2.9h-12V46z M80.9,48h-12v2.4
			c0,0.5,0.1,0.7,0.8,0.7h10.4c0.6,0,0.8-0.3,0.8-0.7C80.9,50.4,80.9,48,80.9,48z"/>
		<path class="st3" d="M104.3,37.3c0.4,0,2.1,0,2.1,1.8v12.3c0,1.8-1.7,1.8-2.1,1.8H90.6c-0.4,0-2.1,0-2.1-1.8V39.1
			c0-1.8,1.7-1.8,2.1-1.8h5.7v-1.7c0-0.9,0-1.7,1.1-1.7s1.1,0.6,1.1,1.7v1.7H104.3z M96.3,44.1v-4.6h-5c-0.1,0-0.7,0-0.7,0.5v4.1
			H96.3z M90.6,46.3v4.1c0,0.4,0.1,0.6,0.5,0.6h5.2v-4.8h-5.7V46.3z M104.2,44.1v-4c0-0.6-0.4-0.6-0.6-0.6h-5.1v4.6H104.2z
			 M98.5,46.3V51h5.3c0.4,0,0.5-0.3,0.5-0.6v-4.2L98.5,46.3L98.5,46.3z"/>
		<path class="st3" d="M115.3,35.6c0.2-0.4,0.6-0.6,1-0.6c1.2,0,1.3,0.8,1.3,1.3c0,0.1,0,1-0.3,2.3c0.3,0,1.7-0.1,2-0.1
			c1,0,1.3,0.6,1.3,1.2c0,0.9-0.7,1.1-0.9,1.1c-0.4,0.1-1.3,0.1-2.9,0.2c-1,3.7-2.4,5.9-2.9,6.7c-0.5,0.7-1,1.4-1.8,1.4
			c-0.5,0-1.2-0.4-1.2-1.1c0-0.5,0.1-0.6,1-1.8c0.1-0.2,1.7-2.5,2.5-5.1c-0.3,0-1.8,0.1-2,0.1c-0.4,0-1.4,0-1.4-1.1
			c0-0.2,0-1.1,1.3-1.2c0.1,0,2.3-0.1,2.6-0.1C115,38.1,115.2,35.9,115.3,35.6z M121.9,43.3c0-0.7-0.1-1.8,1.2-1.8
			c1.2,0,1.2,1.1,1.2,1.7v3.3c1.4,0.6,4,2,4,3.2c0,0.6-0.6,1.2-1.2,1.2c-0.4,0-0.6-0.2-1.1-0.6c-0.6-0.5-1.1-0.9-1.7-1.2
			c0,0.9-0.1,3.7-4.2,3.7c-2.7,0-4.4-1.6-4.4-3.5c0-2,1.7-3.6,4.6-3.6c0.8,0,1.4,0.1,1.7,0.2L121.9,43.3z M120.2,47.9
			c-1.4,0-2.2,0.6-2.2,1.4c0,0.4,0.2,1.2,1.8,1.2c2.3,0,2.2-1.4,2.2-2.1C121.7,48.2,121.2,47.9,120.2,47.9z M128.1,42.5
			c-0.4,0-0.6-0.2-1.3-0.7c-1.4-1-1.6-1.2-3.9-2.4c-0.4-0.2-0.9-0.5-0.9-1.1c0-0.4,0.3-1.2,1.1-1.2c0.8,0,3,1.5,4,2.1
			c1.4,1,2,1.4,2,2C129.2,42,128.6,42.5,128.1,42.5z"/>
		<path class="st3" d="M138.4,35.4c0.6,0,1.7,0.3,1.7,1.7v13.5c0,1.5-1.1,1.7-1.7,1.7h-3.6c-0.6,0-1.7-0.2-1.7-1.7V37.1
			c0-1.5,1.1-1.7,1.7-1.7C134.8,35.4,138.4,35.4,138.4,35.4z M138,42.5V38c0-0.4-0.2-0.5-0.5-0.5h-1.6c-0.4,0-0.6,0.1-0.6,0.5v4.5
			H138z M135.3,44.5v5.4c0,0.2,0.1,0.4,0.5,0.4h1.8c0.3,0,0.4-0.2,0.4-0.5v-5.4L135.3,44.5L135.3,44.5z M149.8,43.8h0.5
			c0.8,0,1.7,0,1.7,1s-0.9,1-1.7,1h-0.5v5.6c0,1.6-1,2.3-3.3,2.3c-1.4,0-2.7-0.3-3.1-0.5c-0.4-0.2-0.6-0.6-0.6-0.9
			c0-0.6,0.3-1,0.9-1c0.1,0,0.9,0.1,1,0.2c1.1,0.2,1.7,0.2,1.8,0.2c1,0,1.2-0.4,1.2-1.1v-4.8h-4.9c0.3,0.2,0.4,0.3,1.5,1.6
			c0.8,0.9,1.1,1.3,1.1,1.8c0,0.7-0.6,1-1,1c-0.5,0-0.6-0.1-1.1-0.8c-0.4-0.6-1.3-1.4-1.7-2c-0.1-0.2-0.2-0.3-0.2-0.6
			c0-0.1,0-0.6,0.6-0.9c-0.7,0-1.6,0-1.6-1s0.9-1,1.7-1h5.6v-1.6H142c-0.8,0-1.7,0-1.7-1c0-1.1,0.9-1.1,1.7-1.1h3.3v-1.6h-2.9
			c-0.8,0-1.7,0-1.7-1s0.9-1,1.7-1h2.9V36c0-0.8,0-1.7,1.1-1.7c1,0,1,0.9,1,1.7v0.4h2.7c0.8,0,1.7,0,1.7,1s-0.9,1-1.7,1h-2.7V40h2.9
			c0.8,0,1.7,0,1.7,1.1c0,1-0.9,1-1.7,1h-0.5V43.8z"/>
		<path class="st3" d="M157.9,52c0,0.8,0,1.7-1.1,1.7c-1,0-1-0.8-1-1.7V36.4c0-1.7,1.3-1.8,1.8-1.8h4.8c0.6,0,1.7,0,1.7,1.7v4.4
			c0,1.4-0.8,1.6-1.7,1.6h-4.5V52z M162.1,37.6v-0.5c0-0.4-0.2-0.5-0.7-0.5h-2.8c-0.5,0-0.7,0.2-0.7,0.6v0.4H162.1z M157.9,39.2v1.2
			h3.4c0.6,0,0.7-0.2,0.7-0.6v-0.6C162,39.2,157.9,39.2,157.9,39.2z M167.4,43.4c1.5,0,2.1,0.6,2.1,2.2v4c0,1.6-0.7,2.2-2.1,2.2
			h-5.1c-1.5,0-2.1-0.6-2.1-2.1v-4c0-1.6,0.7-2.2,2.1-2.2h5.1V43.4z M167.4,46.5v-0.6c0-0.6-0.5-0.6-0.8-0.6h-3.5
			c-0.3,0-0.8,0-0.8,0.6v0.6H167.4z M162.4,48.2v1c0,0.6,0.5,0.7,0.8,0.7h3.5c0.3,0,0.8,0,0.8-0.7v-1H162.4z M167.5,42.3
			c-0.8,0-1.9,0-1.9-1.8v-4c0-1.1,0.5-1.8,1.7-1.8h5.1c1.7,0,1.7,1.4,1.7,2.1v14.5c0,0.9,0,2.4-2.5,2.4c-1.6,0-2.7-0.2-2.7-1.2
			c0-0.6,0.4-1.1,1-1.1c0.2,0,1.3,0.2,1.5,0.2c0.6,0,0.6-0.4,0.6-1v-8.3C172,42.3,167.5,42.3,167.5,42.3z M171.9,37.6v-0.4
			c0-0.6-0.3-0.6-0.7-0.6h-2.9c-0.2,0-0.7,0-0.7,0.6v0.5L171.9,37.6L171.9,37.6z M167.6,39.2v0.6c0,0.5,0.2,0.6,0.6,0.6h3.7v-1.2
			C171.9,39.2,167.6,39.2,167.6,39.2z"/>
		<path class="st3" d="M183.9,37.7c0.7,0,1.7,0,1.7,0.9s-1,0.9-1.7,0.9h-4.6c-0.7,0-1.7,0-1.7-0.9s1-0.9,1.7-0.9H183.9z M183.4,34.9
			c0.7,0,1.7,0,1.7,0.9s-1,0.9-1.7,0.9h-3.5c-0.7,0-1.7,0-1.7-0.9s1-0.9,1.7-0.9H183.4z M183.3,40.4c0.7,0,1.7,0,1.7,0.9
			s-1,0.9-1.7,0.9h-3.5c-0.7,0-1.7,0-1.7-0.9s1-0.9,1.7-0.9H183.3z M183.4,43.2c0.7,0,1.6,0,1.6,0.9s-0.9,0.9-1.6,0.9h-3.5
			c-0.8,0-1.6,0-1.6-0.9s0.9-0.9,1.6-0.9H183.4z M180.1,53.4c-1.5,0-1.8-0.6-1.8-1.9v-3.6c0-1.3,0.4-1.9,1.8-1.9h3.1
			c1.5,0,1.8,0.6,1.8,1.9v3.6c0,1.3-0.3,1.9-1.8,1.9H180.1z M180.7,47.8c-0.3,0-0.5,0.3-0.5,0.5V51c0,0.2,0.2,0.5,0.5,0.5h2
			c0.2,0,0.5-0.2,0.5-0.5v-2.6c0-0.3-0.2-0.5-0.5-0.5h-2V47.8z M194.3,43.1c0.5,0,1.8,0,1.8,1.5c0,1.7-1,3.7-2.7,5.4
			c0.9,0.5,1.2,0.6,2.8,1.2c0.4,0.1,1,0.4,1,1.1c0,0.6-0.5,1.1-1,1.1s-2.7-0.8-4.4-2c-2.1,1.4-4.5,2-5.3,2c-1,0-1.1-0.8-1.1-1
			c0-0.8,0.5-0.9,1.8-1.2c0.8-0.1,2.1-0.6,2.9-1.1c-1.7-1.5-2.3-2.5-3.5-5.1c-0.4,0-1.1,0-1.1-1s0.9-1,1.7-1L194.3,43.1L194.3,43.1z
			 M191.9,37.2c0-0.3,0-0.6-0.5-0.6h-1.5c-0.6,0-0.6,0.1-0.7,1.4c-0.1,1.1-0.2,3.2-1.7,4.2c-0.5,0.4-0.8,0.4-0.9,0.4
			c-0.8,0-1-0.8-1-1c0-0.3,0.1-0.4,0.8-1.3c0.7-0.7,0.8-1.8,0.8-2.8c0-1.7,0-1.9,0.2-2.3c0.3-0.6,0.9-0.7,1.4-0.7h3.8
			c0.6,0,1.3,0.4,1.3,1.7v3.4c0,0.2,0,0.7,0.6,0.7c0.7,0,0.9-0.6,0.9-1.5c0-0.4,0-1.3,0.8-1.3c0.9,0,0.9,0.8,0.9,1.5
			c0,3.1-1,3.3-3.1,3.3c-0.8,0-2.2,0-2.2-1.8L191.9,37.2L191.9,37.2z M188.7,45c0.4,0.9,1.2,2.5,3,3.9c1.6-1.5,2-2.9,2-3.5
			c0-0.4-0.4-0.4-0.6-0.4H188.7z"/>
		<path class="st3" d="M209,42h-3.8c-0.8,0-1.7,0-1.7-1s0.9-1,1.7-1h9.6c0.8,0,1.7,0,1.7,1s-1,1-1.7,1h-3.7v2.7h5
			c0.8,0,1.7,0,1.7,1.1s-0.9,1.1-1.7,1.1h-5v4.3h7c0.8,0,1.7,0,1.7,1s-0.9,1-1.7,1h-7.7c-3.3,0-5.3-1.8-6.3-3c-0.6,1.1-2,3.4-3,3.4
			c-0.5,0-1.1-0.4-1.1-1.1c0-0.4,0.1-0.5,0.8-1.4c1.4-1.7,2.6-3.9,3-6.1c0.2-1,0.3-1.6,1.1-1.6c0.6,0,1.1,0.3,1.1,1.1
			c0,0.7-0.4,2.4-1,3.8c1.4,2,3.1,2.7,3.9,2.8L209,42L209,42z M209,36.3v-0.7c0-0.7,0-1.6,1.1-1.6s1.1,0.8,1.1,1.6v0.7h6.8
			c1,0,1.5,0.9,1.5,1.4v2.4c0,0.8,0,1.7-1.1,1.7c-1,0-1-0.9-1-1.7v-1.3c0-0.5-0.3-0.6-0.6-0.6h-13.4c-0.6,0-0.6,0.3-0.6,0.6v1.4
			c0,0.8,0,1.7-1,1.7s-1-0.9-1-1.7V38c0-0.6,0.5-1.6,1.8-1.6h6.4V36.3z"/>
		<path class="st3" d="M237.2,44.6c0,0.6,0,4.3-1.3,6.3c-1,1.5-2.5,1.5-3.1,1.5c-1.1,0-3.4-0.2-3.4-1.7c0-0.7,0.6-1.1,1.1-1.1
			c0.2,0,0.3,0,1,0.3c0.2,0.1,0.7,0.2,1.1,0.2c0.8,0,1.3-0.5,1.5-0.8c0.4-0.7,0.8-3,0.8-5c0-2.6-1.1-2.9-2.5-2.9c-0.1,0-0.6,0-1.3,0
			c-0.3,1.4-0.9,4.9-3.1,8.6c-1,1.7-1.5,2.3-2.3,2.3c-0.7,0-1.2-0.5-1.2-1.1c0-0.4,0.1-0.6,1-1.8c1.2-1.6,2.4-4.3,3.1-7.8
			c-0.5,0.1-1,0.1-1.7,0.3c-0.3,0.1-1.5,0.3-1.7,0.3c-0.7,0-1.1-0.5-1.1-1.2c0-0.3,0.1-1,1.1-1.3c0.7-0.2,2.6-0.5,3.8-0.6
			c0-0.5,0.1-3,0.3-3.6c0-0.1,0.3-0.8,1.2-0.8c1.2,0,1.2,1,1.2,1.5c0,1-0.2,2.4-0.2,2.8C234.8,39.1,237.2,39.1,237.2,44.6z
			 M241.3,45.7c-0.8,0-1-0.4-1.5-1.7s-1.1-2.8-2.5-4.9c-0.8-1.2-0.9-1.3-0.9-1.7c0-0.6,0.4-1.1,1.2-1.1c0.4,0,1,0,2.8,3.1
			c1.1,1.8,2.1,4.2,2.1,5.1C242.5,45.1,241.9,45.7,241.3,45.7z M240.1,35.5c1.1,1.3,1.2,1.5,1.2,1.9c0,0.5-0.4,0.7-0.6,0.7
			c-0.4,0-0.4-0.1-1.1-1.3c-0.2-0.4-0.6-1-0.8-1.2c-0.2-0.3-0.2-0.4-0.2-0.5c0-0.3,0.3-0.5,0.5-0.5
			C239.4,34.6,239.5,34.7,240.1,35.5z M243.1,36.4c0,0.6-0.5,0.6-0.6,0.6c-0.3,0-0.4-0.1-1.3-1.4c-0.6-0.8-1-1.4-1-1.6
			c0-0.3,0.2-0.4,0.5-0.4C241,33.5,243.1,35.5,243.1,36.4z"/>
		<path class="st3" d="M262.4,50.2c0,2.6-1.7,3.2-4.1,3.2c-1.4,0-3.2-0.3-3.7-0.5c-0.1-0.1-0.7-0.3-0.7-1c0-0.6,0.4-1,1.1-1
			c0.1,0,1.4,0.2,1.6,0.2c0.4,0.1,1,0.2,1.7,0.2c0.6,0,1.9,0,1.9-1.3V37.3h-13.1c-0.8,0-1.7,0-1.7-1.1s0.9-1.1,1.7-1.1h15.7
			c0.8,0,1.7,0,1.7,1.1s-0.9,1.1-1.7,1.1h-0.4L262.4,50.2L262.4,50.2z M257.9,47c0,0.6-0.4,1.7-1.8,1.7H249c-1.4,0-1.8-1-1.8-1.7
			v-6.2c0-0.6,0.4-1.7,1.8-1.7h7.1c1.3,0,1.8,1.1,1.8,1.7V47z M249.3,45.9c0,0.4,0.1,0.6,0.6,0.6h5.3c0.5,0,0.6-0.2,0.6-0.6v-4.2
			c0-0.4-0.6-0.5-0.7-0.5h-5c-0.1,0-0.7,0-0.7,0.5v4.2H249.3z"/>
		<path class="st3" d="M270.6,35c0.3-0.7,0.4-0.9,1-0.9s1,0.4,1,1c0,0.4-0.2,0.8-1.2,3.1c1.4-0.2,2.5-0.4,3.8-0.7
			c-0.1-0.2-0.3-0.5-0.7-1.2c-0.1-0.2-0.3-0.5-0.3-0.8c0-0.6,0.5-0.9,0.9-0.9c0.7,0,1,0.6,1.3,1.2c1.4,2.5,1.8,3.8,1.8,4
			c0,0.4-0.3,0.9-0.9,0.9c-0.7,0-0.8-0.3-1.3-1.5c-1.2,0.4-5.2,1.1-7.1,1.1c-0.4,0-1.3,0-1.3-1s1-1,1.4-1
			C269.9,36.8,270,36.6,270.6,35z M270.6,49.5V52c0,0.9,0,1.7-1.1,1.7c-1,0-1-0.7-1-1.7v-8.7c0-2.2,1.6-2.2,2.4-2.2h4.7
			c0.7,0,2.1,0,2.1,2v8.6c0,1.3-1,1.9-2.1,1.9c-0.4,0-2.5-0.2-3-0.4s-0.6-0.6-0.6-0.9c0-0.5,0.4-0.9,0.9-0.9c0.3,0,1.8,0.2,2.1,0.2
			c0.7,0,0.7-0.4,0.7-0.6v-1.7h-5.1V49.5z M275.7,44.4v-0.7c0-0.6-0.1-0.6-0.8-0.6h-3.6c-0.5,0-0.7,0-0.7,0.6v0.6h5.1V44.4z
			 M270.6,46.3v1.4h5.1v-1.4H270.6z M280.8,40.3c0,0.7,0.3,0.9,1.1,0.9h2c0.7,0,1,0,1.4-0.9c0.2-0.6,0.4-1,1-1s1,0.5,1,1
			c0,0.4-0.3,1.6-0.7,2.1c-0.1,0.1-0.7,0.9-2.5,0.9h-2.4c-3,0-3-1.4-3-2.4V36c0-1,0-1.7,1-1.7s1,0.9,1,1.7v0.8
			c1.2-0.2,3-0.8,3.9-1.3c0.8-0.4,1-0.4,1.2-0.4c0.6,0,1,0.5,1,1.1c0,0.2,0,0.7-1.2,1.1c-1.8,0.7-4.4,1.3-4.9,1.4v1.6H280.8z
			 M280.8,50.4c0,0.4,0,1,0.8,1h2.3c1.1,0,1.2-0.6,1.3-1.2c0.1-0.8,0.2-1.5,1.1-1.5c0.3,0,1,0.2,1,1c0,3.5-1.8,3.7-3,3.7h-2.9
			c-0.5,0-2.5-0.1-2.5-2.1v-5.7c0-0.8,0-1.7,1-1.7s1,1,1,1.7v0.8c1.5-0.3,3-0.8,3.9-1.3c0.7-0.3,0.9-0.4,1.2-0.4
			c0.4,0,0.9,0.4,0.9,1c0,0.4-0.1,0.7-0.4,0.9c-0.6,0.4-3.1,1.3-5.6,1.9L280.8,50.4L280.8,50.4z"/>
		<path class="st3" d="M317.3,37.9c0.7,0,1.7,0,1.7,1c0,0.9-1,0.9-1.7,0.9H317v3.7c0.9-0.3,1-0.3,1.1-0.3c0.2,0,0.4,0.1,0.7,0.3v-1
			c0-1,0.6-1.5,1.6-1.5h7.6c0.8-2.3,0.8-2.5,1-2.8c0.2-0.7,0.3-1.3,1.1-1.3c0.8,0,1.1,0.6,1.1,1c0,0.6-0.9,3-1,3.1h0.3
			c1.5,0,1.5,1.2,1.5,1.4v1.5c0,1,0,1.8-1,1.8c-0.9,0-0.9-0.8-0.9-1.8v-0.6c0-0.2,0-0.5-0.5-0.5h-8.5c-0.3,0-0.5,0.2-0.5,0.5v0.8
			c0,0.7,0,1.7-0.9,1.7s-0.9-1-0.9-1.3c-0.3,0.3-0.7,0.5-1.8,0.9v6.4c0,1.4-1.2,1.6-1.8,1.6c-1.6,0-2.3-0.3-2.3-1.1c0-0.5,0.4-1,1-1
			c0.1,0,0.7,0.1,0.9,0.1c0.2,0,0.3-0.1,0.3-0.5V46c-0.6,0.2-0.9,0.2-1.2,0.2c-0.2,0-1,0-1-1.1c0-0.7,0.4-0.8,0.6-0.9
			c0.1-0.1,1.4-0.3,1.6-0.4v-4.2h-0.5c-0.7,0-1.7,0-1.7-0.9c0-1,1-1,1.7-1h0.5v-2.1c0-0.7,0-1.7,1-1.7s1,0.9,1,1.7v2.1h0.2V37.9z
			 M327.6,34.8c0.5-0.1,2.7-0.5,3.1-0.5c0.5,0,1,0.3,1,0.9c0,0.8-0.6,0.9-1.1,1c-3.2,0.6-7.3,0.9-9.9,0.9c-1,0-1.9,0-1.9-0.9
			c0-1,1-1,1.7-1C323,35.1,325.3,35.1,327.6,34.8z M328.7,44.2c1.4,0,1.5,1.1,1.5,1.4c0,0.5-0.2,2-2.3,4.1c1.6,1,2.2,1.2,3.7,2
			c0.2,0.1,0.7,0.3,0.7,1c0,0.6-0.4,1-1,1c-0.5,0-2.9-0.9-5.1-2.5c-2.6,1.9-5.4,2.5-6.1,2.5s-1.1-0.5-1.1-1c0-0.7,0.5-0.9,1-1
			c1.6-0.5,3.2-1.1,4.6-2c-0.6-0.6-1.8-1.8-2.5-3.7c-1-0.1-1-0.8-1-0.9c0-0.9,1-0.9,1.7-0.9C322.8,44.2,328.7,44.2,328.7,44.2z
			 M321.6,37.5c0.7,0,0.9,0.5,1,0.7c0.2,0.5,0.6,1.4,0.6,1.8c0,0.6-0.6,0.9-1,0.9c-0.7,0-0.8-0.5-1-0.8c-0.1-0.2-0.5-1.5-0.5-1.5
			C320.6,37.9,321.1,37.5,321.6,37.5z M324.1,46c0.4,0.7,1.2,1.7,2.1,2.4c1.4-1.2,1.5-2,1.5-2.1s-0.1-0.3-0.4-0.3
			C327.3,46,324.1,46,324.1,46z M324.8,40.1c-0.1-0.3-0.6-1.6-0.6-1.9c0-0.4,0.3-1,0.9-1c0.5,0,0.7,0.2,1,0.8c0.3,0.7,0.5,1.5,0.5,2
			s-0.5,0.8-0.8,0.8C325.2,40.9,325,40.7,324.8,40.1z"/>
		<path class="st3" d="M352.1,40.8c0.7,0,1.7,0,1.7,0.9s-0.9,0.9-1.7,0.9h-5.9v1.3h5.2c0.7,0,1.7,0,1.7,0.9s-1,0.9-1.7,0.9h-5.2V47
			h6.6c0.9,0,1.7,0,1.7,0.9s-0.8,0.9-1.7,0.9H349c1.8,1.5,2.6,1.8,4.8,2.4c0.4,0.1,1,0.3,1,1.1c0,0.6-0.6,1-1.1,1s-1.7-0.4-2.2-0.6
			c-2.2-0.8-3.9-2-5.2-3.9h-0.1V52c0,0.7,0,1.7-1.1,1.7c-1.2,0-1.2-0.8-1.2-1.7v-3.1h-0.1c-2.7,2.8-6.4,4.6-7.3,4.6
			c-0.5,0-1-0.4-1-1.1c0-0.7,0.2-0.8,2-1.5c0.2-0.1,2-0.9,3.3-2h-3.6c-0.9,0-1.7,0-1.7-0.9s0.8-0.9,1.7-0.9h6.6v-1.3h-5.1
			c-0.7,0-1.7,0-1.7-0.9s1-0.9,1.7-0.9h5.1v-1.3h-5.7c-0.7,0-1.7,0-1.7-0.9s0.9-0.9,1.7-0.9h2.9c-0.4-0.9-0.5-1-0.7-1.5h-3.2
			c-0.8,0-1.7,0-1.7-1s0.9-1,1.7-1h1.7c-0.3-0.4-1-1.7-1-2c0-0.6,0.5-1,1-1c0.6,0,0.8,0.4,1,0.7c0.7,1.2,0.8,1.4,0.8,1.8
			c0,0.2,0,0.4-0.1,0.5h1.7v-1.5c0-0.8,0-1.7,1-1.7s1.1,0.9,1.1,1.7v1.5h1.6v-1.5c0-0.8,0-1.8,1-1.8s1,1,1,1.8v1.5h1.6
			c-0.1-0.4,0-0.6,0.8-2c0.4-0.7,0.6-1,1.1-1s1.1,0.4,1.1,1c0,0.5-1.1,2-1.1,2h1.6c0.8,0,1.7,0,1.7,1s-0.9,1-1.7,1h-3.1
			c-0.1,0.2-0.1,0.3-0.7,1.5L352.1,40.8L352.1,40.8z M347.1,40.8c0.1-0.5,0.3-1,0.5-1.5h-4.9c0.2,0.5,0.5,1.1,0.6,1.5H347.1z"/>
		<path class="st3" d="M363.3,51c-2.7,0-4.5-2.7-4.5-6c0-5.3,4.2-9,9.5-9c5,0,8.2,3.6,8.2,8.2c0,5.5-4.7,8-7.9,8
			c-1.3,0-1.3-1.1-1.3-1.3c0-1.2,0.9-1.2,1.4-1.3c4.3-0.2,5.5-3.4,5.5-5.6c0-2.8-1.8-5.6-5.3-5.7C368.5,45.4,366.7,51,363.3,51z
			 M361.1,45.1c0,2,0.9,3.5,2.1,3.5c1.1,0,1.8-2,2-2.6c0.9-2.7,1.1-5.5,1.2-7.3C362.7,39.2,361.1,42.4,361.1,45.1z"/>
		<path class="st3" d="M384.6,43.3c0.9-0.4,1-0.4,1.2-0.4c0.6,0,0.8,0.6,0.8,1c0,0.5-0.2,0.7-2,1.5v5.8c0,1.2,0,2.4-2,2.4
			c-1.5,0-2.4-0.1-2.4-1.1c0-0.2,0.1-1,1.1-1c0.1,0,0.8,0.1,0.9,0.1c0.3,0,0.3-0.4,0.3-0.7V46c-0.3,0.1-1,0.3-1.4,0.3
			c-0.6,0-1-0.5-1-1c0-0.7,0.4-0.8,0.6-0.9c0.1-0.1,1.5-0.4,1.8-0.5v-4H382c-0.9,0-1.7,0-1.7-1s0.8-1,1.7-1h0.5v-2.1
			c0-0.8,0-1.7,1-1.7s1,0.9,1,1.7v2.1c1.3,0,2,0,2,1s-0.7,1-2,1v3.4H384.6z M392.3,44.5v6.3c0.3-0.1,1.4-0.5,1.7-0.5
			c0.2,0,1,0.1,1,0.9c0,0.5-0.3,0.8-0.7,1c-1.8,0.7-4.4,1.1-5.1,1.1s-1.1-0.5-1.1-1c0-0.7,0.5-0.9,1.1-1c0.2,0,0.9-0.1,1.1-0.1v-6.8
			H389c0,1.1-0.1,4.2-1.4,7c-0.4,1-0.8,1.6-1.5,1.6c-0.5,0-1-0.5-1-1c0-0.3,0.7-1.7,0.8-2c0.8-2.1,1.1-4.4,1.1-7.5v-6.2
			c0-1.4,0.3-1.8,1.7-1.8h9c0.8,0,1.7,0,1.7,1s-0.9,1-1.7,1h-8c-0.6,0-0.7,0.1-0.7,0.9v4.9h9.1c0.7,0,1.7,0,1.7,1s-1,1-1.7,1h-2.7
			c0.2,1.4,0.4,2.1,0.6,2.6c0.5-0.2,1-0.5,1.8-1c0.5-0.4,0.7-0.4,1-0.4c0.7,0,0.9,0.6,0.9,1s-0.2,0.7-0.4,0.8
			c-0.3,0.2-1,0.7-2.4,1.4c0.7,1.3,1.5,1.9,2.6,2.8c0.3,0.3,0.4,0.5,0.4,0.8c0,0.4-0.3,1.1-1,1.1c-0.3,0-0.7-0.1-1.1-0.4
			c-1.8-1.4-3.8-3.9-4.5-8.7h-1V44.5z M391.2,40.6c-0.6,0-1.7,0-1.7-1s1.1-1,1.7-1h6.4c0.6,0,1.7,0,1.7,1s-1.1,1-1.7,1H391.2z"/>
		<path class="st3" d="M404.6,40.4c-0.7,0-1.7,0-1.7-1s1-1,1.7-1h2.1c0-0.7,0-0.9,0.1-1.1h-2c-0.8,0-1.7,0-1.7-0.9s0.9-0.9,1.7-0.9
			h1.9c0-0.3-0.1-1.5,1.2-1.5c0.9,0,1,0.9,1,1.5h1.4c0.8,0,1.7,0,1.7,0.9s-0.9,0.9-1.7,0.9h-1.4c0,0.8,0,0.9-0.1,1.1h1.6
			c0.8,0,1.7,0,1.7,1s-1,1-1.7,1h-0.5c0.6,0.6,0.8,0.8,1.9,1.7c0.3,0.2,0.4,0.4,0.4,0.8c0,0.4-0.2,1.1-1,1.1c-0.5,0-1.5-0.5-3.1-2.7
			c-1.2,2.3-3.8,3.6-4.4,3.6s-1-0.4-1-1s0.4-0.8,0.6-1c1.9-1.3,2.4-1.6,2.9-2.5C406.2,40.4,404.6,40.4,404.6,40.4z M417.8,44.2
			c0.8,0,2.3,0.2,2.3,1.8v5.5c0,1.8-2,1.8-2.3,1.8h-10.4c-0.9,0-2.3-0.3-2.3-1.8V46c0-1.8,1.9-1.8,2.3-1.8H417.8z M407.4,47.7h10.5
			v-0.8c0-0.5-0.3-0.6-0.8-0.6h-8.9c-0.6,0-0.8,0.2-0.8,0.6L407.4,47.7L407.4,47.7z M417.9,49.6h-10.5v0.9c0,0.5,0.3,0.6,0.8,0.6
			h8.9c0.6,0,0.8-0.2,0.8-0.6L417.9,49.6L417.9,49.6z M414.5,40.4c-0.8,0-1.7,0-1.7-1s1-1,1.7-1h1.7c0-0.3,0-0.7,0.1-1.1h-1.7
			c-0.7,0-1.7,0-1.7-0.9s1-0.9,1.7-0.9h1.7c0-0.7,0.1-1.4,1.2-1.4c0.4,0,0.9,0.2,0.9,1v0.4h1.8c0.7,0,1.7,0,1.7,0.9s-1,0.9-1.7,0.9
			h-1.8c0,0.5,0,0.8,0,1.1h2.2c0.7,0,1.7,0,1.7,1s-1,1-1.7,1H419c0.9,1.1,1.1,1.3,2.8,2.4c0.3,0.2,0.7,0.5,0.7,1
			c0,0.2-0.1,1.1-1,1.1c-1,0-3.2-2.1-4.1-3.4c-1.1,1.7-2.8,2.5-3.4,2.5c-0.3,0-1.1-0.1-1.1-1c0-0.5,0.2-0.7,0.6-0.9
			c1.7-1.1,1.9-1.3,2.2-1.7C415.7,40.4,414.5,40.4,414.5,40.4z"/>
		<path class="st3" d="M437.2,43.9c0,1.2-0.9,2.1-2.1,2.1s-2.1-0.9-2.1-2.1c0-1.2,1-2.1,2.1-2.1C436.2,41.8,437.2,42.8,437.2,43.9z"
			/>
		<path class="st3" d="M464.1,45.2c0.6,0,1.3,0.4,1.3,1.3c0,2.2-3.6,4.1-4,4.4c1.4,0.4,2.9,0.7,4.4,0.8c0.6,0,1.5,0.1,1.5,1.1
			c0,1.1-1.3,1.1-1.5,1.1c-0.3,0-3.2-0.1-7.2-1.7c-3.6,1.3-7.9,1.5-8.6,1.5s-1.6,0-1.6-1c0-1.2,1.1-1.2,1.8-1.2c2,0,3.7-0.3,5.6-0.7
			c-1.5-0.9-2.3-1.6-3.3-2.6c-1.4,0.8-3.1,1.6-3.9,1.6c-0.6,0-1-0.4-1-1c0-0.7,0.7-1,1.2-1.1c2.8-0.9,4.2-2.3,5.2-3.3
			c0.3-0.3,0.8-0.7,1.2-0.7c0.4,0,1,0.4,1,1c0,0.3-0.1,0.5-0.2,0.6L464.1,45.2L464.1,45.2z M452.1,39.4c0,0.8-2.5,3.2-3.4,3.2
			c-0.5,0-0.9-0.4-0.9-0.9s0.3-0.7,0.6-1c1-0.8,1.4-1.3,1.9-1.9c0.1-0.2,0.3-0.4,0.7-0.5C451.6,38.3,452.1,38.7,452.1,39.4z
			 M456.4,38.3c0,5.3-5,6.5-5.5,6.5c-0.6,0-1-0.4-1-1c0-0.7,0.2-0.8,2-1.6c2.1-0.9,2.2-2.7,2.3-4.4h-4.6c-0.8,0-1.7,0-1.7-1
			s0.9-1,1.7-1h6.7c0-0.7,0-1.6,1.1-1.6s1.1,0.9,1.1,1.6h6.7c0.8,0,1.7,0,1.7,1s-0.9,1-1.7,1H461v4.8c0,0.6-0.4,1.7-2.4,1.7
			c-0.7,0-2.3-0.1-2.3-1.2c0-0.4,0.3-1,0.9-1c0.1,0,0.9,0,1.1,0c0.4,0,0.5-0.1,0.5-0.5v-3.8h-2.6v0.5H456.4z M454.3,47.2
			c1,0.9,2.6,2,4.3,2.7c2.3-0.9,3.7-1.8,3.7-2.5c0-0.2-0.1-0.3-0.3-0.3L454.3,47.2L454.3,47.2z M462.4,39.5c0-0.6,0.6-1,1.1-1
			c0.6,0,0.7,0.4,1,1c0.7,1.4,1.5,2.2,2,2.6c0.2,0.2,0.5,0.5,0.5,1s-0.4,1-1.1,1C464.7,44,462.4,40.7,462.4,39.5z"/>
		<path class="st3" d="M481.2,37.6h5.2c1.6,0,2,1.2,2,1.8v5.3c0,0.6-0.4,1.8-2,1.8h-5.3c-0.1,1.6-0.4,2.4-1,3.2
			c1.6,0.9,3.2,1.5,8.3,2c0.4,0,1.3,0.1,1.3,1c0,0,0,1-1.1,1c-1,0-3.1-0.3-4.9-0.6c-1.6-0.3-3.1-0.8-5.1-1.9
			c-2.9,2.2-6.8,2.3-7.2,2.3c-0.8,0-1.1-0.6-1.1-1.1c0-0.4,0.2-0.9,1-0.9c3.4-0.3,4.4-0.7,5.4-1.4c-0.5-0.4-1.9-1.3-1.9-2.2
			c0-0.4,0.3-1,1-1c0.4,0,0.6,0.2,0.9,0.4c0.8,0.6,0.9,0.7,1.6,1.3c0.5-0.7,0.6-1.4,0.6-2h-5.2c-1.6,0-2-1.2-2-1.8v-5.3
			c0-0.6,0.4-1.8,2-1.8h5.3v-1.1h-6.9c-0.7,0-1.7,0-1.7-1c0-0.9,0.9-0.9,1.7-0.9H488c0.7,0,1.7,0,1.7,0.9c0,1-1,1-1.7,1h-6.7
			L481.2,37.6L481.2,37.6z M479.2,41.1v-1.5h-4.4c-0.7,0-0.8,0.3-0.8,0.7v0.9h5.2V41.1z M473.9,42.9v1c0,0.4,0.1,0.7,0.8,0.7h4.4
			v-1.7H473.9z M486.3,41.1v-0.9c0-0.4-0.1-0.7-0.8-0.7h-4.3V41h5.1V41.1z M481.2,42.9v1.7h4.3c0.7,0,0.8-0.2,0.8-0.7v-1H481.2z"/>
		<path class="st3" d="M499.3,36.6c0-0.8,0.1-1.7,1.2-1.7c1.3,0,1.2,1,1.1,1.8l-0.1,2h2.6c0.7,0,1.7,0,1.7,1.2s-1,1.2-1.7,1.2h-2.8
			l-0.1,2.2h3.1c0.8,0,1.7,0,1.7,1.1c0,1.2-1,1.2-1.7,1.2h-3.2l-0.1,1.6c-0.2,2.5,1.6,3.3,3.3,3.3c3.5,0,4.2-2.4,4.2-3.6
			c0-0.6-0.1-1.3-0.2-1.9c-0.1-0.5-0.1-0.6-0.1-0.7c0-0.6,0.6-1,1.3-1c0.7,0,1,0.5,1.1,0.8c0.2,0.4,0.5,1.4,0.5,2.7
			c0,3.4-2.2,6-6.7,6c-0.7,0-3,0-4.6-1.9c-1-1.2-1-3-0.9-3.8l0.1-1.5h-2.7c-0.7,0-1.7,0-1.7-1.2s0.9-1.2,1.7-1.2h2.9l0.1-2.3h-2.6
			c-0.7,0-1.7,0-1.7-1.2c0-1.1,0.9-1.1,1.7-1.1h2.7L499.3,36.6z"/>
		<path class="st3" d="M518.6,42.5H517c-1,0-1.7,0-1.7-1s0.7-1,1.7-1h1.6v-2.9c-1.3,1.7-1.8,1.8-2.2,1.8c-0.7,0-1-0.6-1-1.1
			c0-0.4,0.2-0.6,0.8-1.2c0.2-0.2,1.1-1.1,2-2.6c0.1-0.3,0.4-0.5,0.8-0.5c0.2,0,1.1,0.1,1.1,0.9c0,0.3-0.2,0.6-0.2,0.7h12.8
			c1,0,1.7,0,1.7,1s-0.8,1-1.7,1h-1v3h1.5c1,0,1.7,0,1.7,1s-0.7,1-1.7,1h-1.5V46h1.2c0.7,0,1.7,0,1.7,1s-0.9,1-1.7,1h-15.5
			c-0.7,0-1.7,0-1.7-1s1-1,1.7-1h1.2L518.6,42.5L518.6,42.5z M519.6,49.6c0,0.6-0.8,1.8-1.7,2.9c-0.3,0.4-0.8,1.1-1.4,1.1
			c-0.6,0-1-0.4-1-1c0-0.3,0.1-0.4,0.7-1c0.4-0.4,1-1.1,1.5-2.3c0.2-0.5,0.5-0.7,0.9-0.7C519.3,48.6,519.6,49.2,519.6,49.6z
			 M520.6,40.5h1.6v-3h-1.6V40.5z M520.6,45.9h1.6v-3.4h-1.6V45.9z M524,49.9c0,0.2,0.6,2.1,0.6,2.5c0,0.6-0.4,1-1,1
			c-0.7,0-0.8-0.5-0.9-0.9c-0.1-0.3-0.8-3-0.8-3.1s0-0.9,1.1-0.9C523.6,48.5,523.9,49.4,524,49.9z M524.3,37.5v3h1.6v-3H524.3z
			 M524.3,42.5v3.4h1.6v-3.4H524.3z M528.3,53.4c-0.7,0-0.9-0.6-1.1-1.2c-0.1-0.4-0.9-2.4-1-2.7c-0.1-0.4,0.3-0.9,1-0.9
			s1,0.7,1.4,1.5c0.2,0.5,0.8,2,0.7,2.4C529.3,53.1,528.7,53.4,528.3,53.4z M528,37.5v3h1.6v-3H528z M528,42.5v3.4h1.6v-3.4H528z
			 M533.6,53.5c-0.7,0-0.9-0.4-1.1-1c-0.3-0.7-1-1.8-1.4-2.4c-0.1-0.2-0.3-0.4-0.3-0.8c0-0.3,0.2-0.9,1-0.9c0.5,0,0.8,0.3,1.6,1.4
			c0.4,0.7,1.3,2,1.3,2.5C534.6,53.4,533.8,53.5,533.6,53.5z"/>
		<path class="st3" d="M553.7,46.2V35.8c0-0.8,0-1.7,1-1.7s1,0.9,1,1.7v10.1c0.3,0,0.5-0.1,0.7-0.1c0.5,0,1,0.3,1,1
			c0,0.9-0.6,0.9-1.7,1.1v4c0,0.8,0,1.7-1,1.7s-1-0.9-1-1.7v-3.7l-5.3,0.8c-0.5,0.1-0.7,0.1-0.9,0.1c-0.4,0-0.9-0.3-1-1
			c-0.1,0-0.2,0.1-0.5,0.1c-0.4,0-0.6-0.2-0.8-0.4c-0.3-0.4-0.6-0.8-1.2-1.8v6c0,0.8,0,1.7-1,1.7s-1-0.9-1-1.7v-5.5
			c-0.2,0.5-0.9,1.8-2.3,3.4c-0.1,0.2-0.5,0.6-1,0.6c-0.4,0-1-0.5-1-1c0-0.2,0.1-0.4,0.3-0.7c1.7-2.3,2.7-3.6,3.6-6.2h-1.9
			c-0.8,0-1.7,0-1.7-1s0.9-1,1.7-1h2.3v-4.8c0-0.8,0-1.7,1-1.7s1,0.9,1,1.7v4.8h1.5c0.9,0,1.4,0,1.7,0.7c-0.1-0.7,0.4-1.3,1.1-1.3
			c0.5,0,1.7,1,2.3,1.5c1,0.8,1.6,1.4,1.6,1.9s-0.4,1-1,1c-0.4,0-0.7-0.2-1.1-0.7c-0.7-0.6-1.8-1.4-2.5-2c-0.3-0.3-0.3-0.3-0.4-0.5
			c0.2,1.2-1,1.2-1.7,1.2h-1.2c0.3,0.8,1.1,2.3,2.1,3.5c0.6,0.7,0.6,0.8,0.7,1.1c0.2-0.1,0.3-0.1,0.9-0.2L553.7,46.2z M540.5,39.7
			c-0.7,0-0.8-0.2-1.4-2.2c-0.3-0.8-0.3-0.8-0.5-1.6c0-0.1-0.1-0.3-0.1-0.5c0-0.4,0.4-0.9,0.9-0.9c0.8,0,1,0.6,1.4,1.7
			c0,0.1,0.8,2,0.7,2.6C541.3,39.4,540.9,39.7,540.5,39.7z M546.7,39.3c-0.1,0.2-0.3,0.8-1,0.8c-0.4,0-1-0.4-1-1
			c0-0.5,0.6-2.5,0.6-2.9c0.1-0.7,0.2-1.6,1.1-1.6c0.6,0,0.9,0.5,1,0.8C547.5,36.1,547,38.4,546.7,39.3z M551.9,39.6
			c-0.4,0-0.6-0.1-1.1-0.8c-0.1-0.1-0.8-0.9-2-2c-0.2-0.2-0.4-0.4-0.4-0.8s0.4-1,1.1-1c0.5,0,0.8,0.3,1.6,1.1
			c1.9,1.9,1.9,2.2,1.8,2.7C552.8,39.3,552.4,39.6,551.9,39.6z"/>
		<path class="st3" d="M562.6,39.1c-0.3,0-1.2,0-1.2-1.2c0-1.1,0.6-1.2,2.3-1.3c2.8-0.2,11.5-0.8,14.1-0.8c0.3,0,1.2,0,1.2,1.1
			s-0.7,1.1-2.2,1.3c-3.8,0.3-7.3,3.6-7.3,6.9c0,2.9,2.2,4.3,4.5,4.9c0.3,0.1,1.9,0.3,2.2,0.4c0.4,0.2,0.6,0.5,0.6,1
			c0,1.3-1.3,1.3-1.6,1.3c-2.5,0-8-2.4-8-7.3c0-1.6,0.6-4.7,4-7.2C569.8,38.2,562.9,39.1,562.6,39.1z M576,40.6
			c0.6,1,0.9,1.5,0.9,1.9c0,0.5-0.4,0.7-0.6,0.7c-0.4,0-0.4-0.2-0.8-1c-0.1-0.3-0.8-1.6-0.8-1.9c0-0.3,0.2-0.5,0.5-0.5
			C575.4,39.7,575.5,39.8,576,40.6z M577.1,41c-0.1-0.1-0.4-0.7-0.6-0.9c-0.1-0.3-0.2-0.4-0.2-0.5c0-0.3,0.2-0.5,0.4-0.5
			c0.6,0,2,2.1,2,2.7c0,0.4-0.4,0.6-0.5,0.6C577.8,42.3,577.8,42.3,577.1,41z"/>
		<path class="st3" d="M586.9,35.8c0-0.8,0-1.7,1-1.7s1,0.9,1,1.7v1.5h2.5c0.8,0,1.7,0,1.7,1.1s-0.9,1.1-1.7,1.1H591
			c-0.3,2.3-1,4.5-1.6,5.8c2.1,2,3,3,3,3.6s-0.5,1.1-1.1,1.1c-0.3,0-0.6-0.2-0.7-0.3c-0.4-0.3-1.8-2-2.2-2.3
			c-1.4,2.4-2.8,4.1-3.4,4.6c-0.4,0.4-0.6,0.6-1.1,0.6c-0.7,0-1-0.6-1-1s0.1-0.6,1.2-1.6c0.6-0.6,1.8-2.3,2.8-4.1
			c-0.4-0.4-2.4-2-2.8-2.3c-0.2-0.1-0.4-0.4-0.4-0.9s0.4-1,1-1c0.3,0,0.5,0.1,1.3,0.7c0.3,0.2,1.4,1.2,1.8,1.5
			c0.5-1.4,0.8-2.7,1.1-4.3h-4.3c-0.8,0-1.7,0-1.7-1.1s0.9-1.1,1.7-1.1h2.3L586.9,35.8L586.9,35.8z M600.8,38.2c0.8,0,1.7,0,1.7,1.1
			s-0.9,1.1-1.7,1.1h-0.4v10c0,1.3,0,3.2-3.6,3.2c-1.5,0-2.9-0.3-3.2-0.5s-0.5-0.6-0.5-1c0-0.6,0.4-1.1,0.9-1.1c0.1,0,1,0.2,1.1,0.2
			c1.1,0.2,1.8,0.2,1.9,0.2c1.2,0,1.2-0.6,1.2-1.2v-9.8h-3.4c-0.8,0-1.7,0-1.7-1.1s0.9-1.1,1.7-1.1h3.4v-2.5c0-0.8,0-1.7,1.1-1.7
			s1.1,0.7,1.1,1.7v2.5C600.4,38.2,600.8,38.2,600.8,38.2z M596.1,47.5c-0.7,0-0.9-0.5-1.2-1.3c-0.3-0.9-0.7-1.6-1.5-3
			c-0.2-0.3-0.3-0.5-0.3-0.8c0-0.6,0.4-1,1-1c1.4,0,3,4.5,3,5.1C597.2,47,596.8,47.5,596.1,47.5z"/>
		<path class="st3" d="M614.9,35.7c0-0.7,0-1.6,1-1.6s1,0.9,1,1.6h6.2c0.8,0,1.7,0,1.7,1.1s-0.9,1.1-1.7,1.1h-13.6
			c-0.5,0-0.6,0.2-0.6,0.6v6.1c0,4.3-0.9,7-1.4,8.1c-0.2,0.4-0.7,0.7-1.1,0.7c-0.2,0-1.1-0.1-1.1-1c0-0.3,0.6-1.8,0.7-2.2
			c0.7-2.4,0.7-4.6,0.7-5.6v-6.9c0-1.1,0.7-1.8,1.7-1.8h6.5V35.7z M609,50.8c0-0.4,0.6-2,0.6-2.4c0.3-1.3,0.4-1.7,0.6-3.1
			c0.1-0.4,0.2-1.2,1-1.2c0.5,0,1,0.3,1,1c0,0.5-0.3,2.4-0.7,4.2c-0.4,1.6-0.6,2.4-1.4,2.4C609.3,51.8,609,51.2,609,50.8z
			 M615.9,53.4c-1.4,0-2.7-0.7-2.7-2.1v-6.7c0-0.8,0-1.7,1-1.7s1,0.9,1,1.7v5.9c0,0.7,0.5,1,1.2,1h1.7c1,0,1.3-0.4,1.4-1.5
			c0.1-0.7,0.2-1.4,1.1-1.4c0.5,0,1.1,0.4,1.1,1.1c0,0.6-0.2,1.7-0.5,2.4c-0.5,1.1-1.3,1.4-2.5,1.4h-2.8V53.4z M618.5,43.2
			c-0.4,0-0.5-0.1-1.2-0.9c-0.7-0.7-1.7-1.4-2.7-2.1c-0.2-0.1-0.5-0.4-0.5-0.9c0-0.7,0.6-1,1-1c0.7,0,4.3,2.8,4.4,3.6
			c0,0.1,0,0.1,0,0.2C619.5,42.7,619,43.2,618.5,43.2z M622,43.3c0.7,0,1,0.4,1.7,2.4c0.7,1.9,1.3,4,1.3,4.5s-0.4,1-1.1,1
			c-0.8,0-0.9-0.4-1.2-1.6c-0.4-1.4-1-3.1-1.4-4.2c-0.2-0.5-0.4-0.8-0.4-1.1C621,43.8,621.3,43.3,622,43.3z"/>
		<path class="st3" d="M634,42c-0.1,1.3-0.1,2.7-0.1,4c0,2,0,4.6,3.5,4.6c3,0,5-2.5,5.7-3.8c0.7-1.2,0.9-1.6,1.6-1.6
			c0.2,0,1.1,0.1,1.1,1.1c0,1.1-1.5,3-2.2,3.7c-0.8,0.8-2.9,2.8-6.3,2.8c-5.7,0-5.7-4.6-5.7-6.3c0-0.9,0.1-3,0.1-3.6v-0.4l0.2-5.8
			c0-0.6,0.1-1.7,1.2-1.7c0.8,0,1.3,0.4,1.3,1.3c0,0.1,0,0.1,0,0.5L634,42z"/>
		<path class="st3" d="M659.8,36.4c0-0.8,0-1.7,1.2-1.7c1.1,0,1.2,0.9,1.2,1.7v0.7h3c0.7,0,1.7,0,1.7,1.2c0,1.1-0.8,1.1-1.7,1.1
			h-3.1v1.8h3.6c0.8,0,1.7,0,1.7,1.2s-0.8,1.2-1.7,1.2l-3.6,0.1v3.1c1.4,0.5,3.5,1.6,4.5,2.3c0.7,0.5,0.9,0.8,0.9,1.2
			c0,0.7-0.5,1.2-1.1,1.2c-0.3,0-0.4-0.1-1.9-1.1c-1.2-0.8-1.7-1-2.3-1.2c0,3.4-2.8,3.8-4.6,3.8c-3.2,0-4.8-1.7-4.8-3.8
			c0-2.5,2.1-3.5,4.5-3.5c1.4,0,2.1,0.2,2.5,0.3v-2.3l-5.5,0.1c-0.9,0-1.7,0-1.7-1.2s0.9-1.2,1.7-1.2l5.6-0.1v-1.8l-4.9,0.1
			c-0.9,0-1.7,0-1.7-1.2c0-1.1,0.8-1.1,1.7-1.1h4.9v-0.9H659.8z M657.3,47.9c-0.6,0-2.3,0.2-2.3,1.2c0,0.3,0.1,1.4,2.4,1.4
			c2.3,0,2.2-1.3,2.1-2.1C659.2,48.2,658.5,47.9,657.3,47.9z"/>
		<path class="st3" d="M684.6,36.2c0-0.8,0-1.7,1.2-1.7c1.3,0,1.2,1,1.2,1.7v0.9h3c0.8,0,1.7,0,1.7,1.1s-0.7,1.2-1.7,1.2h-3
			l-0.1,3.9c0.2,0.6,0.5,1.5,0.5,2.8c0,4.7-4.9,7.1-6.4,7.1c-1.1,0-1.2-1-1.2-1.2c0-0.8,0.4-0.9,1.6-1.4c2.1-0.8,3.3-1.9,3.5-3.5
			c-0.4,0.5-1.2,1.3-3,1.3c-2.6,0-3.9-2.3-3.9-3.9c0-1.9,1.4-4.1,4.2-4.1c1.4,0,2,0.5,2.5,1l-0.1-1.8l-9.5,0.2c-0.6,0-1.7,0-1.7-1.2
			c0-1.1,1-1.2,1.7-1.2l9.5-0.1V36.2z M680.5,44.4c0,0.9,0.6,1.7,1.7,1.7c1.3,0,1.9-1.1,1.9-1.8c0-0.5-0.4-1.6-1.9-1.6
			C681.2,42.7,680.5,43.6,680.5,44.4z"/>
		<path class="st3" d="M702.1,50.2c0,1.7-1.4,3.1-3.1,3.1c-1.7,0-3.1-1.4-3.1-3.1c0-1.7,1.4-3.1,3.1-3.1
			C700.8,47.1,702.1,48.4,702.1,50.2z M697.5,50.2c0,0.8,0.7,1.5,1.5,1.5s1.5-0.7,1.5-1.5s-0.7-1.5-1.5-1.5S697.5,49.3,697.5,50.2z"
			/>
	</g>
</g>
</svg>
