<?xml version="1.0" encoding="utf-8"?>
<!-- Generator: Adobe Illustrator 22.1.0, SVG Export Plug-In . SVG Version: 6.00 Build 0)  -->
<svg version="1.1" id="レイヤー_1" xmlns="http://www.w3.org/2000/svg" xmlns:xlink="http://www.w3.org/1999/xlink" x="0px"
	 y="0px" viewBox="0 0 759 51.7" style="enable-background:new 0 0 759 51.7;" xml:space="preserve">
<style type="text/css">
	.st0{fill:#FFDD00;}
	.st1{fill:#004EA1;}
	.st2{fill:#F98A00;}
	.st3{fill:#FFFFFF;}
</style>
<path class="st0" d="M741.6,43.1H34.5c-9.6,0-17.4-7.8-17.4-17.4l0,0c0-9.6,7.8-17.4,17.4-17.4h707.1c9.6,0,17.4,7.8,17.4,17.4l0,0
	C759,35.3,751.2,43.1,741.6,43.1z"/>
<g>
	<g>
		<path class="st1" d="M83.2,18.6c0.4,0,1.7,0,1.7,1.7c0,4-4.3,6.6-5.6,6.6c-0.7,0-1.1-0.6-1.1-1.2c0-0.6,0.2-0.7,1.8-1.6
			c1.7-1,2.4-2.2,2.4-2.7c0-0.4-0.2-0.4-0.9-0.4H69.6c-0.8,0-1.7,0-1.7-1.2s0.8-1.2,1.7-1.2C69.6,18.6,83.2,18.6,83.2,18.6z
			 M77.2,24c0,5.1-2,7.3-3,8.2c-1.8,1.9-3.9,2.8-4.7,2.8c-0.7,0-1.1-0.6-1.1-1.3s0.4-0.9,1-1.2c1.6-0.8,2.8-1.5,3.7-2.7
			c1.3-1.7,1.5-4.1,1.5-4.6c0-2.1,0-2.4,0.2-2.7c0.3-0.4,0.9-0.5,1-0.5C77.1,22.1,77.2,22.9,77.2,24z"/>
		<path class="st1" d="M94.5,34.3c-0.3,0.3-0.7,0.7-1.3,0.7c-0.6,0-1.1-0.6-1.1-1.2c0-0.5,0.2-0.6,0.6-1.1c2.1-2.2,3.2-4.7,3.2-9.4
			c0-0.5-0.1-2.7-0.1-3.2c0-0.3,0-1.2,1.2-1.2c0.6,0,0.9,0.3,1,0.6s0.1,2.9,0.1,3.5C98.2,27.3,97.5,31.3,94.5,34.3z M103.1,30.8
			c0,0.5,0,0.7,0.3,0.7c0.5,0,3.1-1.7,4.2-5.6c0.4-1.7,0.6-2.1,1.4-2.1c0.1,0,1.3,0,1.3,1.2c0,0.8-0.6,2.8-1.4,4.2
			c-1.7,3-4.4,5.1-6.1,5.1c-0.4,0-1.3-0.2-1.6-0.9c-0.1-0.2-0.2-0.5-0.2-1.4V19.9c0-0.8,0-1.7,1.1-1.7s1.1,0.9,1.1,1.7v10.9H103.1z"
			/>
		<path class="st1" d="M119.4,32.6c-1,1.5-1.4,2-2.1,2c-0.5,0-1.2-0.5-1.2-1.1c0-0.4,0.2-0.7,0.4-1c4-5.9,4.2-10.5,4.4-12.7
			c0-0.4,0.1-1.2,1.2-1.2c0.8,0,1.2,0.5,1.2,1C123.3,24.4,121.2,29.8,119.4,32.6z M134.7,33.5c0,1.1-1.1,1.1-1.3,1.1
			c-0.9,0-1.1-0.8-1.2-1.3c-1.8-7.1-3.8-10.9-4.9-12.9c-0.2-0.4-0.3-0.6-0.3-1c0-0.8,0.8-1.1,1.2-1.1c0.6,0,1,0.7,1.2,1
			c1.1,1.9,2.5,4.5,4.2,9.7C134.2,30.9,134.7,33,134.7,33.5z M131.1,17c0.4,0,0.7,0.4,1.1,0.9c0.5,0.7,1.2,1.6,1.2,2.1
			c0,0.6-0.5,0.7-0.6,0.7c-0.4,0-0.6-0.4-0.8-0.9c-0.2-0.4-1.2-2.1-1.2-2.3c0-0.1,0-0.1,0.1-0.2C130.9,17.1,131,17,131.1,17z
			 M132.9,16.1c0.7,0,2.3,2.3,2.3,2.9s-0.5,0.6-0.6,0.6c-0.3,0-0.4-0.1-1-1.2c-0.2-0.3-1.1-1.8-1.1-1.9c0,0,0-0.1,0-0.2
			C132.6,16.2,132.7,16.1,132.9,16.1z"/>
		<path class="st1" d="M152.8,33.7c0,0.9,0,1.7-1.2,1.7s-1.2-0.9-1.2-1.7v-8.1c-3.3,2.2-7.3,3.8-8,3.8c-0.9,0-1.2-0.8-1.2-1.3
			c0-0.8,0.5-1,1.3-1.3c1.8-0.7,7.4-2.8,11-7.1c0.2-0.3,1.2-1.7,1.4-1.9c0.1-0.1,0.3-0.3,0.8-0.3c0.6,0,1.3,0.4,1.3,1.2
			c0,1-2.3,3.4-4.3,5L152.8,33.7L152.8,33.7z"/>
		<path class="st1" d="M172.9,33.7c0,0.8,0,1.7-1.2,1.7c-1.3,0-1.3-0.9-1.3-1.7V19.2c0-0.8,0-1.7,1.2-1.7c1.3,0,1.3,0.9,1.3,1.7v4.1
			c1,0.2,4.3,1.3,6.5,2.4c1,0.5,2.2,1.1,2.2,2c0,0.6-0.4,1.2-1.1,1.2c-0.3,0-0.4-0.1-1.3-0.6c-1.9-1.1-4.1-2-6.3-2.5L172.9,33.7
			L172.9,33.7z"/>
		<path class="st1" d="M195.3,20c0.9,0,1.7,0,1.7,0.9s-0.7,0.9-1.7,0.9h-3.7c-0.9,0-1.7,0-1.7-0.9s0.7-0.9,1.7-0.9H195.3z
			 M194.8,28.4c0.9,0,1.6,0.5,1.6,1.4v4.4c0,0.9-0.7,1.4-1.6,1.4H192c-0.9,0-1.6-0.5-1.6-1.4v-4.4c0-0.9,0.7-1.4,1.6-1.4H194.8z
			 M194.8,22.8c1,0,1.7,0,1.7,0.9s-0.7,0.9-1.7,0.9h-2.7c-1,0-1.7,0-1.7-0.9s0.7-0.9,1.7-0.9H194.8z M194.8,17.2c1,0,1.7,0,1.7,0.9
			s-0.7,0.9-1.7,0.9h-2.7c-1,0-1.7,0-1.7-0.9c0-0.9,0.7-0.9,1.7-0.9C192.1,17.2,194.8,17.2,194.8,17.2z M194.7,25.6
			c1,0,1.7,0,1.7,0.9s-0.7,0.9-1.7,0.9h-2.5c-1,0-1.7,0-1.7-0.9s0.7-0.9,1.7-0.9H194.7z M192.6,30.2c-0.3,0-0.4,0.2-0.4,0.4v3
			c0,0.1,0.1,0.3,0.4,0.3h1.5c0.3,0,0.4-0.2,0.4-0.4v-3c0-0.1-0.1-0.4-0.4-0.4h-1.5V30.2z M198,32.2c-0.4,0-1,0-1-0.8s0.6-0.8,1-0.8
			v-3c0-1.1,0.5-1.9,1.8-1.9h2.5v-0.8h-3.6c-0.8,0-1.6,0-1.6-0.9s0.8-0.9,1.6-0.9h1.2v-1h-0.6c-1.1,0-1.7,0-1.7-0.7s0.6-0.7,1.7-0.7
			h0.6v-0.9h-1.1c-1,0-1.7,0-1.7-0.8s0.7-0.8,1.7-0.8h1.1V18c0-0.4,0.1-1.3,1-1.3c1,0,1,1,1,1.4h2.8c0-0.3,0-1.3,1-1.3s1,1,1,1.3
			h1.1c1,0,1.7,0,1.7,0.8s-0.7,0.8-1.7,0.8h-1.1v0.9c1.4,0,1.9,0,1.9,0.7S208,22,206.7,22v1h1.1c0.8,0,1.6,0,1.6,0.9
			s-0.8,0.9-1.6,0.9H204v0.8h2.4c1.2,0,1.9,0.6,1.9,2v3c0.4,0,1.1,0.1,1.1,0.8c0,0.8-0.6,0.8-1.1,0.8v1.7c0,1.4-0.6,2.3-2.7,2.3
			c-2.3,0-3-0.3-3-1.2c0-0.4,0.3-1,1-1c0.3,0,1.7,0.1,2,0.1c0.7,0,0.7-0.3,0.7-0.7v-1.2h-6.4v2.5c0,0.7,0,1.4-0.9,1.4
			c-1,0-1-0.6-1-1.4V32.2z M202.2,28.1v-0.7h-1.7c-0.6,0-0.6,0.3-0.6,0.7H202.2z M202.2,30.6v-0.8h-2.3v0.8H202.2z M201.8,19.7v0.9
			h2.8v-0.9H201.8z M201.8,22v1h2.8v-1H201.8z M206.4,28.1c0-0.5,0-0.7-0.5-0.7H204v0.7H206.4z M206.4,30.6v-0.8H204v0.8H206.4z"/>
		<path class="st1" d="M220.6,18.7c1,0,1.7,0.3,1.7,1.6v3.8c0,0.9-0.3,1.7-1.9,1.7H217v2.1h3.6c1.7,0,1.9,0.7,1.9,1.8v3.8
			c0,0.8,0,2-1.8,2h-4c-1.8,0-1.8-1.3-1.8-2V20.4c0-1.7,1-1.7,2.4-1.7c0.1-0.3,0.2-1,0.3-1.4c0.1-0.5,0.6-0.7,1-0.7
			c0.3,0,1.1,0.1,1.1,1.1c0,0.3-0.1,0.8-0.1,1H220.6z M217,23.7h2.7c0.5,0,0.5-0.3,0.5-0.7v-1.9c0-0.4-0.3-0.4-0.6-0.4h-2
			c-0.5,0-0.6,0.3-0.6,0.5L217,23.7L217,23.7z M217,30v2.8c0,0.4,0,0.6,0.5,0.6h2.4c0.5,0,0.5-0.2,0.5-0.6v-2.2
			c0-0.5-0.2-0.6-0.7-0.6H217z M229.2,21.1h2.5c0.5,0,1.7,0,1.7,1.3v9.7c0,0.9-0.1,1.9-1.9,1.9c-0.8,0-2.2-0.1-2.2-1.2
			c0-0.7,0.5-1.1,1-1.1c0.1,0,0.6,0,0.7,0c0.3,0,0.4-0.2,0.4-0.5v-7.5c0-0.5-0.3-0.5-0.7-0.5h-1.5v11.5c0,0.7,0,1.7-1,1.7
			s-1-0.9-1-1.7V23.1H226c-0.2,0-0.7,0-0.7,0.5v9c0,0.8,0,1.7-1,1.7s-1-0.9-1-1.7v-10c0-1.3,0.8-1.6,1.8-1.6h2.1v-1.9h-2.8
			c-0.8,0-1.7,0-1.7-1s0.9-1,1.7-1h7.9c0.8,0,1.7,0,1.7,1s-0.9,1-1.7,1h-3.1V21.1z"/>
		<path class="st1" d="M244.1,28.4c0.4,0,0.8,0.3,0.8,0.8c0,0.3-0.6,1.5-0.7,1.8c-0.3,1-0.4,1.7-0.5,2.7c0,0.3-0.2,1.4-1.2,1.4
			c-0.9,0-1.3-1-1.4-1.3c-0.6-1.7-0.7-5-0.7-6.9c0-3.9,0.5-7.9,0.9-8.6c0.3-0.4,0.7-0.6,1.1-0.6c0.4,0,1.2,0.2,1.2,1
			c0,0.1-0.3,1.8-0.4,2.1c-0.4,2.3-0.6,4.9-0.6,6.7c0,1,0,1.8,0.1,2.5C243,29.2,243.3,28.4,244.1,28.4z M252.1,19.1
			c0-0.8,0-1.7,1.1-1.7c1.2,0,1.2,1,1.2,1.7v2.4h1.8c0.8,0,1.7,0,1.7,1.2c0,1.3-1,1.3-1.7,1.3h-1.8l0.1,5.3c1.1,0.6,2.2,1.3,3.1,2.1
			c0.2,0.1,0.5,0.5,0.5,1c0,0.6-0.6,1.3-1.2,1.3c-0.4,0-0.6-0.2-0.9-0.4c-0.9-0.7-0.9-0.8-1.6-1.3c-0.2,0.8-0.6,3.1-4.2,3.1
			c-2.5,0-4.7-1.2-4.7-4c0-2.5,2.1-3.4,4-3.4c1.1,0,2,0.3,2.8,0.5l-0.1-4.2l-5.3,0.1c-0.8,0-1.7,0-1.7-1.3c0-1.2,0.9-1.2,1.7-1.2
			l5.3-0.1L252.1,19.1z M249.7,30.1c-0.3,0-1.8,0-1.8,1.2c0,0.6,0.4,1.6,2.2,1.6c1.9,0,2.1-1.2,2.2-2
			C251.4,30.1,250.3,30.1,249.7,30.1z"/>
		<path class="st1" d="M270.4,19.4c0-0.7,0-1.7,1.2-1.7s1.2,1,1.2,1.7v3l6.5-1.1c0.4-0.1,0.6-0.1,0.8-0.1c1,0,2,0.5,2,2.1
			c0,3.5-4.5,6.3-5.9,6.3c-0.6,0-1.1-0.5-1.1-1.3c0-0.7,0.4-0.9,0.8-1.1c2.3-1.1,2.9-1.8,3.2-2.4c0.1-0.1,0.3-0.6,0.3-0.8
			c0-0.3-0.2-0.3-0.3-0.3c-0.1,0-0.3,0-0.5,0.1l-5.9,1.1v5.4c0,1.9,0,2.3,3,2.3c1.3,0,2.4-0.1,2.6-0.1c0.8-0.1,2.3-0.2,2.4-0.2
			c0.7,0,1.1,0.5,1.1,1.1c0,0.2,0,0.9-0.8,1.1c-1,0.3-3.9,0.4-5.2,0.4c-2.9,0-4.1-0.4-4.8-1.1c-0.5-0.6-0.6-1.7-0.6-1.8v-6.7
			l-3.5,0.6c-0.4,0.1-0.6,0.1-0.8,0.1c-1.1,0-1.1-1.1-1.1-1.2c0-1,0.7-1.1,1.5-1.3l3.9-0.7L270.4,19.4L270.4,19.4z M279.5,17.4
			c0-0.3,0.2-0.4,0.5-0.4c0.5,0,2,2.3,2,2.9c0,0.5-0.4,0.6-0.6,0.6c-0.3,0-0.5-0.2-0.8-0.8c-0.2-0.3-1-1.7-1.1-2
			C279.5,17.5,279.5,17.5,279.5,17.4z M281.7,16.5c0.7,0,2,2,2,2.6c0,0.4-0.3,0.6-0.5,0.6c-0.3,0-0.4-0.1-0.9-1.1
			c-0.4-0.6-0.6-0.9-0.9-1.3c-0.1-0.1-0.2-0.2-0.2-0.3c0-0.1,0-0.1,0.1-0.2C281.3,16.5,281.4,16.5,281.7,16.5z"/>
		<path class="st1" d="M303.1,19.1c0.9,0,2.8,0,2.8,2.6v9.6c0,2.6-2,2.6-2.8,2.6h-10c-0.9,0-2.8,0-2.8-2.6v-9.6c0-2.6,2-2.6,2.8-2.6
			H303.1z M293.4,21.4c-0.8,0-0.9,0.1-0.9,0.9v8.6c0,0.7,0.1,0.9,0.9,0.9h9.3c0.8,0,0.9-0.1,0.9-0.9v-8.6c0-0.7-0.1-0.9-0.9-0.9
			H293.4z"/>
		<path class="st1" d="M324.5,33.2c0,0.9-0.8,1.7-1.7,1.7c-0.9,0-1.7-0.7-1.7-1.7s0.8-1.7,1.7-1.7S324.5,32.3,324.5,33.2z
			 M321.2,19.1c-0.1-0.7,0.6-1.7,1.6-1.7c0.9,0,1.6,0.9,1.5,1.7l-0.8,10.5c0,0.4-0.3,0.8-0.8,0.8c-0.7,0-0.7-0.7-0.8-0.8L321.2,19.1
			z"/>
		<path class="st1" d="M346,24.2c0.7,0,1.1,0.5,1.1,0.9c0,0.6-1,1.5-1.6,2c0.7-0.1,1.5-0.2,1.7-0.2c0.5,0,0.9,0.2,0.9,0.7
			c0,0.7-0.4,0.8-3.4,1.1c0,0.1,0.1,0.5,0.1,0.8c0,1.4-1.1,1.7-2.3,1.7c-2,0-2.9,0-2.9-0.9c0-0.4,0.3-0.7,0.7-0.7
			c0.4,0,1.3,0.1,1.8,0.1c0.6,0,0.7-0.1,0.7-0.4c0-0.2-0.1-0.4-0.2-0.6c-1.6,0.1-3.7,0.1-4,0.1c-0.7,0-1.2-0.1-1.2-0.8
			c0-0.5,0.4-0.8,1.2-0.8c0.4,0,2.5,0,3,0c-0.2-0.2-0.3-0.4-0.3-0.7s0.3-0.8,0.8-0.8c0.3,0,0.6,0.2,1.3,0.9c0.3-0.4,0.7-0.8,0.7-1
			c0-0.1-0.2-0.2-0.3-0.2h-4.3c-1,0-1.6,0-1.6-0.7s0.6-0.7,1.6-0.7h6.5V24.2z M342.2,18v-0.4c0-0.5,0.4-1,1-1s1,0.4,1,1V18h2
			c1.1,0,1.7,0,1.7,0.7s-0.6,0.7-1.7,0.7h-6.8c-1.1,0-1.7,0-1.7-0.7s0.6-0.7,1.7-0.7H342.2z M354.5,31.7c1.1,0,1.7,0,1.7,0.8
			s-0.6,0.8-1.7,0.8h-6v0.9h6.7c1.1,0,1.7,0,1.7,0.8s-0.5,0.8-1.7,0.8h-15.7c-1.1,0-1.7,0-1.7-0.8s0.5-0.8,1.7-0.8h6.8v-0.9h-5.9
			c-1.1,0-1.7,0-1.7-0.8s0.6-0.8,1.7-0.8h5.9c0-1,0-1.8,1.1-1.8s1.1,0.8,1.1,1.8H354.5z M338.7,21.1c0-0.4,0.4-0.9,1.2-0.9h6.3
			c0.9,0,1.2,0.7,1.2,1.1v1.1c0,0.8-0.4,1.1-1.1,1.1H340c-0.8,0-1.3-0.3-1.3-1V21.1z M345.4,21.7c0-0.2-0.2-0.3-0.4-0.3h-4
			c-0.3,0-0.4,0.1-0.4,0.3v0.4c0,0.2,0.1,0.3,0.4,0.3h4.1c0.3,0,0.4-0.1,0.4-0.3v-0.4H345.4z M349.5,21c-0.7,0-1.7,0-1.7-1
			s1-1,1.7-1h0.8v-0.7c0-0.7,0-1.7,0.9-1.7s0.9,1,0.9,1.7V19h2c1,0,1.3,0.7,1.3,1.6c0,3.4,0,7,0.6,7c0.1,0,0.1-0.4,0.2-0.6
			c0-0.2,0.3-0.4,0.6-0.4c0.7,0,0.7,0.6,0.7,1s-0.4,3.5-1.6,3.5c-2.1,0-2.2-7.5-2.3-9.5c0-0.5-0.1-0.7-0.5-0.7h-0.9
			c0,1.3,0,2.4-0.2,3.7c1.6,1.5,1.8,1.7,1.8,2.2c0,0.6-0.5,1-1,1c-0.4,0-0.6-0.2-1.4-1.1c-0.5,1.3-1.5,3.3-2.5,3.3c-0.4,0-1-0.3-1-1
			c0-0.1,0.1-0.4,0.3-0.6c0.6-0.9,1.4-2.3,1.7-3.2c-0.3-0.2-1.5-1.2-1.5-1.3c-0.2-0.2-0.2-0.4-0.2-0.7c0-0.5,0.4-0.9,1-0.9
			c0.3,0,0.7,0.3,1.2,0.6c0-0.5,0.1-2,0.1-2.2h-1V21z"/>
		<path class="st1" d="M378.2,20.2c0.7,0,1.7,0,1.7,1s-0.9,1-1.7,1h-11.3v1.1h11.4c0.7,0,1.7,0,1.7,0.9s-1,0.9-1.7,0.9h-11.4v1.4
			H380c1,0,1.7,0,1.7,1s-0.7,1-1.7,1h-7.6c0.5,1,1.1,1.9,1.9,2.7c0.8-0.3,2.4-1.1,3.1-1.5c0.6-0.4,0.8-0.5,1.1-0.5c0.7,0,1,0.5,1,1
			c0,0.4-0.2,0.7-0.5,0.9c-1,0.7-1.9,1.1-2.8,1.5c1.5,0.9,2.7,1.1,4.8,1.6c0.5,0.1,0.8,0.4,0.8,1c0,0.5-0.4,1-1,1
			c-0.1,0-3.5-0.2-6.5-2.4c-2.5-1.9-3.6-4.4-4.1-5.4h-3.4v5.1c1-0.2,1.9-0.3,2.7-0.6c0.6-0.2,1.3-0.4,1.5-0.4c0.5,0,1,0.4,1,1
			c0,0.9-1.5,1.3-2.2,1.5c-2.9,0.7-5.5,0.9-6,0.9c-0.9,0-1.2-0.7-1.2-1c0-1,0.6-1,2.2-1.2v-5.2h-0.9c-1,0-1.7,0-1.7-1s0.7-1,1.7-1
			h0.9V19c0-1,0.7-1.8,1.8-1.8h12.1c0.7,0,1.7,0,1.7,1s-0.9,1-1.7,1h-11.4c-0.2,0-0.6,0-0.6,0.7v0.4h11.5V20.2z"/>
		<path class="st1" d="M401.4,27.2c0,0.6,0,4.3-1.3,6.3c-1,1.5-2.5,1.5-3.1,1.5c-1.1,0-3.4-0.2-3.4-1.7c0-0.7,0.6-1.1,1.1-1.1
			c0.2,0,0.3,0,1,0.3c0.2,0.1,0.7,0.2,1.1,0.2c0.8,0,1.3-0.5,1.5-0.8c0.4-0.7,0.8-3,0.8-5c0-2.6-1.1-2.9-2.5-2.9c-0.1,0-0.6,0-1.3,0
			c-0.3,1.4-0.9,4.9-3.1,8.6c-1,1.7-1.5,2.3-2.3,2.3c-0.7,0-1.2-0.5-1.2-1.1c0-0.4,0.1-0.6,1-1.8c1.2-1.6,2.4-4.3,3.1-7.8
			c-0.5,0.1-1,0.1-1.7,0.3c-0.3,0.1-1.5,0.3-1.7,0.3c-0.7,0-1.1-0.5-1.1-1.2c0-0.3,0.1-1,1.1-1.3c0.7-0.2,2.6-0.5,3.8-0.6
			c0-0.5,0.1-3,0.3-3.6c0-0.1,0.3-0.8,1.2-0.8c1.2,0,1.2,1,1.2,1.5c0,1-0.2,2.4-0.2,2.8C399,21.7,401.4,21.7,401.4,27.2z
			 M405.5,28.2c-0.8,0-1-0.4-1.5-1.7s-1.1-2.8-2.5-4.9c-0.8-1.2-0.9-1.3-0.9-1.7c0-0.6,0.4-1.1,1.2-1.1c0.4,0,1,0,2.8,3.1
			c1.1,1.8,2.1,4.2,2.1,5.1C406.7,27.7,406.1,28.2,405.5,28.2z M404.3,18c1.1,1.3,1.2,1.5,1.2,1.9c0,0.5-0.4,0.7-0.6,0.7
			c-0.4,0-0.4-0.1-1.1-1.3c-0.2-0.4-0.6-1-0.8-1.2c-0.2-0.3-0.2-0.4-0.2-0.5c0-0.3,0.3-0.5,0.5-0.5C403.6,17.1,403.7,17.2,404.3,18z
			 M407.2,19c0,0.6-0.5,0.6-0.6,0.6c-0.3,0-0.4-0.1-1.3-1.4c-0.6-0.8-1-1.4-1-1.6c0-0.3,0.2-0.4,0.5-0.4
			C405.2,16.1,407.2,18.1,407.2,19z"/>
		<path class="st1" d="M422.7,18.2h6.4c0.7,0,1.7,0,1.7,0.9s-1,0.9-1.7,0.9h-6.4v1.4h4.7c0.6,0,1.5,0.5,1.5,1.3v8.2
			c0,1.2-1.1,1.5-1.5,1.5H418c-0.1,0-1.4-0.1-1.4-1.5v-8.2c0-1,1-1.3,1.4-1.3h2.6V20h-7.2c-0.7,0-1.7,0-1.7-0.9s1-0.9,1.7-0.9h7.2
			c0-0.5,0-1.5,1-1.5s1.1,1,1.1,1.3L422.7,18.2L422.7,18.2z M414.9,35.8c-1.5,0-2.2-0.9-2.2-2.1V23.3c0-0.8,0-1.7,1-1.7s1,0.9,1,1.7
			v10c0,0.7,0.7,0.7,0.8,0.7h13.9c0.7,0,1.7,0,1.7,0.9s-1,0.9-1.7,0.9C429.4,35.8,414.9,35.8,414.9,35.8z M426.9,24.5v-0.6
			c0-0.6-0.1-0.6-0.5-0.6h-7.3c-0.4,0-0.5,0.1-0.5,0.6v0.6H426.9z M418.6,26.1v1.3h8.2v-1.3H418.6z M418.6,29.1v0.8
			c0,0.5,0,0.6,0.5,0.6h7.3c0.4,0,0.5-0.1,0.5-0.6v-0.8H418.6z"/>
		<path class="st1" d="M441.2,20.5c0.8,0,1.7,0,1.7,1s-0.9,1-1.7,1h-0.4v3.7c0.2-0.1,1.3-0.5,1.5-0.5c0.7,0,0.8,0.7,0.8,0.9
			c0,0.8-0.8,1.1-2.4,1.7v5.9c0,1.1,0,2.1-2.4,2.1c-0.7,0-1.9,0-1.9-1.1c0-1,0.8-1,1-1c0.1,0,0.9,0.1,1,0.1c0.4,0,0.4-0.4,0.4-0.7
			V29c-0.4,0.1-1.1,0.3-1.5,0.3c-0.9,0-1.1-0.7-1.1-1c0-0.4,0.2-0.8,0.7-1c0.3-0.1,1.6-0.4,1.9-0.5v-4.3H438c-0.8,0-1.7,0-1.7-1
			s0.9-1,1.7-1h0.8v-1.9c0-0.8,0-1.7,1-1.7s1,0.9,1,1.7v1.9H441.2z M454,27.2c0.7,0,1.7,0,1.7,1s-0.9,1-1.7,1
			c-0.3,1.2-0.8,2.3-1.8,3.5c2.4,1.3,3,1.9,3,2.5c0,0.5-0.4,1-0.9,1c-0.4,0-0.9-0.3-1-0.4c-1.8-1.2-2-1.3-2.6-1.6
			c-0.6,0.4-1.4,1.1-3.1,1.6c-1.3,0.4-2.7,0.6-3.2,0.6c-1.1,0-1.4-0.6-1.4-1.1c0-0.9,1-1,1.5-1.1c1-0.1,2.7-0.4,4.1-1.1
			c-1.2-0.6-1.7-0.8-2.3-0.9c-0.5,0.7-0.8,0.8-1.1,0.8c-0.5,0-1.1-0.4-1.1-1c0-0.3,0.1-0.5,0.2-0.6c0.8-1.2,1-1.5,1.3-2.2h-1.1
			c-0.7,0-1.7,0-1.7-1s1-1,1.7-1h2c0.1-0.3,0.5-1.2,0.7-1.8h-2.7c-0.7,0-1.7,0-1.7-1s0.9-1,1.7-1h1.2c-0.5-1.8-0.7-2.5-0.9-3.2
			c-0.7,0-1.1,0-1.3-0.1c-0.3-0.1-0.5-0.4-0.5-0.8c0-0.2,0.1-0.4,0.3-0.7c0.3-0.3,0.7-0.3,1.5-0.3h3.3v-0.4c0-0.4,0-1.4,1-1.4
			s1,0.9,1,1.4v0.4h3.5c0.6,0,1.7,0,1.7,1s-0.9,1-1.8,1c-0.1,0.8-0.4,2.1-0.8,3.2h1.3c0.7,0,1.7,0,1.7,1s-0.9,1-1.7,1h-4.7
			c-0.1,0.4-0.3,0.8-0.6,1.8h5.3V27.2z M447,20.3c0.4,1.3,0.7,2.7,0.8,3.2h2.8c0.4-1.2,0.6-2,0.9-3.2H447z M447.9,29.2
			c-0.1,0.2-0.2,0.3-0.6,1.3c1,0.4,2.1,0.8,3.1,1.3c0.2-0.2,1-1.1,1.5-2.5L447.9,29.2L447.9,29.2z"/>
		<path class="st1" d="M466.5,20.4c0.8,0,1.7,0,1.7,1s-0.9,1-1.7,1h-0.6v3.7c0.3-0.1,1.3-0.5,1.5-0.5c0.5,0,0.9,0.4,0.9,0.9
			c0,0.6-0.3,1-2.5,1.7V34c0,1.6-0.8,2.2-2.6,2.2c-1,0-2.1-0.1-2.1-1.2c0-0.5,0.4-1,1-1c0.1,0,0.7,0.1,0.8,0.1
			c0.9,0,0.9-0.2,0.9-0.6v-4.7c-0.4,0.1-1.8,0.4-2,0.4c-0.5,0-1-0.4-1-1.1c0-0.5,0.3-0.9,0.9-1c0.9-0.1,1.3-0.3,2.2-0.5v-4.2h-1.1
			c-0.8,0-1.7,0-1.7-1s0.9-1,1.7-1h1.1v-2c0-0.8,0-1.7,1-1.7s1,0.9,1,1.7v2C465.9,20.4,466.5,20.4,466.5,20.4z M477.6,26.4
			c1.4,0,2,0.8,2,1.8v5.7c0,1.1-0.7,1.8-2,1.8h-6.9c-1.4,0-2-0.8-2-1.8v-5.7c0-1.1,0.7-1.8,2-1.8H477.6z M471,22.4
			c0,0.4,0.1,0.9,1.1,0.9h4.6c0.7,0,1.3-0.3,1.4-1s0.2-1.3,1-1.3c0.3,0,1.1,0.1,1.1,1.1c0,1.6-0.9,3.2-3.2,3.2h-4.4
			c-2.1,0-3.6-0.5-3.6-2.2v-4.7c0-0.8,0-1.7,1-1.7s1,0.9,1,1.7V19c2.2-0.2,3.1-0.3,5.2-0.9c0.3-0.1,1.8-0.6,2.2-0.6
			c0.6,0,1,0.6,1,1.1c0,0.7-0.6,0.9-1.2,1.1c-1.4,0.5-4.5,1.2-7.2,1.5V22.4z M477.6,30v-1.1c0-0.4-0.3-0.6-0.7-0.6h-5.4
			c-0.4,0-0.7,0.2-0.7,0.6V30H477.6z M470.7,31.9v1.4c0,0.4,0.3,0.6,0.7,0.6h5.4c0.4,0,0.7-0.1,0.7-0.6v-1.4H470.7z"/>
		<path class="st1" d="M492.8,29.9c-0.8,0-2.7,0-3.8-1.6c-0.7,0.5-2.1,1.3-2.6,1.3s-1-0.4-1-1c0-0.5,0.3-0.7,0.8-0.9
			c1.2-0.6,1.9-1,2.3-1.2v-2c0-0.5-0.1-0.5-0.7-0.5h-0.6c-0.7,0-1.7,0-1.7-0.9s1-0.9,1.7-0.9h1.8c0.4,0,1.6,0,1.6,1.4v2.7
			c0,0.7,0,2.1,2.6,2.1h10.1c1.1,0,1.6,0,1.6,0.8s-0.6,0.8-1.6,0.8h-1.6v0.7h1.6c1,0,1.6,0,1.6,0.8s-0.6,0.8-1.6,0.8h-1.6v1.4
			c0,1.8-0.2,2.6-2.7,2.6c-3.6,0-4.2-0.5-4.2-1.3c0-0.2,0.1-0.8,0.9-0.8c0.2,0,1.2,0.1,1.6,0.2c0.7,0.1,1.3,0.1,1.4,0.1
			c0.9,0,0.9-0.1,0.9-1.1v-1h-8.7c0.7,0.6,2.3,1.9,2.3,2.5c0,0.3-0.2,1.1-1.1,1.1c-0.3,0-0.4-0.1-1.1-0.7c-1-1-1-1-1.6-1.4
			c-0.1-0.1-0.4-0.4-0.4-0.8c0-0.3,0.1-0.5,0.3-0.7h-1.8c-1,0-1.6,0-1.6-0.8s0.6-0.8,1.6-0.8h12.1v-0.7h-6.8V29.9z M489.3,20.7
			c-0.4,0-0.5-0.1-1.3-0.9c-0.2-0.2-1.3-1.1-1.6-1.3c-0.1-0.1-0.2-0.3-0.2-0.6c0-0.8,0.7-0.9,1-0.9c0.4,0,1.3,0.7,1.7,1.1
			c1.3,1.1,1.4,1.3,1.4,1.7C490.3,20.1,490,20.7,489.3,20.7z M496.6,19.7h-4.7c-0.4,0-1.1,0-1.1-0.8s0.7-0.8,1.1-0.8h2.3
			c-0.3-0.5-0.3-0.6-0.3-0.8c0-0.5,0.6-0.8,1.1-0.8c0.7,0,0.9,0.4,1.6,1.6h2.6c0.4-1,0.6-1.6,1.4-1.6c0.5,0,1.1,0.3,1.1,0.9
			c0,0.2-0.1,0.4-0.2,0.7h2.3c0.4,0,1.1,0,1.1,0.8s-0.7,0.8-1.1,0.8h-5l-0.2,0.7h3.4c1.8,0,1.8,1.5,1.8,1.8v3.5c0,0.4,0,1.8-1.8,1.8
			h-8c-1.8,0-1.8-1.5-1.8-1.8v-3.5c0-0.4,0-1.8,1.8-1.8h2.4L496.6,19.7z M501.8,22.5c0-0.2-0.1-0.4-0.2-0.5s-0.3-0.1-0.5-0.1h-6.3
			c-0.3,0-0.7,0.2-0.7,0.6H501.8z M494.2,23.7v0.7h7.7v-0.7H494.2z M494.2,25.6c0,0.4,0.2,0.7,0.7,0.7h6.3c0.4,0,0.7-0.3,0.7-0.7
			H494.2z"/>
		<path class="st1" d="M516.1,24.6c-0.1,1.3-0.1,2.7-0.1,4c0,2,0,4.6,3.5,4.6c3,0,5-2.5,5.7-3.8c0.7-1.2,0.9-1.6,1.6-1.6
			c0.2,0,1.1,0.1,1.1,1.1c0,1.1-1.5,3-2.2,3.7c-0.8,0.8-2.9,2.8-6.3,2.8c-5.7,0-5.7-4.6-5.7-6.3c0-0.9,0.1-3,0.1-3.6v-0.4l0.2-5.8
			c0-0.6,0.1-1.7,1.2-1.7c0.8,0,1.3,0.4,1.3,1.3c0,0.1,0,0.1,0,0.5L516.1,24.6z"/>
		<path class="st1" d="M544,19c0-0.8,0-1.7,1.2-1.7c1.1,0,1.2,0.9,1.2,1.7v0.7h3c0.7,0,1.7,0,1.7,1.2c0,1.1-0.8,1.1-1.7,1.1h-3.1
			v1.8h3.6c0.8,0,1.7,0,1.7,1.2s-0.8,1.2-1.7,1.2l-3.6,0.1v3.1c1.4,0.5,3.5,1.5,4.5,2.3c0.7,0.5,0.9,0.8,0.9,1.2
			c0,0.7-0.5,1.2-1.1,1.2c-0.3,0-0.4-0.1-1.9-1.1c-1.2-0.8-1.7-1-2.3-1.2c0,3.4-2.8,3.8-4.6,3.8c-3.2,0-4.8-1.7-4.8-3.8
			c0-2.5,2.1-3.5,4.5-3.5c1.4,0,2.1,0.2,2.5,0.3v-2.3l-5.5,0.1c-0.9,0-1.7,0-1.7-1.2s0.9-1.2,1.7-1.2l5.6-0.1v-1.8l-4.9,0.1
			c-0.9,0-1.7,0-1.7-1.2c0-1.1,0.8-1.1,1.7-1.1h4.9V19H544z M541.6,30.5c-0.6,0-2.3,0.2-2.3,1.2c0,0.3,0.1,1.4,2.4,1.4
			c2.3,0,2.2-1.3,2.1-2.1C543.4,30.8,542.8,30.5,541.6,30.5z"/>
		<path class="st1" d="M571,18.8c0-0.8,0-1.7,1.2-1.7c1.3,0,1.2,1,1.2,1.7v0.9h3c0.8,0,1.7,0,1.7,1.1s-0.7,1.2-1.7,1.2h-3l-0.1,3.9
			c0.2,0.6,0.5,1.5,0.5,2.8c0,4.7-4.9,7.1-6.4,7.1c-1.1,0-1.2-1-1.2-1.2c0-0.8,0.4-0.9,1.6-1.4c2.1-0.8,3.3-1.9,3.5-3.5
			c-0.4,0.5-1.2,1.3-3,1.3c-2.6,0-3.9-2.3-3.9-3.9c0-1.9,1.4-4.1,4.2-4.1c1.4,0,2,0.5,2.5,1l-0.1-1.8l-9.5,0.2c-0.6,0-1.7,0-1.7-1.2
			c0-1.1,1-1.2,1.7-1.2l9.5-0.1V18.8z M566.9,27c0,0.9,0.6,1.7,1.7,1.7c1.3,0,1.9-1.1,1.9-1.8c0-0.5-0.4-1.6-1.9-1.6
			C567.6,25.3,566.9,26.1,566.9,27z"/>
		<path class="st1" d="M590.7,32.7c0,1.7-1.4,3.1-3.1,3.1c-1.7,0-3.1-1.4-3.1-3.1c0-1.7,1.4-3.1,3.1-3.1
			C589.3,29.6,590.7,31,590.7,32.7z M586.1,32.7c0,0.8,0.7,1.5,1.5,1.5s1.5-0.7,1.5-1.5s-0.7-1.5-1.5-1.5S586.1,31.9,586.1,32.7z"/>
	</g>
</g>
<g>
	<path class="st2" d="M51.8,25.8c0,14.3-11.6,25.9-25.9,25.9C11.6,51.7,0,40.1,0,25.8S11.6,0,25.9,0S51.8,11.5,51.8,25.8z"/>
	<g>
		<path class="st3" d="M21,6.2c0.2,0.2,0.4,0.4,0.6,0.7c0.2,0.2,0.1,0.3-0.1,0.4c0,0-0.1,0.1-0.2,0.1c-0.5,0.4-1.7,1.3-3.2,2.3
			c-0.3,0.2-0.7,0.5-1.1,0.7c0.4-0.1,0.9-0.2,1.3-0.3c1.8-0.3,3.7-0.5,4.8-0.7c0.4,0,0.3-0.1,0.4,0.2c0,0.1,0.1,0.3,0.1,0.5
			c0,0.3,0,0.3-0.3,0.3c-3.5,0-5.1,1.6-5.1,2.9s1.8,1.8,3.9,1.6c-0.1,0.4-0.2,0.7-0.2,1c-2.6,0.1-4.5-0.9-4.5-2.5
			c0-1.1,1.1-2.2,2.4-2.9c-2.2,0.4-3.4,0.7-4.5,1.2c-0.3,0.1-0.3,0.2-0.4,0c-0.1-0.2-0.3-0.4-0.4-0.7c-0.1-0.3,0-0.2,0.2-0.3
			c0.4-0.1,0.9-0.2,1.3-0.3c0.7-0.4,2.2-1.5,3.4-2.4c0.4-0.3,0.8-0.7,1.1-1c-0.4,0.1-1,0.2-1.4,0.3c-0.8,0.1-1.5,0.2-2.1,0.3
			c-0.3,0-0.3,0.1-0.3-0.1c-0.1-0.2-0.1-0.5-0.2-0.7s0-0.2,0.2-0.2c1.2,0,3.1-0.1,4-0.3C20.7,6.2,20.8,6,21,6.2z"/>
		<path class="st3" d="M36.2,10.9c0,1.9-0.9,3.9-4,4.6c-0.2-0.3-0.6-0.5-0.8-0.8c1.6-0.2,3.8-1.3,3.8-3.7s-1.8-3.3-3.4-3.4
			c-0.3,2.3-1.1,5.5-2.1,6.7c-0.9,1.1-2.1,0.5-2.6-0.2c-0.4-0.6-0.8-1.4-0.7-2.8c0.1-1.5,1.7-4.3,5-4.5C34.7,6.7,36.2,9.2,36.2,10.9
			z M27.3,11.3c-0.2,1.2,0.2,2,0.5,2.3c0.4,0.5,1,0.5,1.3-0.1c0.8-1.4,1.4-4.1,1.6-5.7C29,8.1,27.7,9.5,27.3,11.3z"/>
	</g>
	<g>
		<path class="st3" d="M15.7,44c0.1-1.7,0.6-3,1-3.7c1.3-2.4,3-4.1,5.5-5.9c1.4-1,3.3-2.1,4.7-3.1c1.4-1,2.5-2,2.5-3.6
			c0-0.1,0-0.1,0-0.2c-0.1-1.8-1.5-2.7-3.8-2.7c-0.1,0-0.1,0-0.1,0c-2.6,0-4.4,1.8-4.4,4.9c0,0.1,0,0.1,0,0.2h-4.9
			c0-0.1,0-0.2,0-0.3c0-5.6,4-9,9.3-9c6,0,8.9,3.1,8.9,7.1c0,2.9-1.8,5.3-4.4,7c-1.5,0.9-3.6,2-4.9,2.9c-1.2,0.8-2.4,1.7-3,2.4
			c0.6-0.1,5.5-0.3,6.5-0.3h5.8V44L15.7,44z"/>
	</g>
	<polyline class="st2" points="39.6,40.7 54.9,45.4 47.2,32.7 	"/>
</g>
</svg>
