<?xml version="1.0" encoding="utf-8"?>
<!-- Generator: Adobe Illustrator 22.1.0, SVG Export Plug-In . SVG Version: 6.00 Build 0)  -->
<svg version="1.1" id="レイヤー_1" xmlns="http://www.w3.org/2000/svg" xmlns:xlink="http://www.w3.org/1999/xlink" x="0px"
	 y="0px" viewBox="0 0 759 51.8" style="enable-background:new 0 0 759 51.8;" xml:space="preserve">
<style type="text/css">
	.st0{fill:#FFDD00;}
	.st1{fill:#004EA1;}
	.st2{fill:#F98A00;}
	.st3{fill:#FFFFFF;}
</style>
<path class="st0" d="M741.6,43.4H26.3c-9.6,0-17.4-7.8-17.4-17.5l0,0c0-9.6,7.8-17.5,17.4-17.5h715.2c9.6,0,17.4,7.8,17.4,17.5l0,0
	C759,35.6,751.2,43.4,741.6,43.4z"/>
<g>
	<g>
		<path class="st1" d="M73.4,18.8c0-0.8,0-1.9,1.2-1.9s1.2,1,1.2,1.9v1.4c0.7,0,1.9,0,2.7,0c0.6,0,1.7,0,1.7,1.1
			c0,1.2-1.1,1.3-1.7,1.3s-0.8,0-2.6,0v1.7c0.4,0,0.9-0.1,1.5-0.1c3.8,0,5.4,1,6.3,1.9c0.8,0.8,1.5,1.9,1.5,3.6
			c0,1.3-0.7,5.3-6.7,5.3c-0.5,0-1.7,0-1.7-1.2c0-1.3,1.1-1.3,2.3-1.3c1.2,0,3.8-0.4,3.8-2.8c0-2.7-3-3.3-5.6-3.3
			c-0.3,0-0.7,0-1.3,0.1v5.1c0,1.1-0.1,3.4-3,3.4c-2.4,0-5.1-1.6-5.1-4.6c0-1.3,0.5-4.4,5.7-5.9v-2.1c-0.6,0-3,0.1-3.5,0.1
			s-1.6,0-1.6-1.2c0-1.3,1.2-1.3,1.9-1.3h3.2v-1.2H73.4z M73.4,27c-1.6,0.5-3.3,1.8-3.3,3.5c0,1.6,1.7,2.1,2.4,2.1s0.9-0.4,0.9-1.7
			V27z M85.8,22.9c0,0.9-0.7,1.2-1.1,1.2c-0.6,0-0.7-0.2-1.9-2.1c-0.3-0.6-0.9-1.4-1.7-2.4c-0.4-0.5-0.6-0.8-0.6-1.2
			c0-0.6,0.5-1.1,1-1.1s0.8,0,2.2,1.8c0.7,1,2,2.7,2.1,3.3C85.7,22.7,85.8,22.8,85.8,22.9z"/>
		<path class="st1" d="M106.4,25.4c0.8,0,1.7,0,1.7,1s-0.9,1-1.7,1h-5.3c0.7,2.2,0.7,3.6,0.7,3.9c0,1.2-0.5,4.5-5.1,4.5
			c-1.4,0-3.6-0.4-4.2-1c-0.1-0.1-0.2-0.3-0.2-0.7c0-0.9,0.6-1.1,1-1.1c0.2,0,0.3,0,1.3,0.4c0.3,0.1,1.1,0.4,2.1,0.4
			c2.3,0,3.1-1.4,3.1-2.5c0-1-0.3-2.3-0.8-3.8h-8.4c-0.8,0-1.7,0-1.7-1s0.9-1,1.7-1H98c-0.2-0.3-0.4-0.7-0.6-1
			c-1.1-1.5-1.2-1.6-1.2-2c0-0.8,0.6-1.2,1-1.2s0.8,0,1.7,1.3c2.4-0.8,4.8-2.3,4.8-3.1c0-0.3-0.2-0.3-0.5-0.3H92.3
			c-0.8,0-1.7,0-1.7-1s0.9-1,1.7-1h12.5c1,0,1.5,0.7,1.5,1.6c0,1.7-1.5,3-2.9,3.9c-1.1,0.7-1.6,0.9-3.6,1.7c0.3,0.5,0.4,0.8,0.5,1.1
			h6.1V25.4z"/>
		<path class="st1" d="M115.6,34.1c0,0.7,0,1.7-1,1.7s-1-1-1-1.7v-6c-0.3,0.9-0.7,1.6-1.2,2.3c-0.1,0.1-0.4,0.5-0.9,0.5s-1-0.4-1-1
			c0-0.3,0.1-0.4,0.8-1.7c0.6-1.1,1.7-3.7,2.1-6h-0.9c-0.8,0-1.7,0-1.7-1s0.9-1,1.7-1h1.1v-2c0-0.7,0-1.7,1-1.7s1,1,1,1.7v2h0.6
			c0.8,0,1.7,0,1.7,1s-0.9,1-1.7,1h-0.6v0.4c0.4,1.1,0.8,2.4,2.2,4.2c0.4,0.5,0.4,0.6,0.4,0.9c0,0.7-0.6,1.1-1.1,1.1
			c-0.6,0-0.9-0.5-1.5-1.6V34.1z M119.7,31.2c0.7-0.2,0.7-0.3,1.6-0.7c0.1,0,0.3-0.1,0.4-0.1c0.4,0,0.9,0.3,0.9,0.9
			c0,0.5-0.3,0.8-0.7,1c-0.6,0.3-3,1.3-3.7,1.3c-0.5,0-1.1-0.4-1-1.1C117.4,32,117.6,31.9,119.7,31.2z M123,20.6h-3.1
			c-0.7,0-1.7,0-1.7-0.9s1-0.9,1.7-0.9h0.9c-0.5-1-0.6-1.1-0.6-1.4c0-0.4,0.3-1,1-1s1,0.5,1.8,2.4h2.1c0.2-0.4,0.7-1.4,0.9-1.9
			c0.1-0.3,0.4-0.7,1-0.7s1.1,0.4,1.1,1c0,0.4-0.2,0.8-0.6,1.6h0.8c0.7,0,1.7,0,1.7,0.9s-1,0.9-1.7,0.9h-3.4v1.1h2.8
			c0.7,0,1.7,0,1.7,1s-0.9,1-1.7,1h-2.8v1.1h3.5c0.8,0,1.7,0,1.7,0.9s-0.9,0.9-1.7,0.9h-3.5v0.6c0.2,0.6,0.5,1.3,0.9,2
			c0.6-0.4,1.2-0.8,1.8-1.3c0.5-0.4,0.6-0.4,0.9-0.4c0.6,0,1,0.5,1,1c0,0.4,0,0.7-2.5,2.2c0.9,1,1.7,1.6,2.6,2.2
			c0.2,0.2,0.5,0.4,0.5,0.8c0,0.6-0.5,1.1-1,1.1c-0.6,0-2.8-1.6-4.2-3.8v2.8c0,0.7,0,2.1-2.1,2.1c-0.7,0-1.5-0.1-2.2-0.3
			c-0.2,0-0.9-0.2-0.9-1c0-0.5,0.4-1,1-1c0.3,0,1.5,0.3,1.8,0.3c0.6,0,0.6-0.2,0.6-0.8v-6.6h-3.4c-0.8,0-1.7,0-1.7-0.9
			s0.9-0.9,1.7-0.9h3.4v-1.1h-2.8c-0.7,0-1.7,0-1.7-1s0.9-1,1.7-1h2.8v-1H123z M121.2,30.2c-0.2,0-0.3-0.1-1.3-0.7
			c-1.2-0.8-1.4-0.9-1.4-1.3c0-0.6,0.5-1,1-1c0.3,0,0.6,0.1,1.7,0.9c0.6,0.4,0.9,0.6,0.9,1C122.1,29.9,121.5,30.2,121.2,30.2z"/>
		<path class="st1" d="M138.3,34.1c0,0.5-0.4,1.1-1.1,1.1c-0.4,0-0.7-0.3-0.8-0.4c-0.6-0.6-1.3-1.7-1.8-2.3
			c-1.1-1.2-1.2-1.3-1.2-1.6c0-0.1,0-0.9,0.9-0.9C134.9,30.1,138.3,32.6,138.3,34.1z"/>
		<path class="st1" d="M157.8,23.9c0.7,0,1.1,0.5,1.1,0.9c0,0.6-1,1.5-1.6,2c0.7-0.1,1.5-0.2,1.7-0.2c0.5,0,0.9,0.2,0.9,0.7
			c0,0.7-0.4,0.8-3.4,1.1c0,0.1,0.1,0.5,0.1,0.8c0,1.4-1.1,1.7-2.3,1.7c-2,0-2.9,0-2.9-0.9c0-0.4,0.3-0.7,0.7-0.7s1.3,0.1,1.8,0.1
			c0.6,0,0.7-0.1,0.7-0.4c0-0.2-0.1-0.4-0.2-0.6c-1.6,0.1-3.7,0.1-4,0.1c-0.7,0-1.2-0.1-1.2-0.8c0-0.5,0.4-0.8,1.2-0.8
			c0.4,0,2.5,0,3,0c-0.2-0.2-0.3-0.4-0.3-0.7s0.3-0.8,0.8-0.8c0.3,0,0.6,0.2,1.3,0.9c0.3-0.4,0.7-0.8,0.7-1c0-0.1-0.2-0.2-0.3-0.2
			h-4.3c-1,0-1.6,0-1.6-0.7s0.6-0.7,1.6-0.7h6.5V23.9z M154.1,17.7v-0.4c0-0.5,0.4-1,1-1s1,0.4,1,1v0.4h2c1.1,0,1.7,0,1.7,0.7
			s-0.6,0.7-1.7,0.7h-6.8c-1.1,0-1.7,0-1.7-0.7s0.6-0.7,1.7-0.7H154.1z M166.3,31.5c1.1,0,1.7,0,1.7,0.8s-0.6,0.8-1.7,0.8h-6V34h6.7
			c1.1,0,1.7,0,1.7,0.8s-0.5,0.8-1.7,0.8h-15.7c-1.1,0-1.7,0-1.7-0.8s0.5-0.8,1.7-0.8h6.8v-1h-5.9c-1.1,0-1.7,0-1.7-0.8
			s0.6-0.8,1.7-0.8h5.9c0-1,0-1.9,1.1-1.9s1.1,0.8,1.1,1.9L166.3,31.5L166.3,31.5z M150.5,20.8c0-0.4,0.4-0.9,1.2-0.9h6.3
			c0.9,0,1.2,0.7,1.2,1.1v1.1c0,0.8-0.4,1.1-1.1,1.1h-6.3c-0.8,0-1.3-0.3-1.3-1L150.5,20.8L150.5,20.8z M157.3,21.4
			c0-0.2-0.2-0.3-0.4-0.3h-4.1c-0.3,0-0.4,0.1-0.4,0.3v0.4c0,0.2,0.1,0.3,0.4,0.3h4.1c0.3,0,0.4-0.1,0.4-0.3V21.4z M161.4,20.8
			c-0.7,0-1.7,0-1.7-1s1-1,1.7-1h0.8v-0.7c0-0.7,0-1.7,0.9-1.7s0.9,1,0.9,1.7v0.7h2c1,0,1.3,0.7,1.3,1.6c0,3.4,0,7.1,0.6,7.1
			c0.1,0,0.1-0.4,0.2-0.6c0-0.2,0.3-0.4,0.6-0.4c0.7,0,0.7,0.6,0.7,1S169,31,167.8,31c-2.1,0-2.2-7.5-2.3-9.5c0-0.5-0.1-0.7-0.5-0.7
			h-1c0,1.3,0,2.4-0.2,3.7c1.6,1.5,1.8,1.7,1.8,2.2c0,0.6-0.5,1-1,1c-0.4,0-0.6-0.2-1.4-1.1c-0.5,1.3-1.5,3.3-2.5,3.3
			c-0.4,0-1-0.3-1-1c0-0.1,0.1-0.4,0.3-0.6c0.6-0.9,1.4-2.3,1.7-3.2c-0.3-0.2-1.5-1.2-1.5-1.3c-0.2-0.2-0.2-0.4-0.2-0.7
			c0-0.5,0.4-0.9,1-0.9c0.3,0,0.7,0.3,1.2,0.6c0-0.5,0.1-2,0.1-2.2h-0.9V20.8z"/>
		<path class="st1" d="M176.9,34.1c0,0.5-0.4,1.1-1.1,1.1c-0.4,0-0.7-0.3-0.8-0.4c-0.6-0.6-1.3-1.7-1.8-2.3
			c-1.1-1.2-1.2-1.3-1.2-1.6c0-0.1,0-0.9,0.9-0.9C173.5,30.1,176.9,32.6,176.9,34.1z"/>
		<path class="st1" d="M192.9,34.2c0,0.8,0,1.7-1,1.7c-1.1,0-1.1-0.9-1.1-1.7v-8.8c-0.4,0.8-0.7,1.3-1.3,1.3s-1.1-0.5-1.1-1
			c0-0.3,0.1-0.4,0.6-1.4c0.3-0.4,1.6-2.6,2.7-6.7c0.1-0.5,0.3-1.1,1-1.1c0.6,0,1,0.5,1,1c0,0.4-0.4,1.7-0.9,3.3v13.4H192.9z
			 M201.8,34.2c0,1,0,1.7-1.1,1.7s-1.1-0.7-1.1-1.7v-4.3c-1.7,3-4.3,4.9-5,4.9c-0.6,0-1-0.5-1-1.1c0-0.5,0.3-0.7,1-1.2
			c1.7-1.2,2.8-2.8,3.4-3.9h-2.4c-0.8,0-1.7,0-1.7-1s0.9-1,1.7-1h4v-1.7h-3.1c-1.7,0-1.7-1.2-1.7-1.9v-4.1c0-0.7,0-1.9,1.7-1.9h8.5
			c1.7,0,1.7,1.2,1.7,1.9V23c0,0.7,0,1.9-1.7,1.9h-3.3v1.7h4.4c0.8,0,1.7,0,1.7,1s-0.9,1-1.7,1h-2.6c1.2,2,2.3,2.8,3.7,3.9
			c0.4,0.3,0.8,0.7,0.8,1.1c0,0.5-0.5,1.1-1.1,1.1s-3.4-1.9-5.3-5.3v4.8H201.8z M197.5,19c-0.6,0-0.6,0.4-0.6,0.7v2.6
			c0,0.3,0,0.7,0.6,0.7h6.6c0.6,0,0.6-0.4,0.6-0.7v-2.6c0-0.3,0-0.7-0.6-0.7C204.1,19,197.5,19,197.5,19z"/>
		<path class="st1" d="M215.9,19.9c0.9,0,1.7,0,1.7,0.9c0,0.9-0.8,0.9-1.7,0.9h-3.7c-0.8,0-1.6,0-1.6-0.9c0-0.9,0.8-0.9,1.6-0.9
			H215.9z M223.6,21.2c0.3-1.1,0.4-1.5,1.2-1.5c0.6,0,0.9,0.5,0.9,0.9c0,0.2,0,0.5-0.1,0.6h2.7c1,0,1.7,0,1.7,0.7
			c0,0.8-0.7,0.8-1.7,0.8h-2.7v0.7h2.4c1.1,0,1.6,0,1.6,0.7s-0.6,0.7-1.6,0.7h-2.4v0.7h2.4c1,0,1.6,0,1.6,0.7s-0.7,0.7-1.6,0.7h-2.4
			v0.7h2.7c0.8,0,1.6,0,1.6,0.8s-0.8,0.8-1.6,0.8h-8c-0.7,0-1.8,0-1.8-1.7v-2.6c-0.1,0.1-0.3,0.3-0.7,0.3s-0.9-0.3-0.9-0.9
			c-0.3,0.3-0.5,0.3-1.4,0.3h-2.8c-0.7,0-1.7,0-1.7-0.9s0.9-0.9,1.7-0.9h2.8c0.8,0,1.6,0,1.7,0.9c1.4-1.9,1.5-2.1,2.2-3.3
			c0.2-0.4,0.4-0.7,0.9-0.7c0.3,0,0.6,0.1,0.7,0.3c0-0.2-0.1-0.3-0.1-0.6v-0.1H219c-0.6,0-1.4,0-1.4-0.8s0.8-0.8,1.4-0.8h1.9
			c0-0.3,0.1-1.1,0.9-1.1c0.6,0,0.8,0.5,0.9,1.1h3.1c0-0.2,0.1-1.2,1-1.2s1,1,1,1.2h0.7c0.6,0,1.4,0,1.4,0.8s-0.8,0.8-1.4,0.8h-0.7
			c0,0.4,0,1.4-1,1.4s-1-1-1-1.4h-3.1c0,0.5,0,1.4-0.9,1.4c-0.3,0-0.5-0.1-0.7-0.3c0.1,0.3,0,0.5-0.2,0.9h2.7V21.2z M212.7,18.9
			c-0.7,0-1.7,0-1.7-0.9s1-0.9,1.7-0.9h2.8c0.7,0,1.7,0,1.7,0.9s-1,0.9-1.7,0.9H212.7z M215.4,25.5c0.7,0,1.7,0,1.7,0.9
			s-1,0.9-1.7,0.9h-2.6c-0.7,0-1.7,0-1.7-0.9s1-0.9,1.7-0.9H215.4z M215.6,28.4c1.3,0,1.5,0.8,1.5,1.7v3.7c0,1-0.2,1.7-1.5,1.7h-2.8
			c-1.3,0-1.5-0.8-1.5-1.7v-3.7c0-1,0.2-1.7,1.5-1.7H215.6z M213.7,30.2c-0.4,0-0.5,0.1-0.5,0.6V33c0,0.5,0.1,0.6,0.5,0.6h0.9
			c0.4,0,0.5-0.1,0.5-0.6v-2.2c0-0.5-0.1-0.6-0.5-0.6H213.7z M228,30.1c0.3,0,1.4,0,1.4,1c0,0.9-1.4,2-2.6,2.6
			c0.9,0.2,1.4,0.2,2.4,0.3c0.3,0,1,0,1,0.9s-0.9,1-1.4,1c-1.1,0-2.9-0.3-4.6-1c-1.8,0.6-4.1,1-5.4,1c-0.8,0-1.1-0.5-1.1-0.9
			c0-0.8,0.7-0.9,1-0.9c1.9-0.2,2.1-0.2,3.2-0.4c-1.1-0.7-1.8-1.5-2.3-2H219c-0.5,0-1.3,0-1.3-0.8s0.7-0.8,1.3-0.8
			C219,30.1,228,30.1,228,30.1z M221,22.7c-0.5,0-0.5,0.1-0.5,0.7h3v-0.7H221z M220.5,25.5h3v-0.7h-3V25.5z M223.5,27.7V27h-3
			c0,0.5,0,0.7,0.6,0.7H223.5z M222.4,31.7c0.4,0.3,0.9,0.8,1.8,1.3c0.4-0.2,2.1-0.9,2.1-1.1c0-0.1-0.1-0.1-0.2-0.1h-3.7V31.7z"/>
		<path class="st1" d="M236.5,28.8c-0.8,0.3-2.1,0.9-2.7,0.9c-0.7,0-1-0.6-1-1.1c0-0.8,0.3-0.9,2.2-1.5c1.4-0.4,4-1.4,6.3-2.6h-6.4
			c-0.8,0-1.7,0-1.7-1s0.9-1,1.7-1h5.5v-1.9h-4.3c-0.9,0-1.7,0-1.7-1s0.8-1,1.7-1h4.3c0-1.4,0-2,1.1-2c1,0,1,0.7,1,2h2.8
			c0.9,0,1.7,0,1.7,1s-0.8,1-1.7,1h-2.9v1.9h2.1c2.4-1.8,2.6-2,4.7-4.1c0.3-0.3,0.6-0.6,1.1-0.6c0.7,0,1.1,0.6,1.1,1.1
			c0,0.8-2.2,2.7-3.4,3.6h2.4c0.8,0,1.7,0,1.7,1s-0.9,1-1.7,1h-5.1c-1,0.7-1.7,1.1-2.6,1.6h5.7c1.1,0,2,0.3,2,2v5.6c0,1.8-0.9,2-2,2
			h-9.9c-1.1,0-2-0.3-2-2L236.5,28.8L236.5,28.8z M248.2,29.9v-1c0-0.7-0.2-0.8-1-0.8h-7.6c-0.7,0-1,0.1-1,0.8v1H248.2z M238.6,31.8
			v1.1c0,0.7,0.3,0.8,1,0.8h7.6c0.7,0,1-0.1,1-0.8v-1.1H238.6z"/>
		<path class="st1" d="M259.6,34.1c0,0.7,0,1.7-1,1.7s-1-1-1-1.7v-6c-0.3,0.9-0.7,1.6-1.2,2.3c-0.1,0.1-0.4,0.5-0.9,0.5s-1-0.4-1-1
			c0-0.3,0.1-0.4,0.8-1.7c0.6-1.1,1.7-3.7,2.1-6h-0.9c-0.8,0-1.7,0-1.7-1s0.9-1,1.7-1h1.1v-2c0-0.7,0-1.7,1-1.7s1,1,1,1.7v2h0.6
			c0.8,0,1.7,0,1.7,1s-0.9,1-1.7,1h-0.6v0.4c0.4,1.1,0.8,2.4,2.2,4.2c0.4,0.5,0.4,0.6,0.4,0.9c0,0.7-0.6,1.1-1.1,1.1
			c-0.6,0-0.9-0.5-1.5-1.6V34.1z M263.7,31.2c0.7-0.2,0.7-0.3,1.6-0.7c0.1,0,0.3-0.1,0.4-0.1c0.4,0,0.9,0.3,0.9,0.9
			c0,0.5-0.3,0.8-0.7,1c-0.6,0.3-3,1.3-3.7,1.3c-0.5,0-1.1-0.4-1-1.1C261.4,32,261.6,31.9,263.7,31.2z M267,20.6h-3.1
			c-0.7,0-1.7,0-1.7-0.9s1-0.9,1.7-0.9h0.9c-0.5-1-0.6-1.1-0.6-1.4c0-0.4,0.3-1,1-1s1,0.5,1.8,2.4h2.1c0.2-0.4,0.7-1.4,0.9-1.9
			c0.1-0.3,0.4-0.7,1-0.7s1.1,0.4,1.1,1c0,0.4-0.2,0.8-0.6,1.6h0.8c0.7,0,1.7,0,1.7,0.9s-1,0.9-1.7,0.9h-3.4v1.1h2.8
			c0.7,0,1.7,0,1.7,1s-0.9,1-1.7,1h-2.8v1.1h3.5c0.8,0,1.7,0,1.7,0.9s-0.9,0.9-1.7,0.9h-3.5v0.6c0.2,0.6,0.5,1.3,0.9,2
			c0.6-0.4,1.2-0.8,1.8-1.3c0.5-0.4,0.6-0.4,0.9-0.4c0.6,0,1,0.5,1,1c0,0.4,0,0.7-2.5,2.2c0.9,1,1.7,1.6,2.6,2.2
			c0.2,0.2,0.5,0.4,0.5,0.8c0,0.6-0.5,1.1-1,1.1c-0.6,0-2.8-1.6-4.2-3.8v2.8c0,0.7,0,2.1-2.1,2.1c-0.7,0-1.5-0.1-2.2-0.3
			c-0.2,0-0.9-0.2-0.9-1c0-0.5,0.4-1,1-1c0.3,0,1.5,0.3,1.8,0.3c0.6,0,0.6-0.2,0.6-0.8v-6.6h-3.4c-0.8,0-1.7,0-1.7-0.9
			s0.9-0.9,1.7-0.9h3.4v-1.1h-2.8c-0.7,0-1.7,0-1.7-1s0.9-1,1.7-1h2.8L267,20.6L267,20.6z M265.2,30.2c-0.2,0-0.3-0.1-1.3-0.7
			c-1.2-0.8-1.4-0.9-1.4-1.3c0-0.6,0.5-1,1-1c0.3,0,0.6,0.1,1.7,0.9c0.6,0.4,0.9,0.6,0.9,1C266.1,29.9,265.5,30.2,265.2,30.2z"/>
		<path class="st1" d="M282.4,33.4c-2.7,0-4.5-2.7-4.5-6c0-5.3,4.2-9.1,9.5-9.1c5,0,8.2,3.6,8.2,8.3c0,5.6-4.7,8-7.9,8
			c-1.3,0-1.3-1.1-1.3-1.3c0-1.2,0.9-1.2,1.4-1.3c4.3-0.2,5.5-3.4,5.5-5.7c0-2.8-1.8-5.6-5.3-5.7C287.6,27.7,285.8,33.4,282.4,33.4z
			 M280.2,27.4c0,2,0.9,3.5,2.1,3.5c1.1,0,1.8-2,2-2.6c0.9-2.7,1.1-5.6,1.2-7.3C281.8,21.5,280.2,24.7,280.2,27.4z"/>
		<path class="st1" d="M300.3,35c-1.2,0-1.2-1.1-1.2-1.2c0-0.7,0.4-1.2,1.2-1.2h16.9c1.2,0,1.2,1.1,1.2,1.2c0,0.7-0.4,1.1-1.2,1.1
			h-16.9V35z M301.4,20c-1.2,0-1.2-1-1.2-1.1c0-0.6,0.5-1.1,1.2-1.1h14.7c1.2,0,1.2,1,1.2,1.1c0,0.6-0.5,1.1-1.2,1.1H301.4z
			 M302.3,27c-1.2,0-1.2-1-1.2-1.1c0-0.6,0.5-1.1,1.2-1.1h12.9c1.2,0,1.2,1,1.2,1.1c0,0.6-0.5,1.1-1.2,1.1H302.3z"/>
		<path class="st1" d="M324.8,28.8c-0.8,0.3-2.1,0.9-2.7,0.9c-0.7,0-1-0.6-1-1.1c0-0.8,0.3-0.9,2.2-1.5c1.4-0.4,4-1.4,6.3-2.6h-6.4
			c-0.8,0-1.7,0-1.7-1s0.9-1,1.7-1h5.5v-1.9h-4.3c-0.9,0-1.7,0-1.7-1s0.8-1,1.7-1h4.3c0-1.4,0-2,1.1-2c1,0,1,0.7,1,2h2.8
			c0.9,0,1.7,0,1.7,1s-0.8,1-1.7,1h-2.9v1.9h2.1c2.4-1.8,2.6-2,4.7-4.1c0.3-0.3,0.6-0.6,1.1-0.6c0.7,0,1.1,0.6,1.1,1.1
			c0,0.8-2.2,2.7-3.4,3.6h2.4c0.8,0,1.7,0,1.7,1s-0.9,1-1.7,1h-5.1c-1,0.7-1.7,1.1-2.6,1.6h5.7c1.1,0,2,0.3,2,2v5.6c0,1.8-0.9,2-2,2
			h-9.9c-1.1,0-2-0.3-2-2L324.8,28.8L324.8,28.8z M336.5,29.9v-1c0-0.7-0.2-0.8-1-0.8h-7.6c-0.7,0-1,0.1-1,0.8v1H336.5z M327,31.8
			v1.1c0,0.7,0.3,0.8,1,0.8h7.6c0.7,0,1-0.1,1-0.8v-1.1H327z"/>
		<path class="st1" d="M348.7,33.4c-2.7,0-4.5-2.7-4.5-6c0-5.3,4.2-9.1,9.5-9.1c5,0,8.2,3.6,8.2,8.3c0,5.6-4.7,8-7.9,8
			c-1.3,0-1.3-1.1-1.3-1.3c0-1.2,0.9-1.2,1.4-1.3c4.3-0.2,5.5-3.4,5.5-5.7c0-2.8-1.8-5.6-5.3-5.7C353.9,27.7,352.1,33.4,348.7,33.4z
			 M346.5,27.4c0,2,0.9,3.5,2.1,3.5c1.1,0,1.8-2,2-2.6c0.9-2.7,1.1-5.6,1.2-7.3C348.1,21.5,346.5,24.7,346.5,27.4z"/>
		<path class="st1" d="M377.3,18.2c0-1,0.5-1.8,1.6-1.8h4.6c0.4,0,0.9,0.3,0.9,0.9c0,0.5-0.3,0.9-0.9,0.9h-3.9
			c-0.4,0-0.6,0.3-0.6,0.7v16.4c0,0.5-0.3,0.9-0.9,0.9c-0.5,0-0.8-0.4-0.8-0.9L377.3,18.2L377.3,18.2z"/>
		<path class="st1" d="M389.6,21.2c3.1-1.3,5.9-2.3,8.7-2.3c4,0,7.7,2.1,7.7,6.5c0,5.3-4.4,8.5-10.8,8.5c-0.5,0-1.7,0-1.7-1.1
			c0-0.3,0.1-1.3,1.3-1.3c1.8,0,2.9,0,4.5-0.5c3-0.9,4.3-3.3,4.3-5.5c0-3.7-3.3-4.4-5.6-4.4c-2.3,0-5.4,1.1-7.5,2.3
			c-0.6,0.3-0.9,0.5-1.4,0.5c-0.8,0-1.1-0.8-1.1-1.1C388.1,21.9,388.7,21.6,389.6,21.2z"/>
		<path class="st1" d="M414.6,17.9c0.2-0.4,0.6-0.6,1-0.6c1.2,0,1.3,0.9,1.3,1.3c0,0.1,0,1-0.3,2.3c0.3,0,1.7-0.1,2-0.1
			c1,0,1.3,0.6,1.3,1.2c0,0.9-0.7,1.1-0.9,1.1c-0.4,0.1-1.3,0.1-2.9,0.2c-1,3.7-2.4,5.9-2.9,6.7c-0.5,0.7-1,1.4-1.8,1.4
			c-0.5,0-1.2-0.4-1.2-1.1c0-0.5,0.1-0.6,1-1.9c0.1-0.2,1.7-2.5,2.5-5.1c-0.3,0-1.8,0.1-2,0.1c-0.4,0-1.4,0-1.4-1.1
			c0-0.2,0-1.1,1.3-1.2c0.1,0,2.3-0.1,2.6-0.1C414.2,20.4,414.4,18.2,414.6,17.9z M421.2,25.6c0-0.7-0.1-1.8,1.2-1.8
			c1.2,0,1.2,1.1,1.2,1.7v3.3c1.4,0.6,4,2,4,3.2c0,0.6-0.6,1.2-1.2,1.2c-0.4,0-0.6-0.2-1.1-0.6c-0.6-0.5-1.1-0.9-1.7-1.2
			c0,0.9-0.1,3.7-4.2,3.7c-2.7,0-4.4-1.6-4.4-3.6s1.7-3.6,4.6-3.6c0.8,0,1.4,0.1,1.7,0.2L421.2,25.6z M419.5,30.2
			c-1.4,0-2.2,0.6-2.2,1.4c0,0.4,0.2,1.2,1.8,1.2c2.3,0,2.2-1.4,2.2-2.1C421,30.5,420.5,30.2,419.5,30.2z M427.3,24.8
			c-0.4,0-0.6-0.2-1.3-0.7c-1.4-1-1.6-1.2-3.9-2.4c-0.4-0.2-0.9-0.5-0.9-1.1c0-0.4,0.3-1.2,1.1-1.2c0.8,0,3,1.5,4,2.1
			c1.4,1,2,1.4,2,2C428.4,24.3,427.9,24.8,427.3,24.8z"/>
		<path class="st1" d="M446,26.9c0,0.6,0,4.3-1.3,6.3c-1,1.5-2.5,1.5-3.1,1.5c-1.1,0-3.4-0.2-3.4-1.7c0-0.7,0.6-1.1,1.1-1.1
			c0.2,0,0.3,0,1,0.3c0.2,0.1,0.7,0.2,1.1,0.2c0.8,0,1.3-0.5,1.5-0.9c0.4-0.7,0.8-3,0.8-5c0-2.6-1.1-2.9-2.5-2.9c-0.1,0-0.6,0-1.3,0
			c-0.3,1.4-0.9,4.9-3.1,8.6c-1,1.7-1.5,2.3-2.3,2.3c-0.7,0-1.2-0.5-1.2-1.1c0-0.4,0.1-0.6,1-1.9c1.2-1.6,2.4-4.3,3.1-7.8
			c-0.5,0.1-1,0.1-1.7,0.3c-0.3,0.1-1.5,0.3-1.7,0.3c-0.7,0-1.1-0.5-1.1-1.2c0-0.3,0.1-1,1.1-1.3c0.7-0.2,2.6-0.5,3.8-0.6
			c0-0.5,0.1-3,0.3-3.6c0-0.1,0.3-0.9,1.2-0.9c1.2,0,1.2,1,1.2,1.5c0,1-0.2,2.4-0.2,2.8C443.6,21.4,446,21.4,446,26.9z M450.1,28
			c-0.8,0-1-0.4-1.5-1.7s-1.1-2.8-2.5-4.9c-0.8-1.2-0.9-1.3-0.9-1.7c0-0.6,0.4-1.1,1.2-1.1c0.4,0,1,0,2.8,3.1
			c1.1,1.8,2.1,4.2,2.1,5.1C451.3,27.4,450.7,28,450.1,28z M448.9,17.8c1.1,1.3,1.2,1.5,1.2,1.9c0,0.5-0.4,0.7-0.6,0.7
			c-0.4,0-0.4-0.1-1.1-1.3c-0.2-0.4-0.6-1-0.8-1.2c-0.2-0.3-0.2-0.4-0.2-0.5c0-0.3,0.3-0.5,0.5-0.5C448.2,16.9,448.3,17,448.9,17.8z
			 M451.8,18.7c0,0.6-0.5,0.6-0.6,0.6c-0.3,0-0.4-0.1-1.3-1.4c-0.6-0.8-1-1.4-1-1.6c0-0.3,0.2-0.4,0.5-0.4
			C449.8,15.8,451.8,17.8,451.8,18.7z"/>
		<path class="st1" d="M459.6,18.6c0,0.2-0.4,3-0.4,3.5c-0.1,0.8-0.2,2.2-0.2,2.6c0,0.4,0,1.9,0.8,1.9c0.4,0,0.6-0.3,1-0.6
			c0.4-0.4,0.6-0.5,0.8-0.5c0.7,0,1.1,0.5,1.1,1.2c0,1.1-1.7,2.6-3.3,2.6c-2.4,0-2.6-3.3-2.6-4.5c0-2.3,0.3-5,0.5-6
			c0.1-0.4,0.2-1,0.9-1.1C458.6,17.6,459.6,17.6,459.6,18.6z M465.2,33.6c-1.5,0.8-3.6,1.5-4.4,1.5c-0.9,0-1.2-0.8-1.2-1.3
			c0-0.9,0.4-0.9,1.7-1.2c6.2-1.4,6.2-4.9,6.2-7.8c0-1.4-0.1-3.3-0.3-4.4c0-0.2-0.1-1-0.1-1.5c0-0.7,0.6-1.2,1.3-1.2
			c0.6,0,0.9,0.4,0.9,0.5c0.3,0.6,0.6,4.3,0.6,5.1C470,28.2,470,31.2,465.2,33.6z"/>
		<path class="st1" d="M483.2,34.2c0,1-0.6,1.8-1.6,1.8H477c-0.4,0-0.9-0.3-0.9-0.9c0-0.5,0.3-0.9,0.9-0.9h3.9
			c0.4,0,0.6-0.3,0.6-0.7V17.1c0-0.5,0.3-0.9,0.8-0.9s0.8,0.4,0.8,0.9v17.1H483.2z"/>
		<path class="st1" d="M500,21.4c-0.3,0-1.2,0-1.2-1.2c0-1.1,0.6-1.2,2.3-1.3c2.8-0.2,11.5-0.8,14.1-0.8c0.3,0,1.2,0,1.2,1.1
			s-0.7,1.1-2.2,1.3c-3.8,0.3-7.3,3.6-7.3,6.9c0,2.9,2.2,4.3,4.5,4.9c0.3,0.1,1.9,0.3,2.2,0.4c0.4,0.2,0.6,0.5,0.6,1
			c0,1.3-1.3,1.3-1.6,1.3c-2.5,0-8-2.4-8-7.3c0-1.6,0.6-4.7,4-7.2C507.2,20.5,500.3,21.4,500,21.4z M513.4,22.9
			c0.6,1,0.9,1.5,0.9,1.9c0,0.5-0.4,0.7-0.6,0.7c-0.4,0-0.4-0.2-0.8-1c-0.1-0.3-0.8-1.6-0.8-1.9c0-0.3,0.2-0.5,0.5-0.5
			C512.8,22,512.9,22.1,513.4,22.9z M514.4,23.3c-0.1-0.1-0.4-0.7-0.6-0.9c-0.1-0.3-0.2-0.4-0.2-0.5c0-0.3,0.2-0.5,0.4-0.5
			c0.6,0,2,2.1,2,2.7c0,0.4-0.4,0.6-0.5,0.6C515.2,24.6,515.2,24.6,514.4,23.3z"/>
		<path class="st1" d="M535.2,18.4c2.5,0,2.5,2.1,2.5,2.6c0,3.3-1.9,7.9-6.9,11.1c-2.1,1.4-4.7,2.4-5.7,2.4c-0.8,0-1.2-0.6-1.2-1.3
			c0-1,0.6-1.1,1.8-1.5c0.1,0,4.3-1.4,6.8-4.2c2.3-2.6,2.8-5.6,2.8-6.2c0-0.6-0.3-0.7-1-0.7h-10.9c-0.9,0-1.7,0-1.7-1.2
			s0.9-1.2,1.7-1.2h11.8V18.4z"/>
		<path class="st1" d="M547,26.3c-0.8,0-1.7,0-1.7-1s1-1,1.7-1h5.6v-0.9c0-0.8,0-1.7,1-1.7s1,0.9,1,1.7v1h1.5c0.8,0,1.7,0,1.7,1
			s-0.9,1-1.7,1h-1.5l0.1,6.1c0,0.6,0,2.5-1.9,2.5c-0.9,0-2.5-0.4-2.8-0.5c-0.4-0.3-0.5-0.6-0.5-0.9c0-0.7,0.5-1,0.9-1
			c0.3,0,1.4,0.3,1.7,0.3c0.7,0,0.6-0.3,0.6-1.1l-0.1-5.3c-1.8,4.5-6.4,6.8-7.1,6.8c-0.4,0-0.9-0.3-0.9-1.1c0-0.3,0.1-0.6,1-1.1
			c2.2-1.2,3.9-2.7,4.8-4.8H547z"/>
		<path class="st1" d="M578.8,18.8c0.9,0,2.8,0,2.8,2.6v9.7c0,2.6-2,2.6-2.8,2.6h-10c-0.9,0-2.8,0-2.8-2.6v-9.7c0-2.6,2-2.6,2.8-2.6
			C568.8,18.8,578.8,18.8,578.8,18.8z M569.1,21.1c-0.8,0-0.9,0.1-0.9,0.9v8.6c0,0.7,0.1,0.9,0.9,0.9h9.3c0.8,0,0.9-0.1,0.9-0.9V22
			c0-0.7-0.1-0.9-0.9-0.9H569.1z"/>
		<path class="st1" d="M588.2,27.4c-0.8,0-1.7,0-1.7-1.2s0.9-1.2,1.7-1.2h15.3c0.8,0,1.7,0,1.7,1.2s-1,1.2-1.7,1.2H588.2z"/>
	</g>
</g>
<g>
	<path class="st2" d="M51.8,25.9c0,14.3-11.6,25.9-25.9,25.9C11.6,51.9,0,40.3,0,25.9C0,11.6,11.6,0,25.9,0S51.8,11.6,51.8,25.9z"/>
	<g>
		<path class="st3" d="M21,6.3c0.2,0.2,0.4,0.4,0.6,0.7c0.2,0.2,0.1,0.3-0.1,0.4c0,0-0.1,0.1-0.2,0.1c-0.5,0.4-1.7,1.3-3.2,2.3
			c-0.3,0.2-0.7,0.5-1.1,0.7c0.4-0.1,0.9-0.2,1.3-0.3c1.8-0.3,3.7-0.5,4.8-0.7c0.4,0,0.3-0.1,0.4,0.2c0,0.1,0.1,0.3,0.1,0.5
			c0,0.3,0,0.3-0.3,0.3c-3.5,0-5.1,1.6-5.1,2.9s1.8,1.8,3.9,1.6c-0.1,0.4-0.2,0.7-0.2,1c-2.6,0.1-4.5-0.9-4.5-2.5
			c0-1.1,1.1-2.2,2.4-2.9c-2.2,0.4-3.4,0.7-4.5,1.2c-0.3,0.1-0.3,0.2-0.4,0c-0.1-0.2-0.3-0.4-0.4-0.7c-0.1-0.3,0-0.2,0.2-0.3
			c0.4-0.1,0.9-0.2,1.3-0.4c0.7-0.4,2.2-1.5,3.4-2.4c0.4-0.3,0.8-0.7,1.1-1c-0.4,0.1-1,0.2-1.4,0.3c-0.8,0.1-1.5,0.2-2.1,0.3
			c-0.3,0-0.3,0.1-0.3-0.1c-0.1-0.2-0.1-0.5-0.2-0.7s0-0.2,0.2-0.2c1.2,0,3.1-0.1,4-0.4C20.7,6.2,20.8,6,21,6.3z"/>
		<path class="st3" d="M36.2,11c0,1.9-0.9,3.9-4,4.6c-0.2-0.3-0.6-0.5-0.8-0.8c1.6-0.2,3.8-1.3,3.8-3.7s-1.8-3.3-3.4-3.4
			c-0.3,2.3-1.1,5.5-2.1,6.7c-0.9,1.1-2.1,0.5-2.6-0.2c-0.4-0.6-0.8-1.4-0.7-2.8c0.1-1.5,1.7-4.4,5-4.5C34.7,6.8,36.2,9.3,36.2,11z
			 M27.3,11.4c-0.2,1.2,0.2,2,0.5,2.3c0.4,0.5,1,0.5,1.3-0.1c0.8-1.4,1.4-4.1,1.6-5.8C29,8.1,27.7,9.6,27.3,11.4z"/>
	</g>
	<g>
		<path class="st3" d="M24.9,44.7c-0.1,0-0.2,0-0.3,0c-5-0.1-9.2-2.5-9.5-8.5H20c0.1,2.9,1.8,4.3,4.6,4.3h0.1c3.1,0,4.8-1.2,4.8-3.2
			c0-1.6-0.7-3.1-4.3-3.1h-3.6v-3.9c0,0,1.8,0,3.6,0c2.9,0,3.5-1.4,3.5-2.9c0-1.4-0.9-2.8-3.8-2.8c-0.1,0-0.1,0-0.2,0
			c-2.9,0.1-4,1.8-4,3.8h-4.9c0.2-4.5,3.5-7.8,8.9-7.9c0.1,0,0.1,0,0.2,0c5.6,0,8.6,3,8.6,6.6c0,1.9-0.9,3.9-2.7,4.7
			c2.5,0.9,3.6,3.1,3.6,5.4C34.3,41.7,30.8,44.7,24.9,44.7z"/>
	</g>
	<polyline class="st2" points="39.6,40.8 54.9,45.5 47.2,32.8 	"/>
</g>
</svg>
