<?xml version="1.0" encoding="utf-8"?>
<!-- Generator: Adobe Illustrator 22.1.0, SVG Export Plug-In . SVG Version: 6.00 Build 0)  -->
<svg version="1.1" id="レイヤー_1" xmlns="http://www.w3.org/2000/svg" xmlns:xlink="http://www.w3.org/1999/xlink" x="0px"
	 y="0px" viewBox="0 0 759 51.8" style="enable-background:new 0 0 759 51.8;" xml:space="preserve">
<style type="text/css">
	.st0{fill:#FFDD00;}
	.st1{fill:#F98A00;}
	.st2{fill:#FFFFFF;}
	.st3{fill:#004EA1;}
</style>
<path class="st0" d="M741.6,43.7H26.3c-9.6,0-17.4-7.8-17.4-17.4l0,0c0-9.6,7.8-17.4,17.4-17.4h715.2c9.6,0,17.4,7.8,17.4,17.4l0,0
	C759,35.9,751.2,43.7,741.6,43.7z"/>
<g>
	<path class="st1" d="M51.8,25.9c0,14.3-11.6,25.9-25.9,25.9C11.6,51.7,0,40.1,0,25.9C0,11.6,11.6,0,25.9,0S51.8,11.6,51.8,25.9z"/>
	<g>
		<path class="st2" d="M21,6.2c0.2,0.2,0.4,0.4,0.6,0.7c0.2,0.2,0.1,0.3-0.1,0.4c0,0-0.1,0.1-0.2,0.1c-0.5,0.4-1.7,1.3-3.2,2.3
			c-0.3,0.2-0.7,0.5-1.1,0.7c0.4-0.1,0.9-0.2,1.3-0.3c1.8-0.3,3.7-0.5,4.8-0.7c0.4,0,0.3-0.1,0.4,0.2c0,0.1,0.1,0.3,0.1,0.5
			c0,0.3,0,0.3-0.3,0.3c-3.5,0-5.1,1.6-5.1,2.9s1.8,1.8,3.9,1.6c-0.1,0.4-0.2,0.7-0.2,1c-2.6,0.1-4.5-0.9-4.5-2.5
			c0-1.1,1.1-2.2,2.4-2.9c-2.2,0.4-3.4,0.7-4.5,1.2c-0.3,0.1-0.3,0.2-0.4,0c-0.1-0.2-0.3-0.4-0.4-0.7c-0.1-0.3,0-0.2,0.2-0.3
			c0.4-0.1,0.9-0.2,1.3-0.3c0.7-0.4,2.2-1.5,3.4-2.4c0.4-0.3,0.8-0.7,1.1-1c-0.4,0.1-1,0.2-1.4,0.3c-0.8,0.1-1.5,0.2-2.1,0.3
			c-0.3,0-0.3,0.1-0.3-0.1c-0.1-0.2-0.1-0.5-0.2-0.7s0-0.2,0.2-0.2c1.2,0,3.1-0.1,4-0.4C20.7,6.2,20.8,6,21,6.2z"/>
		<path class="st2" d="M36.2,11c0,1.9-0.9,3.9-4,4.6c-0.2-0.3-0.6-0.5-0.8-0.8c1.6-0.2,3.8-1.3,3.8-3.7s-1.8-3.3-3.4-3.4
			c-0.3,2.3-1.1,5.5-2.1,6.7c-0.9,1.1-2.1,0.5-2.6-0.2c-0.4-0.6-0.8-1.4-0.7-2.8c0.1-1.5,1.7-4.3,5-4.5S36.2,9.2,36.2,11z
			 M27.3,11.3c-0.2,1.2,0.2,2,0.5,2.3c0.4,0.5,1,0.5,1.3-0.1c0.8-1.4,1.4-4.1,1.6-5.7C29,8.1,27.7,9.5,27.3,11.3z"/>
	</g>
	<g>
		<path class="st2" d="M34.7,36.3c0,5.9-4.8,8.3-9.3,8.3h-0.1c-4.2,0-8.9-1.2-9.5-7.2c1.3,0,2.2,0,3,0c1.5,0,2,0,2,0
			c0.3,2.2,2,3.2,4.5,3.2c2.6,0,4.7-1.7,4.7-4.4c0-2.8-1.9-4-4.5-4c-2.4,0-4.3,0.8-4.9,2.8H16l1.5-13.7H33v4.2H21.5L20.9,30
			c1.3-1.1,3.1-1.6,4.7-1.6c0.1,0,0.2,0,0.3,0C30.2,28.4,34.6,30.3,34.7,36.3C34.7,36.2,34.7,36.2,34.7,36.3z"/>
	</g>
	<polyline class="st1" points="39.6,40.7 54.9,45.4 47.2,32.7 	"/>
</g>
<g>
	<g>
		<path class="st3" d="M70.8,34c0,0.7,0,1.7-1,1.7s-1-1-1-1.7v-8.2c-0.4,0.8-0.8,1.4-1.6,1.4c-0.4,0-1-0.1-1-1
			c0-0.4,0.1-0.6,0.9-1.9c1.6-2.9,2.1-5.2,2.5-6.6c0.2-0.7,0.3-1.4,1.1-1.4c0.8,0,1.1,0.5,1.1,1c0,0.3-0.1,1.4-1.1,4.2L70.8,34
			L70.8,34z M83.7,16.6c1.1,0,1.8,0.6,1.8,1.7v15.2c0,1.1-0.8,1.7-1.8,1.7h-9.6c-1,0-1.8-0.6-1.8-1.7V18.3c0-1.1,0.7-1.7,1.8-1.7
			H83.7z M74.7,18.5c-0.2,0-0.5,0-0.5,0.4v13.9c0,0.4,0.3,0.4,0.5,0.4H83c0.2,0,0.5,0,0.5-0.4V19c0-0.4-0.3-0.4-0.5-0.4L74.7,18.5
			L74.7,18.5z M77.8,24.7v-1.9h-1.3c-0.7,0-1.7,0-1.7-0.9c0-0.9,1-0.9,1.7-0.9h1.3v-0.4c0-0.8,0-1.7,1-1.7s1,0.9,1,1.7V21h1.5
			c0.7,0,1.7,0,1.7,0.9c0,0.9-1,0.9-1.7,0.9h-1.5v1.9H81c0.2,0,1.4,0.3,1.4,1.6v3.5c0,1.4-1.2,1.6-1.4,1.6h-4.2
			c-0.2,0-1.4-0.3-1.4-1.6v-3.5c0-1.4,1.2-1.6,1.4-1.6H77.8z M80.1,29.5c0.2,0,0.4-0.2,0.4-0.4v-2.2c0-0.2-0.2-0.4-0.4-0.4h-2.4
			c-0.2,0-0.4,0.2-0.4,0.4v2.3c0,0.1,0.2,0.4,0.4,0.4h2.4V29.5z"/>
		<path class="st3" d="M100.4,26.3c2.1,0,2.1,1.3,2.1,2.8c0,5.4-1,6.5-3.6,6.5c-2.5,0-3.1-0.4-3.1-1.2c0-0.6,0.4-1.1,1-1.1
			c0.3,0,1.4,0.2,1.7,0.2c0.6,0,1.2-0.1,1.5-0.6c0.3-0.6,0.5-2.4,0.5-3c0-1.2,0-1.5-0.7-1.5h-3.6c-0.9,4.8-3,7.3-3.9,7.3
			c-0.6,0-1.1-0.6-1.1-1.1c0-0.4,0.1-0.6,0.9-1.7c2.1-3.1,2.2-6.4,2.2-8.1h-0.4c-0.8,0-2.1,0-2.1-1.8v-4.4c0-1.8,1.3-1.8,2.1-1.8
			h6.3c0.8,0,2.1,0,2.1,1.8V23c0,1.8-1.3,1.8-2.1,1.8h-3.7c0,0.4,0,0.8-0.1,1.6L100.4,26.3L100.4,26.3z M94.7,18.7
			c-0.4,0-0.8,0-0.8,0.7v2.5c0,0.7,0.3,0.7,0.8,0.7h4.8c0.4,0,0.8,0,0.8-0.7v-2.5c0-0.7-0.3-0.7-0.8-0.7H94.7z M107.8,17.7
			c0-0.8,0-1.7,1.1-1.7s1.1,0.9,1.1,1.7v15.1c0,1.4-0.1,2.7-3,2.7c-2.7,0-3.3-0.4-3.3-1.3c0-0.5,0.4-1.1,0.9-1.1
			c0.1,0,0.9,0.1,1,0.1c0.5,0.1,1,0.1,1.3,0.1c0.9,0,0.9-0.4,0.9-1.1V17.7z M106.2,28.9c0,0.8,0,1.7-1,1.7c-1.1,0-1.1-0.9-1.1-1.7
			V18.5c0-0.8,0-1.7,1.1-1.7c1,0,1,0.9,1,1.7V28.9z"/>
		<path class="st3" d="M121.6,19.9c0.8,0,1.7,0,1.7,1s-0.9,1-1.7,1H121v3.7c0.3-0.1,1.3-0.5,1.5-0.5c0.5,0,0.9,0.4,0.9,0.9
			c0,0.6-0.3,1-2.5,1.7v5.8c0,1.6-0.8,2.2-2.6,2.2c-1,0-2.1-0.1-2.1-1.2c0-0.5,0.4-1,1-1c0.1,0,0.7,0.1,0.8,0.1
			c0.9,0,0.9-0.2,0.9-0.6v-4.7c-0.4,0.1-1.8,0.4-2,0.4c-0.5,0-1-0.4-1-1.1c0-0.5,0.3-0.9,0.9-1c0.9-0.1,1.3-0.3,2.2-0.5v-4.2h-1.1
			c-0.8,0-1.7,0-1.7-1s0.9-1,1.7-1h1.1v-2c0-0.8,0-1.7,1-1.7s1,0.9,1,1.7v2C121,19.9,121.6,19.9,121.6,19.9z M132.7,25.9
			c1.4,0,2,0.9,2,1.8v5.7c0,1.1-0.7,1.8-2,1.8h-6.9c-1.4,0-2-0.8-2-1.8v-5.7c0-1.1,0.7-1.8,2-1.8H132.7z M126.1,21.9
			c0,0.4,0.1,0.9,1.1,0.9h4.6c0.7,0,1.3-0.3,1.4-1c0.1-0.7,0.2-1.3,1-1.3c0.3,0,1.1,0.1,1.1,1.1c0,1.6-0.9,3.2-3.2,3.2h-4.4
			c-2.1,0-3.6-0.5-3.6-2.2v-4.7c0-0.8,0-1.7,1-1.7s1,0.9,1,1.7v0.6c2.2-0.2,3.1-0.3,5.2-0.9c0.3-0.1,1.8-0.6,2.2-0.6
			c0.6,0,1,0.6,1,1.1c0,0.7-0.6,0.9-1.2,1.1c-1.4,0.5-4.5,1.2-7.2,1.5C126.1,20.7,126.1,21.9,126.1,21.9z M132.7,29.5v-1.1
			c0-0.4-0.3-0.6-0.7-0.6h-5.4c-0.4,0-0.7,0.2-0.7,0.6v1.1H132.7z M125.8,31.3v1.4c0,0.4,0.3,0.6,0.7,0.6h5.4c0.4,0,0.7-0.1,0.7-0.6
			v-1.4H125.8z"/>
		<path class="st3" d="M147.8,29.3c-0.8,0-2.7,0-3.8-1.6c-0.7,0.5-2.1,1.3-2.6,1.3s-1-0.4-1-1c0-0.5,0.3-0.7,0.8-0.9
			c1.2-0.6,1.9-1,2.3-1.2V24c0-0.5-0.1-0.5-0.7-0.5h-0.6c-0.7,0-1.7,0-1.7-0.9s1-0.9,1.7-0.9h1.8c0.4,0,1.6,0,1.6,1.4v2.7
			c0,0.7,0,2.1,2.6,2.1h10.1c1.1,0,1.6,0,1.6,0.8s-0.6,0.8-1.6,0.8h-1.6v0.7h1.6c1,0,1.6,0,1.6,0.8s-0.6,0.8-1.6,0.8h-1.6v1.4
			c0,1.8-0.2,2.6-2.7,2.6c-3.6,0-4.2-0.5-4.2-1.3c0-0.2,0.1-0.8,0.9-0.8c0.2,0,1.2,0.1,1.6,0.2c0.7,0.1,1.3,0.1,1.4,0.1
			c0.9,0,0.9-0.1,0.9-1.1v-1h-8.7c0.7,0.6,2.3,1.9,2.3,2.5c0,0.3-0.2,1.1-1.1,1.1c-0.3,0-0.4-0.1-1.1-0.7c-1-1-1-1-1.6-1.4
			c-0.1-0.1-0.4-0.4-0.4-0.8c0-0.3,0.1-0.5,0.3-0.7h-1.8c-1,0-1.6,0-1.6-0.8s0.6-0.8,1.6-0.8h12.1v-0.7h-6.8V29.3z M144.4,20.1
			c-0.4,0-0.5-0.1-1.3-0.9c-0.2-0.2-1.3-1.1-1.6-1.3c-0.1-0.1-0.2-0.3-0.2-0.6c0-0.8,0.7-0.9,1-0.9c0.4,0,1.3,0.7,1.7,1.1
			c1.3,1.1,1.4,1.3,1.4,1.7C145.4,19.6,145.1,20.1,144.4,20.1z M151.7,19.2H147c-0.4,0-1.1,0-1.1-0.8s0.7-0.8,1.1-0.8h2.3
			c-0.3-0.5-0.3-0.6-0.3-0.8c0-0.5,0.6-0.8,1.1-0.8c0.7,0,0.9,0.4,1.6,1.6h2.6c0.4-1,0.6-1.6,1.4-1.6c0.5,0,1.1,0.3,1.1,0.9
			c0,0.2-0.1,0.4-0.2,0.7h2.3c0.4,0,1.1,0,1.1,0.8s-0.7,0.8-1.1,0.8h-5l-0.2,0.7h3.4c1.8,0,1.8,1.5,1.8,1.8v3.5c0,0.4,0,1.8-1.8,1.8
			h-7.9c-1.8,0-1.8-1.5-1.8-1.8v-3.5c0-0.4,0-1.8,1.8-1.8h2.4L151.7,19.2z M156.9,21.9c0-0.2-0.1-0.4-0.2-0.5
			c-0.1-0.1-0.3-0.1-0.5-0.1h-6.3c-0.3,0-0.7,0.2-0.7,0.6H156.9z M149.2,23.2v0.7h7.7v-0.7H149.2z M149.2,25c0,0.4,0.2,0.7,0.7,0.7
			h6.3c0.4,0,0.7-0.3,0.7-0.7H149.2z"/>
		<path class="st3" d="M167.1,29.8c-0.8,0-1.7,0-1.7-1s0.9-1,1.7-1h6.7c-0.8-1-0.9-1.1-0.9-1.4c0-0.5,0.4-1,0.9-1s1.2,0.6,2,1.6
			c0.8-0.6,2.3-1.8,2.3-2.1c0-0.2-0.2-0.2-0.4-0.2h-7c-0.8,0-1.7,0-1.7-1s0.9-1,1.7-1h8.7c0.9,0,1.5,0.5,1.5,1.4
			c0,1.1-1.1,2.6-2.8,3.7h4.9c0.8,0,1.7,0,1.7,1s-0.9,1-1.7,1h-5.8c0.2,0.7,0.4,1.5,0.4,2.3c0,2.8-2.1,3.7-4,3.7
			c-1.3,0-3.8-0.3-3.8-1.6c0-0.1,0-1.1,1.1-1.1c0.3,0,0.7,0.1,0.9,0.2c1,0.3,1.6,0.3,2,0.3c1.9,0,1.9-1.7,1.9-1.8
			c0-0.4-0.2-1.1-0.6-2.1L167.1,29.8L167.1,29.8z M173.9,19.4c-0.2-0.4-1-2-1-2.4c0-0.3,0.4-0.9,1-0.9s0.9,0.5,1,0.8
			c0.6,1.1,0.8,1.5,0.8,1.9c0,0.3-0.1,0.4-0.1,0.5h2.7c0.6-0.9,1-1.6,1.4-2.4c0.2-0.3,0.4-0.7,0.9-0.7c0.6,0,1.1,0.5,1.1,1
			s-0.4,1.2-1.1,2.2h2.1c0.9,0,1.4,0.6,1.4,1.3v2.5c0,0.8,0,1.7-1,1.7s-1-0.9-1-1.7v-1.1c0-0.6-0.1-0.7-0.6-0.7h-13.2
			c-0.4,0-0.6,0-0.6,0.7v1.1c0,0.8,0,1.7-1,1.7s-1-0.9-1-1.7v-2.3c0-0.8,0.6-1.6,1.7-1.6h1.9c-0.1-0.2-0.7-1.2-0.9-1.4
			c-0.2-0.3-0.3-0.5-0.3-0.7c0-0.6,0.4-1,0.9-1c1.2,0,2.2,2.5,2.2,2.8c0,0.2-0.1,0.3-0.1,0.4C171.1,19.4,173.9,19.4,173.9,19.4z"/>
		<path class="st3" d="M191.5,22.9c1.3-0.3,2.9-0.8,3.5-1.1c0.6-0.3,0.8-0.4,1.1-0.4c0.7,0,0.9,0.7,0.9,1c0,0.4-0.5,0.8-1.7,1.3
			c-1.4,0.6-3.6,1.2-4.2,1.2c-0.7,0-0.9-0.5-0.9-1.1C190.1,23.2,191,23,191.5,22.9z M197.6,16.7c1.4,0,1.4,0.9,1.4,1.4v6.3
			c0,1.3-0.8,1.6-2.7,1.6c-1,0-1.9-0.1-1.9-0.9c0-0.9,0.6-0.9,1.8-0.9c0.8,0,0.8,0,0.8-0.6v-4.4c0-0.4-0.1-0.6-0.6-0.6h-4.5
			c-0.7,0-1.7,0-1.7-1s0.9-1,1.7-1h5.7V16.7z M194.7,20c0.2,0.1,0.8,0.3,0.8,1c0,0.6-0.5,0.8-0.8,0.8c-0.2,0-2.6-0.8-3-1
			c-0.3-0.1-0.8-0.4-0.8-1c0-0.7,0.7-0.8,0.8-0.8C192.4,19,194.4,19.9,194.7,20z M205.9,26.7c1.2,0,1.7,0.5,1.7,1.4v5.8
			c0,0.9-0.5,1.4-1.7,1.4h-12.6c-1.2,0-1.7-0.5-1.7-1.4v-5.8c0-0.9,0.5-1.4,1.7-1.4h5.1c0.1-0.2,0.6-1.3,0.7-1.5
			c0.2-0.3,0.5-0.4,0.8-0.4c0.5,0,0.9,0.4,0.9,0.9c0,0.4-0.2,0.9-0.3,1.1L205.9,26.7L205.9,26.7z M205.5,30v-0.9
			c0-0.3,0-0.5-0.7-0.5h-10.4c-0.7,0-0.7,0.3-0.7,0.5V30H205.5z M193.7,31.7v1c0,0.3,0,0.5,0.7,0.5h10.4c0.7,0,0.7-0.3,0.7-0.5v-1
			H193.7z M207.3,16.7c1.4,0,1.4,1.1,1.4,1.5v6.1c0,1.3-0.5,1.7-2.6,1.7c-1.5,0-2.4-0.1-2.4-1c0-0.4,0.3-0.8,0.9-0.8
			c0.1,0,0.8,0.1,0.9,0.1c1.1,0,1.1-0.3,1.1-0.7v-4.4c0-0.3-0.2-0.5-0.5-0.5h-4.8c-0.7,0-1.7,0-1.7-1s0.9-1,1.7-1
			C201.3,16.7,207.3,16.7,207.3,16.7z M200,23.6c0-0.8,0.7-1,1.1-1c1.4-0.3,1.6-0.4,4-1.3c0.1,0,0.4-0.1,0.6-0.1
			c0.4,0,0.9,0.4,0.9,0.9c0,0.6-0.5,0.9-1,1.1c-0.6,0.3-3.7,1.4-4.7,1.4C200.4,24.6,200,24.1,200,23.6z M204.3,19.8
			c0.1,0,0.5,0.2,0.5,0.8c0,0.3-0.1,0.9-0.8,0.9c-0.3,0-1.6-0.4-1.8-0.5c-1.4-0.3-1.8-0.4-1.8-1.1s0.6-0.9,0.9-0.9
			C202,18.9,204.2,19.7,204.3,19.8z"/>
		<path class="st3" d="M222.8,23.6c0.7,0,1.1,0.5,1.1,0.9c0,0.6-1,1.5-1.6,2c0.7-0.1,1.5-0.2,1.7-0.2c0.5,0,0.9,0.2,0.9,0.7
			c0,0.7-0.4,0.8-3.4,1.1c0,0.1,0.1,0.5,0.1,0.8c0,1.4-1.1,1.7-2.3,1.7c-2,0-2.9,0-2.9-0.9c0-0.4,0.3-0.7,0.7-0.7s1.3,0.1,1.8,0.1
			c0.6,0,0.7-0.1,0.7-0.4c0-0.2-0.1-0.4-0.2-0.6c-1.6,0.1-3.7,0.1-4,0.1c-0.7,0-1.2-0.1-1.2-0.8c0-0.5,0.4-0.8,1.2-0.8
			c0.4,0,2.5,0,3,0c-0.2-0.2-0.3-0.4-0.3-0.7s0.3-0.8,0.8-0.8c0.3,0,0.6,0.2,1.3,0.9c0.3-0.4,0.7-0.8,0.7-1c0-0.1-0.2-0.2-0.3-0.2
			h-4.3c-1,0-1.6,0-1.6-0.7s0.6-0.7,1.6-0.7h6.5V23.6z M219.1,17.4V17c0-0.5,0.4-1,1-1s1,0.4,1,1v0.4h2c1.1,0,1.7,0,1.7,0.7
			s-0.6,0.7-1.7,0.7h-6.8c-1.1,0-1.7,0-1.7-0.7s0.6-0.7,1.7-0.7H219.1z M231.3,31.2c1.1,0,1.7,0,1.7,0.8s-0.6,0.8-1.7,0.8h-6v0.9
			h6.7c1.1,0,1.7,0,1.7,0.8s-0.5,0.8-1.7,0.8h-15.7c-1.1,0-1.7,0-1.7-0.8s0.5-0.8,1.7-0.8h6.8v-0.9h-5.9c-1.1,0-1.7,0-1.7-0.8
			s0.6-0.8,1.7-0.8h5.9c0-1,0-1.8,1.1-1.8s1.1,0.8,1.1,1.8H231.3z M215.5,20.5c0-0.4,0.4-0.9,1.2-0.9h6.3c0.9,0,1.2,0.7,1.2,1.1v1.1
			c0,0.8-0.4,1.1-1.1,1.1h-6.3c-0.8,0-1.3-0.3-1.3-1L215.5,20.5L215.5,20.5z M222.3,21.1c0-0.2-0.2-0.3-0.4-0.3h-4.1
			c-0.3,0-0.4,0.1-0.4,0.3v0.4c0,0.2,0.1,0.3,0.4,0.3h4.1c0.3,0,0.4-0.1,0.4-0.3V21.1z M226.3,20.5c-0.7,0-1.7,0-1.7-1s1-1,1.7-1
			h0.8v-0.7c0-0.7,0-1.7,0.9-1.7s0.9,1,0.9,1.7v0.7h2c1,0,1.3,0.7,1.3,1.6c0,3.4,0,7,0.6,7c0.1,0,0.1-0.4,0.2-0.6
			c0-0.2,0.3-0.4,0.6-0.4c0.7,0,0.7,0.6,0.7,1s-0.4,3.5-1.6,3.5c-2.1,0-2.2-7.5-2.3-9.5c0-0.5-0.1-0.7-0.5-0.7H229
			c0,1.3,0,2.4-0.2,3.7c1.6,1.5,1.8,1.7,1.8,2.2c0,0.6-0.5,1-1,1c-0.4,0-0.6-0.2-1.4-1.1c-0.5,1.3-1.5,3.3-2.5,3.3c-0.4,0-1-0.3-1-1
			c0-0.1,0.1-0.4,0.3-0.6c0.6-0.9,1.4-2.3,1.7-3.2c-0.3-0.2-1.5-1.2-1.5-1.3c-0.2-0.2-0.2-0.4-0.2-0.7c0-0.5,0.4-0.9,1-0.9
			c0.3,0,0.7,0.3,1.2,0.6c0-0.5,0.1-2,0.1-2.2h-1V20.5z"/>
		<path class="st3" d="M241.3,21.1c-0.3,0-1.2,0-1.2-1.2c0-1.1,0.6-1.2,2.3-1.3c2.8-0.2,11.5-0.8,14.1-0.8c0.3,0,1.2,0,1.2,1.1
			c0,1.1-0.7,1.1-2.2,1.3c-3.8,0.3-7.3,3.6-7.3,6.9c0,2.9,2.2,4.3,4.5,4.9c0.3,0.1,1.9,0.3,2.2,0.4c0.4,0.2,0.6,0.5,0.6,1
			c0,1.3-1.3,1.3-1.6,1.3c-2.5,0-8-2.4-8-7.3c0-1.6,0.6-4.7,4-7.2C248.5,20.2,241.6,21.1,241.3,21.1z M254.7,22.6
			c0.6,1,0.9,1.5,0.9,1.9c0,0.5-0.4,0.7-0.6,0.7c-0.4,0-0.4-0.2-0.8-1c-0.1-0.3-0.8-1.6-0.8-1.9c0-0.3,0.2-0.5,0.5-0.5
			C254.1,21.7,254.2,21.8,254.7,22.6z M255.8,23c-0.1-0.1-0.4-0.7-0.6-0.9c-0.1-0.3-0.2-0.4-0.2-0.5c0-0.3,0.2-0.5,0.4-0.5
			c0.6,0,2,2.1,2,2.7c0,0.4-0.4,0.6-0.5,0.6C256.5,24.3,256.5,24.3,255.8,23z"/>
		<path class="st3" d="M270.1,18.6c0-0.8,0.1-1.7,1.2-1.7c1.3,0,1.2,1,1.1,1.8l-0.1,2h2.6c0.7,0,1.7,0,1.7,1.2s-1,1.2-1.7,1.2h-2.8
			l-0.1,2.3h3.1c0.8,0,1.7,0,1.7,1.1c0,1.2-1,1.2-1.7,1.2h-3.2l-0.1,1.6c-0.2,2.5,1.6,3.3,3.3,3.3c3.5,0,4.2-2.4,4.2-3.6
			c0-0.6-0.1-1.3-0.2-1.9c-0.1-0.5-0.1-0.6-0.1-0.7c0-0.6,0.6-1,1.3-1c0.7,0,1,0.5,1.1,0.8c0.2,0.4,0.5,1.4,0.5,2.7
			c0,3.4-2.2,6-6.7,6c-0.7,0-3,0-4.6-1.9c-1-1.2-1-3-0.9-3.8l0.1-1.5h-2.7c-0.7,0-1.7,0-1.7-1.2s0.9-1.2,1.7-1.2h2.9l0.1-2.3h-2.6
			c-0.7,0-1.7,0-1.7-1.2c0-1.1,0.9-1.1,1.7-1.1h2.7L270.1,18.6z"/>
		<path class="st3" d="M290.3,25.9c-0.9,0-1.8,0-1.8-1s0.9-1,1.8-1h4.3c0.2-0.4,0.8-2,1-2.4c0.1-0.2,0.4-0.7,1-0.7
			c0.4,0,1.2,0.3,1.2,1.1c0,0.3,0,0.5-0.7,2h9c0.9,0,1.8,0,1.8,1s-0.9,1-1.8,1h-1.4c-0.3,1.3-0.9,3.5-2.8,5.4
			c2.8,1.5,3.1,1.7,3.6,2.1c0.5,0.3,0.8,0.7,0.8,1.1c0,0.6-0.6,1.1-1,1.1c-0.5,0-1.1-0.3-1.4-0.6c-0.6-0.3-3.2-2-3.8-2.3
			c-3.9,2.7-8,2.8-9.1,2.8c-0.6,0-1.3-0.2-1.3-1.1c0-1,1-1,1.2-1c1.3-0.1,4.3-0.2,7.2-1.9c-1-0.5-2.1-1.1-3.5-1.7
			c-0.7-0.3-0.8-0.3-0.8-0.3c-0.3,0.4-0.7,0.9-1.2,0.9s-1.1-0.4-1.1-1.1c0-0.3,0.1-0.5,0.2-0.6c1.3-1.7,1.4-1.9,2-2.8
			C293.7,25.9,290.3,25.9,290.3,25.9z M305.8,18.3c1,0,1.4,0.9,1.4,1.3v2c0,0.8,0,1.7-1,1.7c-1.1,0-1.1-0.9-1.1-1.7V21
			c0-0.6-0.3-0.6-0.6-0.6h-12.9c-0.4,0-0.6,0.1-0.6,0.7v0.4c0,0.8,0,1.7-1,1.7s-1-0.9-1-1.7v-1.6c0-0.7,0.6-1.6,1.8-1.6h6.4v-0.5
			c0-0.6,0-1.5,1-1.5c1.1,0,1.1,0.8,1.1,1.5v0.5C299.3,18.3,305.8,18.3,305.8,18.3z M296,25.9c-0.2,0.4-0.4,0.7-1.2,1.9
			c2.5,1.1,3.8,1.7,5,2.4c1.1-1.1,2.1-2.7,2.5-4.3C302.3,25.9,296,25.9,296,25.9z"/>
		<path class="st3" d="M316,23.2c0.3,0,0.9,0.1,0.9,1.3s-0.7,4.9-1.5,6.7c-0.4,1-0.8,1.2-1.3,1.2c-0.7,0-1-0.5-1-0.9
			c0-0.3,0.3-0.8,0.5-1.4c0.8-2,1.1-3.6,1.3-5.8c0.1-0.5,0.3-0.9,0.7-1.1C315.8,23.2,315.9,23.2,316,23.2z M320.3,31.9
			c0,1.4,0.7,1.5,2.3,1.5h2.9c1.5,0,2-0.9,2-2.2c0-0.9,0-1.8,1-1.8s1,1.1,1,1.8c0,1.9-0.3,4.3-4.1,4.3h-3.2c-3.4,0-3.8-1.3-3.8-3.2
			v-8.6c0-0.8,0-1.7,1-1.7s1,0.9,1,1.7L320.3,31.9L320.3,31.9z M325.5,20.9c-0.3,0-2.7-1.4-3.2-1.6s-3-1.4-3.2-1.5
			c-0.2-0.1-0.4-0.4-0.4-0.7c0-0.7,0.5-1.1,1-1.1c0.6,0,3.3,1.2,4.4,1.8c2.4,1.4,2.4,1.6,2.5,2C326.6,20.2,326.3,20.9,325.5,20.9z
			 M331.6,31.5c-0.7,0-0.9-0.4-1.3-1.9c-0.5-1.8-1.7-4.6-2.2-5.5c-0.3-0.5-0.4-0.6-0.4-0.9c0-0.6,0.5-1,1-1c0.6,0,0.9,0.4,1.8,2.2
			c1.2,2.4,2,5.3,2.1,5.8C332.8,31.1,332.1,31.5,331.6,31.5z"/>
		<path class="st3" d="M342,33.8c0,1,0,1.7-1,1.7c-1.1,0-1.1-0.8-1.1-1.7v-9.2c-0.8,1.3-1.1,1.8-1.7,1.8c-0.4,0-1-0.3-1-0.9
			c0-0.3,0.2-0.6,0.2-0.6c1.7-2.9,2.1-3.7,3.7-7.8c0.2-0.5,0.4-0.9,1-0.9c0.2,0,1,0.1,1,1c0,0.8-0.7,2.5-1,3.4v13.2H342z
			 M352.8,21.1h2.2c0.6,0,1.5,0.3,1.5,1.9v10.4c0,1.6-1.1,1.9-1.5,1.9h-10c-0.6,0-1.5-0.3-1.5-1.9V23c0-1.6,1.1-1.9,1.5-1.9h2.2
			v-2.4h-2c-0.8,0-1.7,0-1.7-1s0.9-1,1.7-1h10.2c0.8,0,1.7,0,1.7,1s-0.9,1-1.7,1h-2.5v2.4H352.8z M347.2,23.2h-1
			c-0.4,0-0.5,0.3-0.5,0.6v8.9c0,0.4,0.2,0.6,0.5,0.6h1V23.2z M350.9,18.7h-1.6v2.4h1.6V18.7z M349.2,33.2h1.6v-10h-1.6V33.2z
			 M352.8,33.2h1.1c0.3,0,0.5-0.2,0.5-0.6v-8.9c0-0.3-0.1-0.6-0.5-0.6h-1.1V33.2z"/>
		<path class="st3" d="M378.7,17.8c0.7,0,1.7,0.4,1.7,1.7c0,1.6-2.4,3.9-3.4,4.6c1.9,1.1,3.4,1.5,4.2,1.7c0.3,0.1,0.9,0.2,0.9,1
			c0,0.2-0.1,1.1-1.1,1.1c-0.5,0-3.1-0.6-5.8-2.4c-2.1,1.4-4.9,2.7-5.5,2.7c-0.1,0-0.4,0-0.7-0.3c-0.1,0-0.2,0.1-0.4,0.1
			c-0.5,0-0.8-0.4-1.4-1.2V34c0,0.9,0,1.7-1,1.7s-1-0.8-1-1.7v-6.1c-0.7,1.7-1.2,2.4-1.3,2.6c-0.1,0.2-0.4,0.6-1,0.6
			c-0.4,0-1.1-0.4-1.1-1.1c0-0.4,0.2-0.6,0.6-1.4c1-1.7,1.9-3.4,2.5-6.4h-1.1c-0.8,0-1.7,0-1.7-1s0.9-1,1.7-1h1.4v-2.4
			c0-0.9,0-1.7,1-1.7s1,0.7,1,1.7v2.4c1.3,0,1.5,0,1.8,0.5c1.1-0.9,1.8-1.5,2.8-3.2c0.7-1.1,0.9-1.4,1.5-1.4c0.4,0,1.1,0.3,1.1,1
			c0,0.2-0.1,0.4-0.1,0.6h4.4V17.8z M367.2,22.9c0.2,0.7,0.5,1.3,1.3,2.3c0.1,0.1,0.6,0.7,0.7,0.9c0.3-0.1,1.5-0.7,1.8-0.8
			c1.3-0.6,2.1-1.1,2.5-1.3c-0.6-0.6-1.4-1.3-1.9-2.5c-0.7,0.7-1.6,1.5-2.2,1.5c-0.3,0-0.7-0.1-1-0.7c-0.2,0-0.3,0-1.1,0L367.2,22.9
			L367.2,22.9z M372,35.2c-1.7,0-1.7-1.3-1.7-1.7v-4.3c0-0.4,0-1.7,1.7-1.7h6.9c1.7,0,1.7,1.3,1.7,1.7v4.3c0,0.4,0,1.7-1.7,1.7H372z
			 M372.4,32.8c0,0.3,0.1,0.4,0.3,0.4h5.2c0.2,0,0.4-0.1,0.4-0.4V30c0-0.2-0.1-0.4-0.4-0.4h-5.2c-0.2,0-0.3,0.2-0.3,0.4V32.8z
			 M373.2,19.8c0,0-0.1,0.2-0.2,0.2c0.8,1.4,1.6,2.2,2.3,2.8c0.2-0.1,0.6-0.5,0.9-0.8c1-0.9,1.6-1.9,1.6-2.1c0-0.1-0.1-0.2-0.3-0.2
			L373.2,19.8L373.2,19.8z"/>
	</g>
</g>
</svg>
