<?xml version="1.0" encoding="utf-8"?>
<!-- Generator: Adobe Illustrator 22.1.0, SVG Export Plug-In . SVG Version: 6.00 Build 0)  -->
<svg version="1.1" id="レイヤー_1" xmlns="http://www.w3.org/2000/svg" xmlns:xlink="http://www.w3.org/1999/xlink" x="0px"
	 y="0px" viewBox="0 0 759 51.8" style="enable-background:new 0 0 759 51.8;" xml:space="preserve">
<style type="text/css">
	.st0{fill:#FFDD00;}
	.st1{fill:#004EA1;}
	.st2{fill:#F98A00;}
	.st3{fill:#FFFFFF;}
</style>
<path class="st0" d="M741.6,43.5H26.3c-9.6,0-17.4-7.8-17.4-17.5l0,0c0-9.6,7.8-17.5,17.4-17.5h715.2c9.6,0,17.4,7.8,17.4,17.5l0,0
	C759,35.7,751.2,43.5,741.6,43.5z"/>
<g>
	<g>
		<path class="st1" d="M82.8,27.6c0,4.7-3.3,7.4-7.3,7.4c-4.5,0-7.1-3.6-7.1-7.2c0-4.5,3.4-6.9,4.3-7.6c-1.6,0.6-3.7,1-4.3,1
			c-1,0-1.1-0.9-1.1-1.2c0-1,0.6-1.1,2.2-1.2c1-0.1,2.4-0.4,3.3-0.6c0.3-0.1,1.9-0.4,2.1-0.4c0.5,0,1.1,0.4,1.1,1.3
			c0,0.8-0.3,1-1.1,1.5c-1.8,1.3-4.1,4-4.1,7.2c0,2.6,1.6,4.9,4.6,4.9c1.7,0,5.1-1,5.1-5.5c0-3.5-1.3-5.6-2.1-6.8
			c-0.5-0.8-0.8-1.3-0.8-1.8c0-0.4,0.3-1.2,1.2-1.2c0.7,0,0.8,0.1,1.8,1.5c1.2,1.7,2.4,2.3,4.4,3.2c0.4,0.2,0.9,0.4,0.9,1.1
			c0,0.4-0.3,1.4-1.2,1.4c-0.5,0-0.8-0.1-3-1.9C82.2,23.9,82.8,25.4,82.8,27.6z"/>
		<path class="st1" d="M97.4,20.3c-0.8-1.7-1-2.3-1-2.6c0-0.6,0.5-1.1,1.2-1.1c0.8,0,1.1,0.6,1.4,1.3c0.5,1.1,1.4,3.5,2.2,5.6
			c1-0.4,1.8-0.7,2.6-0.9c1.5-0.5,1.8-0.5,2.3-0.5c1.2,0,1.3,1,1.3,1.2c0,0.6-0.5,0.9-0.6,1c-0.3,0.1-1.8,0.5-2.1,0.6
			c-5.8,1.7-8.4,3.3-8.4,5.5c0,2.4,2.9,2.5,5.1,2.5c2.3,0,4.5-0.4,4.8-0.5c0.1,0,1.4-0.3,1.5-0.3c0.3,0,1,0.2,1,1.1
			c0,0.7-0.4,1-1.4,1.3c-1.4,0.3-3.8,0.7-6.1,0.7c-1.8,0-4.1-0.1-5.5-1.2c-1.7-1.3-1.8-2.7-1.8-3.5c0-3,2.4-4.7,5.4-6
			C98.7,23.3,97.9,21.4,97.4,20.3z"/>
		<path class="st1" d="M121.9,18.7c0,0.2-0.4,3-0.4,3.5c-0.1,0.8-0.2,2.2-0.2,2.6c0,0.4,0,1.9,0.8,1.9c0.4,0,0.6-0.3,1-0.6
			c0.4-0.4,0.6-0.5,0.8-0.5c0.7,0,1.1,0.5,1.1,1.2c0,1.1-1.7,2.6-3.3,2.6c-2.4,0-2.6-3.3-2.6-4.5c0-2.2,0.3-5,0.5-6
			c0.1-0.4,0.2-1,0.9-1.1C120.9,17.7,121.9,17.7,121.9,18.7z M127.5,33.7c-1.5,0.8-3.6,1.5-4.4,1.5c-0.9,0-1.2-0.8-1.2-1.3
			c0-0.8,0.4-0.9,1.7-1.2c6.2-1.4,6.2-4.9,6.2-7.8c0-1.4-0.1-3.3-0.3-4.4c0-0.2-0.1-1-0.1-1.5c0-0.7,0.6-1.2,1.3-1.2
			c0.6,0,0.9,0.4,0.9,0.5c0.3,0.6,0.6,4.3,0.6,5.1C132.3,28.2,132.3,31.2,127.5,33.7z"/>
		<path class="st1" d="M156.7,27.6c0,4.7-3.3,7.4-7.3,7.4c-4.5,0-7.1-3.6-7.1-7.2c0-4.5,3.4-6.9,4.3-7.6c-1.6,0.6-3.7,1-4.3,1
			c-1,0-1.1-0.9-1.1-1.2c0-1,0.6-1.1,2.2-1.2c1-0.1,2.4-0.4,3.3-0.6c0.3-0.1,1.9-0.4,2.1-0.4c0.5,0,1.1,0.4,1.1,1.3
			c0,0.8-0.3,1-1.1,1.5c-1.8,1.3-4.1,4-4.1,7.2c0,2.6,1.6,4.9,4.6,4.9c1.7,0,5.1-1,5.1-5.5c0-3.5-1.3-5.6-2.1-6.8
			c-0.5-0.8-0.8-1.3-0.8-1.8c0-0.4,0.3-1.2,1.2-1.2c0.7,0,0.8,0.1,1.8,1.5c1.2,1.7,2.4,2.3,4.4,3.2c0.4,0.2,0.9,0.4,0.9,1.1
			c0,0.4-0.3,1.4-1.2,1.4c-0.5,0-0.8-0.1-3-1.9C156.1,23.9,156.7,25.4,156.7,27.6z"/>
		<path class="st1" d="M171.3,20.3c-0.8-1.7-1-2.3-1-2.6c0-0.6,0.5-1.1,1.2-1.1c0.8,0,1.1,0.6,1.4,1.3c0.5,1.1,1.4,3.5,2.2,5.6
			c1-0.4,1.8-0.7,2.6-0.9c1.5-0.5,1.8-0.5,2.3-0.5c1.2,0,1.3,1,1.3,1.2c0,0.6-0.5,0.9-0.6,1c-0.3,0.1-1.8,0.5-2.1,0.6
			c-5.8,1.7-8.4,3.3-8.4,5.5c0,2.4,2.9,2.5,5.1,2.5c2.3,0,4.5-0.4,4.8-0.5c0.1,0,1.4-0.3,1.5-0.3c0.3,0,1,0.2,1,1.1
			c0,0.7-0.4,1-1.4,1.3c-1.4,0.3-3.8,0.7-6.1,0.7c-1.8,0-4.1-0.1-5.5-1.2c-1.7-1.3-1.8-2.7-1.8-3.5c0-3,2.4-4.7,5.4-6
			C172.6,23.3,171.8,21.4,171.3,20.3z"/>
		<path class="st1" d="M193.3,18.7c0,0.2-0.4,3-0.4,3.5c-0.1,0.8-0.2,2.2-0.2,2.6c0,0.4,0,1.9,0.8,1.9c0.4,0,0.6-0.3,1-0.6
			c0.4-0.4,0.6-0.5,0.8-0.5c0.7,0,1.1,0.5,1.1,1.2c0,1.1-1.7,2.6-3.3,2.6c-2.4,0-2.6-3.3-2.6-4.5c0-2.2,0.3-5,0.5-6
			c0.1-0.4,0.2-1,0.9-1.1C192.2,17.7,193.3,17.7,193.3,18.7z M198.8,33.7c-1.5,0.8-3.6,1.5-4.4,1.5c-0.9,0-1.2-0.8-1.2-1.3
			c0-0.8,0.4-0.9,1.7-1.2c6.2-1.4,6.2-4.9,6.2-7.8c0-1.4-0.1-3.3-0.3-4.4c0-0.2-0.1-1-0.1-1.5c0-0.7,0.6-1.2,1.3-1.2
			c0.6,0,0.9,0.4,0.9,0.5c0.3,0.6,0.6,4.3,0.6,5.1C203.6,28.2,203.6,31.2,198.8,33.7z"/>
		<path class="st1" d="M215.8,28.5c0.2,0,0.8,0.1,0.8,0.8c0,0.3-0.6,1.7-0.7,1.9c-0.2,0.6-0.2,0.9-0.4,2.2c-0.1,0.6-0.2,1.3-1.2,1.3
			c-0.7,0-1-0.3-1.3-0.9c-0.5-1-0.9-3.7-0.9-6.7c0-2.6,0.4-5.8,1.3-8.2c0.1-0.3,0.4-1,1.2-1c0.5,0,1.3,0.3,1.3,1.1
			c0,0.3-0.1,0.5-0.2,0.9c-1,2.6-1.3,5.2-1.3,7.8c0,0.5,0,1.6,0.1,2.4C214.8,29.4,215.1,28.5,215.8,28.5z M220.6,29.6
			c0,0.2-0.2,1.1-0.2,1.3c0,1.1,2.6,1.2,3.9,1.2c0.5,0,2.5-0.1,2.9-0.1c0.3,0,1.4,0,1.4,1.1c0,1.1-0.8,1.3-4.2,1.3
			c-1.8,0-6.4-0.1-6.4-3.4c0-0.1,0-2.4,1.4-2.4C220,28.6,220.6,29,220.6,29.6z M219.5,19.4c0.3,0,1.7,0.1,2,0.1
			c1.1,0,2.7-0.1,3.5-0.1c0.2,0,1.3-0.1,1.5-0.1s1.3,0,1.3,1.1c0,1-0.9,1.1-1.2,1.2c-1.1,0.2-4.3,0.3-5.5,0.3c-2,0-2.9,0-2.9-1.3
			C218.2,20.4,218.2,19.4,219.5,19.4z"/>
		<path class="st1" d="M244.6,34.6c0,0.8,0,1.7-1,1.7s-1-0.8-1-2c-2.4,0.4-4.7,0.5-5.8,0.5c-1.2,0-1.8,0-1.8-0.9
			c0-0.9,0.6-0.9,1.8-1v-7c-1,0-1.7,0-1.7-0.8c0-0.8,0.8-0.8,1.7-0.8h15.9c0.8,0,1.7,0,1.7,0.8c0,0.8-0.9,0.8-1.7,0.8h-7.9V34.6z
			 M236.9,18.9c0-1.7,0.6-1.8,2-1.8h11.1c1.4,0,2,0.1,2,1.8v2.8c0,1.7-0.6,1.8-2,1.8H239c-1.4,0-2-0.1-2-1.8V18.9z M242.5,26h-3.9
			V27h3.9V26z M242.5,28.7h-3.9v1.1h3.9V28.7z M242.5,31.5h-3.9v1.4c2-0.1,3.3-0.3,3.9-0.3V31.5z M250.1,19.6c0-0.7,0-0.8-0.7-0.8
			h-9.7c-0.7,0-0.7,0.1-0.7,0.8H250.1z M239,21c0,0.8,0,0.8,0.7,0.8h9.7c0.7,0,0.7-0.1,0.7-0.8H239z M251.6,26.8
			c0.7,0,1.8,0,1.8,1.4c0,0.3-0.2,2.5-2.1,4.6c0.5,0.3,1.7,0.9,2.5,1.3c0.4,0.2,0.6,0.4,0.6,0.8s-0.3,1.1-0.9,1.1
			c-0.5,0-2.1-0.5-3.8-1.8c-1.4,1-3.1,1.8-3.7,1.8c-0.3,0-1-0.3-1-1c0-0.2,0-0.6,0.7-0.9c1.6-0.7,1.8-0.8,2.4-1.2
			c-0.9-1-1.7-2.4-2.1-4.1c-0.6-0.1-0.8-0.6-0.8-0.9c0-0.9,1-0.9,1.7-0.9H251.6z M247.9,28.7c0.3,1.1,0.9,2.1,1.7,2.9
			c0.7-0.7,1.5-1.9,1.5-2.6c0-0.3-0.2-0.3-0.9-0.3H247.9z"/>
		<path class="st1" d="M262.2,27.6c0-0.4-0.1-0.7-0.6-0.7h-0.6c-0.8,0-1.7,0-1.7-0.9c0-1,1-1,1.7-1h1.8c0.1,0,1.3,0,1.3,1.6V32
			c0,0.7,0.4,1.9,2.3,1.9h10.8c1.1,0,1.7,0,1.7,0.9c0,0.9-0.7,0.9-1.7,0.9h-11c-2,0-2.8-0.7-3.3-1.4c-0.6,0.6-2.1,1.9-2.7,1.9
			c-0.7,0-1.1-0.7-1.1-1.1c0-0.5,0.1-0.6,1.1-1.3c0.7-0.5,1.4-1.1,2-1.7V27.6z M262.9,21.5c-0.5,0-0.6-0.1-1.7-1.6
			c-0.2-0.2-1-1.2-1.1-1.4c-0.1-0.1-0.2-0.3-0.2-0.6c0-0.5,0.4-1,1-1c0.4,0,0.6,0,1.9,1.7c1.1,1.3,1.1,1.5,1.1,1.8
			C263.9,21.1,263.4,21.5,262.9,21.5z M270.8,24v-1.3h-3.3c-0.4,0-0.5,0.1-0.5,0.5v8.4c0,1,0,1.7-0.9,1.7c-0.9,0-0.9-1-0.9-1.7v-9.1
			c0-1.6,1.1-1.6,1.7-1.6h1.2c-0.2-0.6-0.3-0.7-0.6-1.3h-1.1c-0.8,0-1.7,0-1.7-0.8c0-0.8,0.8-0.8,1.7-0.8h4.2v-0.4
			c0-0.3,0-1.3,1.1-1.3c1.1,0,1.1,0.8,1.1,1.7h4.5c0.8,0,1.7,0,1.7,0.8c0,0.8-0.8,0.8-1.7,0.8H276c-0.1,0.3-0.2,0.6-0.4,1.3h1.4
			c1.1,0,1.6,0.1,1.6,1.6v8.3c0,0.8,0,2.4-2.1,2.4c-0.1,0-2.4,0-2.4-1.2c0-0.1,0-0.2,0-0.3h-4.3c-0.4,0-1.5,0-1.5-1.1V28
			c0-0.9,0.7-1.1,1.5-1.1h1.1v-1.3h-1.6c-0.8,0-1.6,0-1.6-0.8c0-0.8,0.8-0.8,1.6-0.8H270.8z M269.6,19.7c0.2,0.5,0.4,0.9,0.5,1.3
			h3.3c0.2-0.5,0.3-0.9,0.5-1.3H269.6z M270.4,28.5c-0.2,0-0.4,0.1-0.4,0.3v1c0,0.2,0,0.4,0.4,0.4h2.8c0.3,0,0.3-0.2,0.3-0.4v-0.8
			c0-0.3-0.2-0.4-0.4-0.4H270.4z M273.7,26.9c0.8,0,1.5,0.2,1.5,1.1v2.7c0,0.2,0,0.3-0.1,0.4c0.2,0,0.9,0.2,1.1,0.2
			c0.4,0,0.4-0.2,0.4-0.4v-7.7c0-0.2,0-0.4-0.4-0.4h-3.5V24h1.7c0.8,0,1.7,0,1.7,0.8c0,0.8-0.8,0.8-1.7,0.8h-1.7v1.3H273.7z"/>
		<path class="st1" d="M289.2,17.9c0.2-0.4,0.6-0.6,1-0.6c1.2,0,1.3,0.8,1.3,1.3c0,0.1,0,1-0.3,2.3c0.3,0,1.7-0.1,2-0.1
			c1,0,1.3,0.6,1.3,1.2c0,0.9-0.7,1.1-0.9,1.1c-0.4,0.1-1.3,0.1-2.9,0.2c-1,3.7-2.4,5.9-2.9,6.7c-0.5,0.7-1,1.4-1.8,1.4
			c-0.5,0-1.2-0.4-1.2-1.1c0-0.5,0.1-0.6,1-1.8c0.1-0.2,1.7-2.5,2.5-5.1c-0.3,0-1.8,0.1-2,0.1c-0.4,0-1.4,0-1.4-1.1
			c0-0.2,0-1.1,1.3-1.2c0.1,0,2.3-0.1,2.6-0.1C288.9,20.5,289.1,18.2,289.2,17.9z M295.8,25.7c0-0.7-0.1-1.8,1.2-1.8
			c1.2,0,1.2,1.1,1.2,1.7v3.3c1.4,0.6,4,2,4,3.2c0,0.6-0.6,1.2-1.2,1.2c-0.4,0-0.6-0.2-1.1-0.6c-0.6-0.5-1.1-0.9-1.7-1.2
			c0,0.9-0.1,3.6-4.2,3.6c-2.7,0-4.4-1.6-4.4-3.5c0-2,1.7-3.6,4.6-3.6c0.8,0,1.4,0.1,1.7,0.2L295.8,25.7z M294.2,30.3
			c-1.4,0-2.2,0.6-2.2,1.4c0,0.4,0.2,1.2,1.8,1.2c2.3,0,2.2-1.4,2.2-2.1C295.6,30.5,295.1,30.3,294.2,30.3z M302,24.9
			c-0.4,0-0.6-0.2-1.3-0.7c-1.4-1-1.6-1.2-3.9-2.4c-0.4-0.2-0.9-0.5-0.9-1.1c0-0.4,0.3-1.2,1.1-1.2c0.8,0,3,1.5,4,2.1
			c1.4,1,2,1.4,2,2C303.1,24.3,302.5,24.9,302,24.9z"/>
		<path class="st1" d="M310.6,30.2c-0.8,0-1.7,0-1.7-1c0-1,0.9-1,1.7-1h6.7c-0.8-1-0.9-1.1-0.9-1.4c0-0.5,0.4-1,0.9-1
			c0.5,0,1.2,0.6,2,1.6c0.8-0.6,2.3-1.8,2.3-2.1c0-0.2-0.2-0.2-0.4-0.2h-7c-0.8,0-1.7,0-1.7-1c0-1,0.9-1,1.7-1h8.7
			c0.9,0,1.5,0.5,1.5,1.4c0,1.1-1.1,2.6-2.8,3.7h4.9c0.8,0,1.7,0,1.7,1c0,1-0.9,1-1.7,1h-5.8c0.2,0.7,0.4,1.5,0.4,2.3
			c0,2.8-2.1,3.7-4,3.7c-1.3,0-3.8-0.3-3.8-1.5c0-0.1,0-1.1,1.1-1.1c0.3,0,0.7,0.1,0.9,0.2c1,0.3,1.6,0.3,2,0.3
			c1.9,0,1.9-1.7,1.9-1.8c0-0.4-0.2-1.1-0.6-2.1H310.6z M317.4,19.7c-0.2-0.4-1-2-1-2.4s0.4-0.9,1-0.9c0.6,0,0.9,0.5,1,0.8
			c0.6,1.1,0.8,1.5,0.8,1.9c0,0.3-0.1,0.4-0.1,0.5h2.7c0.6-0.9,1-1.6,1.4-2.4c0.2-0.3,0.4-0.7,0.9-0.7c0.6,0,1.1,0.5,1.1,1
			c0,0.5-0.4,1.2-1.1,2.2h2.1c0.9,0,1.4,0.6,1.4,1.3v2.6c0,0.8,0,1.7-1,1.7c-1,0-1-0.9-1-1.7v-1.1c0-0.6-0.1-0.7-0.6-0.7h-13.2
			c-0.4,0-0.6,0-0.6,0.7v1.2c0,0.8,0,1.7-1,1.7c-1,0-1-0.9-1-1.7v-2.3c0-0.8,0.6-1.6,1.7-1.6h1.9c-0.1-0.2-0.7-1.2-0.9-1.4
			c-0.2-0.3-0.3-0.5-0.3-0.7c0-0.6,0.4-1,0.9-1c1.2,0,2.2,2.5,2.2,2.8c0,0.2-0.1,0.3-0.1,0.4H317.4z"/>
		<path class="st1" d="M335.1,23.3c1.3-0.3,2.9-0.8,3.5-1.1c0.6-0.3,0.8-0.4,1.1-0.4c0.7,0,0.9,0.7,0.9,1c0,0.4-0.5,0.8-1.7,1.3
			c-1.4,0.6-3.6,1.2-4.2,1.2c-0.7,0-0.9-0.5-0.9-1.1C333.6,23.6,334.6,23.4,335.1,23.3z M341.2,17.1c1.4,0,1.4,0.9,1.4,1.4v6.3
			c0,1.3-0.8,1.6-2.7,1.6c-1,0-1.9-0.1-1.9-0.9s0.6-0.9,1.8-0.9c0.8,0,0.8,0,0.8-0.6v-4.3c0-0.4-0.1-0.6-0.6-0.6h-4.5
			c-0.7,0-1.7,0-1.7-1c0-1,0.9-1,1.7-1H341.2z M338.2,20.4c0.2,0.1,0.8,0.3,0.8,1c0,0.6-0.5,0.8-0.9,0.8c-0.2,0-2.6-0.8-3-1
			c-0.3-0.1-0.8-0.4-0.8-1c0-0.7,0.7-0.8,0.8-0.8C335.9,19.4,337.9,20.2,338.2,20.4z M349.5,27c1.2,0,1.7,0.5,1.7,1.4v5.8
			c0,0.9-0.5,1.4-1.7,1.4h-12.6c-1.2,0-1.7-0.5-1.7-1.4v-5.8c0-0.9,0.5-1.4,1.7-1.4h5.1c0.1-0.2,0.6-1.3,0.7-1.5
			c0.2-0.3,0.5-0.4,0.8-0.4c0.5,0,0.9,0.4,0.9,0.9c0,0.4-0.2,0.8-0.3,1.1H349.5z M349,30.3v-0.9c0-0.3,0-0.5-0.7-0.5h-10.4
			c-0.7,0-0.7,0.3-0.7,0.5v0.9H349z M337.2,32.1v1c0,0.3,0,0.5,0.7,0.5h10.4c0.7,0,0.7-0.3,0.7-0.5v-1H337.2z M350.9,17.1
			c1.4,0,1.4,1.1,1.4,1.5v6.1c0,1.3-0.5,1.7-2.6,1.7c-1.5,0-2.4-0.1-2.4-1c0-0.4,0.3-0.8,0.9-0.8c0.1,0,0.8,0.1,0.9,0.1
			c1.1,0,1.1-0.3,1.1-0.7v-4.4c0-0.3-0.2-0.5-0.5-0.5h-4.8c-0.7,0-1.7,0-1.7-1c0-1,0.9-1,1.7-1H350.9z M343.5,24c0-0.8,0.7-1,1.1-1
			c1.4-0.3,1.6-0.4,4-1.3c0.1,0,0.4-0.1,0.6-0.1c0.4,0,0.9,0.4,0.9,0.9c0,0.6-0.5,0.9-1,1.1c-0.6,0.3-3.7,1.4-4.7,1.4
			C343.9,24.9,343.5,24.5,343.5,24z M347.8,20.1c0.1,0,0.5,0.2,0.5,0.8c0,0.3-0.1,0.9-0.8,0.9c-0.3,0-1.6-0.4-1.8-0.5
			c-1.4-0.3-1.8-0.4-1.8-1.1c0-0.7,0.6-0.9,0.9-0.9C345.5,19.3,347.7,20.1,347.8,20.1z"/>
		<path class="st1" d="M373.2,21.5c2.3,0,2.3,1.6,2.3,3.3c0,2.5-0.3,6.1-0.8,7.4c-0.8,2-1.8,2.8-3.2,2.8c-1,0-1.9-0.3-2.9-1
			c-0.5-0.3-0.8-0.6-0.8-1.2c0-0.6,0.5-1.2,1.2-1.2c0.3,0,0.5,0.1,0.8,0.3c0.8,0.4,1.3,0.6,1.6,0.6c1.9,0,1.9-6.2,1.9-7.4
			c0-1.1,0-1.2-0.9-1.2H368c-0.1,2.4-0.4,6.6-5,10.1c-0.6,0.5-1.7,1.2-2.4,1.2c-0.9,0-1.2-0.8-1.2-1.2c0-0.6,0.3-0.7,1.1-1.2
			c4.8-2.7,5.1-6.3,5.3-8.9h-4.5c-0.8,0-1.7,0-1.7-1.2c0-1.1,0.9-1.1,1.7-1.1h4.5c0-0.5-0.1-2.7-0.1-3.1c0-0.3,0-1.2,1.2-1.2
			c1,0,1.1,0.7,1.1,0.9c0.1,0.5,0.1,0.8,0.1,3.4H373.2z"/>
		<path class="st1" d="M385.7,26.2c0,0.8,0,1.7-1.2,1.7c-1.2,0-1.2-0.9-1.2-1.7v-6.9c0-0.8,0-1.7,1.2-1.7c1.2,0,1.2,0.9,1.2,1.7
			V26.2z M395.5,26.5c0,1.3,0,3.8-2,5.8c-2.3,2.4-5.6,2.9-6.5,2.9c-0.2,0-1.3,0-1.3-1.2c0-1,0.8-1.1,1.4-1.2c3.1-0.4,4.6-1.7,5.3-3
			c0.2-0.4,0.6-1.1,0.6-3.7v-6.7c0-0.7,0-1.7,1.2-1.7c1.2,0,1.2,0.9,1.2,1.7V26.5z"/>
		<path class="st1" d="M410.5,19c0-0.5-0.1-0.6-0.1-0.7c0-1.1,1.1-1.1,1.3-1.1c1,0,1.1,0.8,1.2,1.6l0.3,2.5l5.5-0.2
			c0.8,0,1.7,0,1.7,1.2c0,1.1-0.8,1.1-1.7,1.1l-5.3,0.2l0.3,3.4l5.8-0.2c0.8,0,1.7-0.1,1.7,1.3c0,1.1-1,1.1-1.7,1.1l-5.6,0.2
			l0.4,4.2c0,0.5,0.1,0.5,0.1,0.6c0,1.2-1,1.2-1.3,1.2c-1.1,0-1.2-0.8-1.3-1.6l-0.4-4.4l-6.4,0.2c-0.8,0-1.8,0-1.8-1.2
			c0-1.2,0.8-1.2,1.7-1.2l6.2-0.2l-0.4-3.4l-5.2,0.2c-0.9,0-1.8,0.1-1.8-1.2c0-1.1,0.8-1.1,1.7-1.2l5.1-0.2L410.5,19z"/>
		<path class="st1" d="M442.1,31.7c0.8,0,1.7,0,1.7,1c0,1-0.9,1-1.7,1H432c-0.8,0-1.7,0-1.7-1c0-1,0.9-1,1.7-1h5.9
			c0.3-1.2,0.8-5.3,0.8-6.3c0-0.3,0-0.4-0.7-0.4h-4.5c-0.7,0-1.7,0-1.7-1c0-1,1-1,1.7-1h5.2c1.7,0,2,0.8,2,1.8
			c0,0.6-0.3,3.2-0.9,6.7H442.1z"/>
		<path class="st1" d="M463.3,23.4c0.8,0,0.9,0,1.1,0c0.5,0.1,1.4,0.5,1.4,2.1c0,3.2-2.3,6.5-6.2,8.3c-2.5,1.1-4.5,1.2-4.8,1.2
			c-1.1,0-1.2-1-1.2-1.2c0-1,0.7-1.1,1.6-1.2c1.3-0.2,4.8-0.6,7-3.7c0.8-1.1,1.1-2.3,1.1-2.7c0-0.3-0.1-0.3-0.8-0.3h-10.4
			c-0.9,0-1.7,0-1.7-1.2c0-1.1,0.9-1.1,1.7-1.1H463.3z M453.3,20.5c-0.7,0-1.7,0-1.7-1.2c0-1.2,1-1.2,1.7-1.2h10
			c0.7,0,1.7,0,1.7,1.2c0,1.2-1,1.2-1.7,1.2H453.3z"/>
		<path class="st1" d="M478.2,19.4c0.2-1,0.4-1.8,1.4-1.8c0.2,0,1.2,0,1.2,1.2c0,0.6-0.7,4.3-4.2,12c1.4-0.2,4.9-0.7,8.1-1.8
			c-0.2-0.4-1.5-2.6-1.7-3.1c-0.1-0.3-0.3-0.5-0.3-0.8c0-0.5,0.5-1.1,1.3-1.1c0.7,0,0.9,0.3,2.1,2.5c0.8,1.4,3.2,5.6,3.2,6.8
			c0,0.8-0.7,1.2-1.3,1.2c-0.4,0-0.7-0.2-0.9-0.5c-0.1-0.2-1.1-2.4-1.3-2.8c-2.4,0.8-10.7,2.5-13.2,2.5c-1.4,0-1.4-1.1-1.4-1.3
			c0-1.1,0.8-1.2,2.6-1.3C475.8,27.3,477.3,23.5,478.2,19.4z"/>
		<path class="st1" d="M503.4,17.5c0.2-0.4,0.5-0.6,1-0.6c0.5,0,1.4,0.3,1.4,1.1c0,0.5-0.4,1.7-0.6,2.1c1.7,0,3-0.1,3.8-0.2
			c0.2,0,1.2-0.1,1.4-0.1c0.7,0,1.1,0.5,1.1,1.1c0,0.8-0.4,1-0.7,1c-0.5,0.2-1.1,0.2-6.6,0.3c-0.6,1-0.8,1.4-1.3,2.1
			c0.3-0.2,1.1-0.6,2.2-0.6c1.4,0,2.2,0.9,2.6,1.9c2.7-1,3.9-1.5,4.5-1.5c0.9,0,1.2,0.7,1.2,1.3c0,0.5-0.2,0.8-0.7,1
			c-0.7,0.3-3.9,1.4-4.6,1.6c0.1,2.5,0,3.3-1.1,3.3s-1.1-0.8-1.1-1.3c0-0.2,0-1,0-1.1c-1.4,0.7-2.6,1.3-2.6,2.2
			c0,1.3,1.7,1.5,3.8,1.5c1.5,0,2.4-0.1,3-0.2c0.2,0,0.6-0.1,0.8-0.1c1.1,0,1.1,1,1.1,1.2c0,0.6-0.3,0.9-0.6,1
			c-0.9,0.4-3,0.3-4.6,0.3c-1.3,0-5.8-0.1-5.8-3.6c0-2.5,2.4-3.7,4.7-4.8c-0.3-0.6-0.8-0.7-1.5-0.7c-1.8,0-2.7,0.8-4.9,2.8
			c-0.3,0.2-1,0.9-1.5,0.9c-0.7,0-1.2-0.6-1.2-1.2c0-0.3,0-0.5,1.1-1.4c1.9-1.7,3.1-2.7,4.1-4.7c-0.6,0-3.2-0.1-3.5-0.1
			c-0.3-0.1-0.8-0.4-0.8-1.1c0-0.7,0.3-1.2,1.1-1.2c0.4,0,3.5,0.2,4.2,0.2C502.7,19.7,503.2,17.9,503.4,17.5z"/>
		<path class="st1" d="M525,28.4c0,0.3-0.2,0.6-0.3,0.9c-0.3,0.4-0.4,0.7-0.4,1c0,1.8,4.5,2.1,6.3,2.1c1.8,0,3.1-0.3,4.4-0.5
			c0.1,0,1-0.2,1.2-0.2c0.6,0,1.1,0.5,1.1,1.2c0,0.4-0.3,1-0.8,1.2c-0.4,0.2-2.5,0.7-5.7,0.7c-2.9,0-9-0.5-9-4.3
			c0-1.2,1-2.6,1.1-2.7c0.3-0.2,0.5-0.4,0.9-0.3C524.7,27.5,525,28,525,28.4z M526,21.1c-2.6,0-3.3-0.1-3.3-1.3
			c0-0.5,0.2-1.2,1.1-1.2c0.3,0,3.8,0.2,4.6,0.2c2,0,4.2-0.3,4.5-0.4c1.3-0.2,1.5-0.2,1.7-0.2c0.7,0,1.3,0.7,1.3,1.4
			c0,0.5-0.1,0.6-1.8,1.9c-1.9,1.4-2.3,1.7-2.7,1.7c-0.7,0-0.9-0.6-0.9-1c0-0.4,0.3-0.6,0.6-0.8c0.1-0.1,0.6-0.4,0.7-0.5
			C528.6,21.1,527.9,21.1,526,21.1z M537.6,18.3c0.4,0.5,0.7,1.1,0.7,1.6c0,0.6-0.5,0.6-0.6,0.6c-0.5,0-0.6-0.1-1.1-1.4
			c-0.2-0.5-0.4-0.9-0.7-1.4c0,0-0.1-0.2-0.1-0.4c0-0.3,0.3-0.4,0.5-0.4C536.6,16.9,537.3,17.9,537.6,18.3z M540.1,19
			c0,0.4-0.3,0.7-0.6,0.7c-0.4,0-0.5-0.1-1-1.3c-0.2-0.4-0.3-0.5-0.8-1.4c-0.1-0.2-0.2-0.4-0.2-0.6c0-0.3,0.2-0.5,0.4-0.5
			C538.4,16,540.1,18.4,540.1,19z"/>
		<path class="st1" d="M553.1,29.5H548c0,0.6-0.1,2.9-1.1,5c-0.4,0.9-0.6,1.3-1.3,1.3c-0.5,0-1.2-0.3-1.2-1.1c0-0.3,0.1-0.4,0.4-1.1
			c1-2.1,1-4.5,1-4.8V18.9c0-1.1,0.4-1.8,1.7-1.8h13.7c0.3,0,1.6,0.1,1.6,1.8v14.5c0,1.1,0,2.6-2.8,2.6c-2,0-3.4-0.2-3.4-1.3
			c0-0.6,0.5-1,1-1c0.3,0,1.8,0.3,2.2,0.3c0.9,0,0.9-0.4,0.9-0.8v-3.5h-5.5V34c0,0.8,0,1.7-1.1,1.7c-1.1,0-1.1-0.8-1.1-1.7V29.5z
			 M553.1,19.1h-4.6c-0.1,0-0.5,0-0.5,0.5v2.6h5.1V19.1z M553.1,24.2H548v3.2h5.1V24.2z M555.3,22.2h5.5v-2.5c0-0.2,0-0.6-0.5-0.6
			h-5V22.2z M555.3,27.4h5.5v-3.2h-5.5V27.4z"/>
		<path class="st1" d="M570.3,33c0.2-0.4,0.6-1.2,0.7-1.4c0.2-0.3,0.5-0.3,0.7-0.3c0.7,0,1,0.6,1,1c0,0.5-0.6,1.5-0.8,1.8
			c-0.9,1.6-1.3,1.6-1.6,1.6c-0.5,0-1.1-0.3-1.1-0.9C569.3,34.4,570,33.4,570.3,33z M577.7,17.8v-0.3c0-0.7,0.4-1.1,1.1-1.1
			c0.6,0,1.1,0.3,1.1,1.1v0.4h6c0.9,0,1.6,0,1.6,0.9c0,0.8-0.7,0.8-1.6,0.8h-2l-0.4,1.6h3.1c0.7,0,1.7,0,1.7,0.9
			c0,0.9-1,0.9-1.7,0.9H571c-0.7,0-1.7,0-1.7-0.9c0-0.9,1-0.9,1.7-0.9h3l-0.5-1.6h-1.6c-0.9,0-1.6,0-1.6-0.8c0-0.9,0.7-0.9,1.6-0.9
			H577.7z M575.7,30.8c0.4,0.2,0.7,0.6,0.7,1v1.1c0,1,0.1,1.3,1.5,1.3h3.8c0.8,0,1-0.3,1.2-0.7c0.3-0.8,0.4-1,1-1
			c0.6,0,1.1,0.4,1.1,0.9c0,0,0,2.5-3.2,2.5h-3.9c-2,0-3.5-0.3-3.5-2.4v-1.8c0-0.3,0.1-0.8,0.7-1h-1.8c-0.9,0-2-0.1-2-1.9v-3.3
			c0-1.8,1.1-1.9,2-1.9h11.3c0.9,0,2,0.1,2,1.9V29c0,1.8-1.1,1.9-2,1.9h-4.5c0.1,0.1,1.6,1.2,1.6,2c0,0.7-0.5,1-1,1
			c-0.5,0-0.6-0.2-1.2-0.9c-0.1-0.1-0.6-0.7-0.9-1c-0.2-0.2-0.2-0.4-0.2-0.6c0-0.2,0-0.4,0.1-0.5H575.7z M584.4,26.4
			c0-0.6,0-0.8-0.7-0.8h-9.7c-0.7,0-0.7,0.2-0.7,0.8H584.4z M573.2,28.1c0,0.8,0,1,0.7,1h9.7c0.7,0,0.7-0.1,0.7-1H573.2z
			 M575.7,19.5l0.5,1.6h5.4l0.4-1.6H575.7z M587.5,35.6c-0.5,0-0.6-0.1-1.1-1.1c-0.6-1.1-0.8-1.4-1.2-2c-0.2-0.3-0.2-0.5-0.2-0.6
			c0-0.4,0.4-0.8,1-0.8c0.4,0,0.7,0.2,1,0.6c1.1,1.5,1.4,2.4,1.5,2.8C588.6,35.1,588.1,35.6,587.5,35.6z"/>
	</g>
</g>
<g>
	<path class="st2" d="M51.8,25.9c0,14.3-11.6,25.9-25.9,25.9C11.6,51.8,0,40.2,0,25.9C0,11.6,11.6,0,25.9,0
		C40.2,0,51.8,11.6,51.8,25.9z"/>
	<g>
		<path class="st3" d="M21,6.2c0.2,0.2,0.4,0.4,0.6,0.7c0.2,0.2,0.1,0.3-0.1,0.4c0,0-0.1,0.1-0.2,0.1c-0.5,0.4-1.7,1.3-3.2,2.3
			c-0.3,0.2-0.7,0.5-1.1,0.7c0.4-0.1,0.9-0.2,1.3-0.3C20,9.8,21.9,9.6,23,9.5c0.4,0,0.3-0.1,0.4,0.2c0,0.1,0.1,0.3,0.1,0.5
			c0,0.3,0,0.3-0.3,0.3c-3.5,0-5.1,1.6-5.1,2.9c0,1.3,1.8,1.8,3.9,1.6c-0.1,0.4-0.2,0.7-0.2,1c-2.6,0.1-4.5-0.9-4.5-2.5
			c0-1.1,1.1-2.2,2.4-2.9c-2.2,0.4-3.4,0.7-4.5,1.2c-0.3,0.1-0.3,0.2-0.4,0c-0.1-0.2-0.3-0.4-0.4-0.7c-0.1-0.3,0-0.2,0.2-0.3
			c0.4-0.1,0.9-0.2,1.3-0.3C16.5,10,18,9,19.1,8c0.4-0.3,0.8-0.7,1.1-1c-0.4,0.1-1,0.2-1.4,0.3c-0.8,0.1-1.5,0.2-2.1,0.3
			c-0.3,0-0.3,0.1-0.3-0.1c-0.1-0.2-0.1-0.5-0.2-0.7c-0.1-0.2,0-0.2,0.2-0.2c1.2,0,3.1-0.1,4-0.3C20.7,6.2,20.8,6,21,6.2z"/>
		<path class="st3" d="M36.2,11c0,1.9-0.9,3.9-4,4.6c-0.2-0.3-0.6-0.5-0.8-0.8c1.6-0.2,3.8-1.3,3.8-3.7c0-2.4-1.8-3.3-3.4-3.4
			c-0.3,2.3-1.1,5.5-2.1,6.7c-0.9,1.1-2.1,0.5-2.6-0.2c-0.4-0.6-0.8-1.4-0.7-2.8c0.1-1.5,1.7-4.3,5-4.5C34.7,6.8,36.2,9.3,36.2,11z
			 M27.3,11.3c-0.2,1.2,0.2,2,0.5,2.3c0.4,0.5,1,0.5,1.3-0.1c0.8-1.4,1.4-4.1,1.6-5.7C29,8.1,27.7,9.6,27.3,11.3z"/>
	</g>
	<g>
		<path class="st3" d="M23.3,44V27.4h-4.5V24c3.4-0.1,4.6-1,5.7-2.7H28V44L23.3,44z"/>
	</g>
	<polyline class="st2" points="39.6,40.7 54.9,45.4 47.1,32.8 	"/>
</g>
</svg>
