<?xml version="1.0" encoding="utf-8"?>
<!-- Generator: Adobe Illustrator 22.1.0, SVG Export Plug-In . SVG Version: 6.00 Build 0)  -->
<svg version="1.1" id="レイヤー_1" xmlns="http://www.w3.org/2000/svg" xmlns:xlink="http://www.w3.org/1999/xlink" x="0px"
	 y="0px" viewBox="0 0 300 73.1" style="enable-background:new 0 0 300 73.1;" xml:space="preserve">
<style type="text/css">
	.st0{enable-background:new    ;}
	.st1{fill:#E95514;}
	.st2{fill:#F29600;}
	.st3{fill:#2FA7E0;}
	.st4{fill:#8DC21F;}
	.st5{fill:#E50012;}
</style>
<g>
	<path d="M108.8,38.2c0.8,0,1.4-0.6,1.4-1.5c0-0.8-0.6-1.5-1.4-1.5H83.7c-0.7,0-1.3,0.6-1.3,1.5c0,0.9,0.5,1.5,1.3,1.5h11.2v21h-5.8
		V43.9c0-0.8-0.7-1.4-1.6-1.4c-0.9,0-1.6,0.7-1.6,1.4v15.3h-2.2c-0.7,0-1.3,0.6-1.3,1.4c0,0.8,0.6,1.5,1.3,1.5h25.1
		c0.7,0,1.4-0.7,1.4-1.5c0-0.8-0.6-1.4-1.4-1.4H98.1v-9.5h9.8c0.7,0,1.3-0.6,1.3-1.5c0-0.8-0.6-1.5-1.3-1.5h-9.8v-8.6H108.8z"/>
	<path d="M142,49.9c0.6,0,1.2-0.5,1.2-1.4c0-0.7-0.6-1.2-1.2-1.2h-15.3c-0.6,0-1.2,0.5-1.2,1.2c0,0.8,0.6,1.4,1.2,1.4h2.9
		c-0.8,1.3-2.1,2.4-3.5,3c-0.6,0.2-0.9,0.7-0.9,1.3c0,0.7,0.5,1.4,1.3,1.4c0.9,0,2.3-1,2.9-1.4h2c-1.4,1.7-3.4,3-5.3,3.3
		c-0.5,0.2-0.9,0.7-0.9,1.2c0,0.8,0.6,1.4,1.4,1.4c0.1,0,0.2,0,0.3,0c2.8-0.5,6-3,7.5-5.9h2.3c-1.4,2.9-4,5.1-6.7,5.8
		c-0.5,0.2-0.8,0.6-0.8,1.2c0,0.6,0.5,1.3,1.3,1.3c0.2,0,0.3,0,0.4-0.1c3.5-0.7,7.1-4.2,8.6-8.2h0.5c0.2,0,0.4,0.2,0.4,0.4V58
		c0,1.2-0.6,1.8-1.7,1.8h-1.5c-0.6,0-1.2,0.5-1.2,1.3c0,0.8,0.6,1.3,1.2,1.3h1.9c2.3,0,3.8-1.7,3.8-4.4v-4c0-1.5-1.1-2.6-2.5-2.6
		h-8.6c0.4-0.6,0.7-1.1,0.9-1.6H142z"/>
	<path d="M122.8,45.5c0-0.1,0-0.3,0.1-0.5l1.4-7c0-0.2,0.1-0.4,0.1-0.5c0-1.1-0.7-2.3-2.3-2.3h-3.8c-1.4,0-2.5,1.1-2.5,2.5v23.8
		c0,0.7,0.6,1.3,1.4,1.3c0.8,0,1.4-0.5,1.4-1.3v-2.7c0.2,0.3,0.6,0.5,0.9,0.5h1.3c2.6,0,4.1-1.8,4.1-4.8v-2.8c0-3.1-0.8-4.7-2-6.1
		C122.8,45.6,122.8,45.5,122.8,45.5z M118.5,38.6c0-0.3,0.2-0.4,0.4-0.4h2.4c0.1,0,0.2,0,0.2,0.2l-1.3,6.5l0,0.2
		c0,0.2-0.1,0.4-0.1,0.6c0,0.2,0.1,0.5,0.2,0.7c1.3,1.5,1.8,2.9,1.8,5.4V54c0,2-0.8,2.3-1.7,2.3h-1c-0.4,0-0.7,0.2-0.9,0.5V38.6z"/>
	<path d="M128.9,45.7h10.7c1.4,0,2.5-1.1,2.5-2.5v-5.3c0-1.5-1.1-2.6-2.5-2.6h-10.7c-1.4,0-2.5,1.1-2.5,2.6v5.3
		C126.4,44.5,127.5,45.7,128.9,45.7z M129.3,39.2V38c0-0.2,0.2-0.4,0.4-0.4h9.1c0.2,0,0.4,0.2,0.4,0.4v1.2H129.3z M139.2,41.6v1.3
		c0,0.2-0.2,0.4-0.4,0.4h-9.1c-0.2,0-0.4-0.2-0.4-0.4v-1.3H139.2z"/>
	<path d="M174.1,34.9c-0.8,0-1.2,0.4-1.2,1.1v3.4c0,0.7,0.4,1.1,1.2,1.1c0.8,0,1.2-0.4,1.2-1.1V36C175.3,35.2,174.9,34.9,174.1,34.9
		z"/>
	<path d="M172.1,58.3h-10.9c-5,0-6.6-1.4-6.6-5.7V42.1h13.6c0.6,0,1.3-0.4,1.3-1.7c0-1.1-0.5-1.7-1.3-1.7h-13.6v-1.5
		c0-0.8-0.6-1.3-1.7-1.3c-1.5,0-1.7,0.9-1.7,1.3v1.5h-1.9c-0.7,0-1.2,0.7-1.2,1.7c0,1,0.5,1.7,1.2,1.7h1.9v10.7
		c0,6.2,2.9,8.8,9.8,8.8h11.1c0.7,0,1.4-0.4,1.4-1.7C173.5,58.8,172.8,58.3,172.1,58.3z"/>
	<path d="M170.9,40.5c0.8,0,1.2-0.4,1.2-1.1V36c0-0.7-0.4-1.1-1.2-1.1c-0.7,0-1.1,0.4-1.1,1.1v3.4C169.8,40.2,170.1,40.5,170.9,40.5
		z"/>
	<path d="M172.4,40.9c-1,0-1.7,0.6-1.7,1.5v0.4c0,3.3-2.8,5.3-7.8,5.6c-1.3,0.1-1.3,1.2-1.3,1.6c0,1.1,0.6,1.8,1.5,1.8
		c0.1,0,0.3,0,0.5,0c6.8-0.6,10.6-3.8,10.6-9.1v-0.3C174.2,40.9,172.8,40.9,172.4,40.9z"/>
	<path d="M183.2,46.4c-0.8,0-1.3,0.6-1.3,1.7c0,1.6,1,1.7,1.3,1.7c9.3,0,15,0.4,20.3,1.3c0.1,0,0.3,0,0.4,0c0.6,0,1.4-0.3,1.4-1.7
		c0-1.1-0.4-1.6-1.3-1.7C198.5,46.8,191.5,46.4,183.2,46.4z"/>
	<path d="M182.8,40.1h21.6c0.7,0,1.4-0.4,1.4-1.7s-0.7-1.7-1.4-1.7h-21.6c-0.5,0-1.4,0.2-1.4,1.7C181.3,39.9,182.2,40.1,182.8,40.1z
		"/>
	<path d="M205.5,58.4c-5.9-1.2-13.3-1.8-23.8-1.8c-0.7,0-1.4,0.4-1.4,1.7c0,1.3,0.7,1.7,1.4,1.7c12.4,0,17.9,0.6,23.4,1.7l0.1,0
		c0.1,0,0.2,0,0.3,0c0.8,0,1.3-0.7,1.3-1.7C206.7,59.4,206.6,58.6,205.5,58.4z"/>
	<path d="M237.4,39.9H234v-2.8c0-0.8-0.7-1.3-1.7-1.3c-1.3,0-1.7,0.7-1.7,1.3v2.8h-16.7c-0.7,0-1.4,0.4-1.4,1.7s0.7,1.7,1.4,1.7
		h16.7v2.1c0,9.2-3.9,13-13.3,13h-3c-0.8,0-1.3,0.6-1.3,1.6c0,1.1,0.6,1.7,1.5,1.7h2.9c11.4,0,16.7-5.1,16.7-16.1v-2.3h3.4
		c0.7,0,1.4-0.4,1.4-1.7S238.1,39.9,237.4,39.9z"/>
	<path d="M266.1,47.2H244c-0.7,0-1.5,0.7-1.5,1.7c0,1,0.8,1.6,1.5,1.6h22.1c0.7,0,1.5-0.7,1.5-1.6C267.5,47.8,266.8,47.2,266.1,47.2
		z"/>
	<path d="M297.3,40.4c-1,0-1.7,0.5-1.7,1.4v5.6c0,7.5-2.7,11-8.5,11h-1.6c-0.6,0-0.6-0.1-0.6-0.6V37.1c0-0.9-0.6-1.4-1.7-1.4
		c-1.2,0-1.7,0.7-1.7,1.4v22.1c0,1.7,0.9,2.6,2.7,2.6h2.6c8.2,0,12.1-4.6,12.1-14.1v-5.9C299,40.9,298.4,40.4,297.3,40.4z"/>
	<path d="M276.4,35.7c-1.1,0-1.7,0.5-1.7,1.4v11.5c0,4.6-0.6,8.4-1.8,11.3c0,0.1-0.1,0.4-0.1,0.5c0,0.6,0.2,1.5,1.9,1.5
		c0.8,0,1.3-0.3,1.6-1.2l0,0c0.9-2.3,1.8-6.8,1.8-12.2V37.1C278.2,36.4,277.7,35.7,276.4,35.7z"/>
</g>
<g>
	<g class="st0">
		<g>
			<path class="st1" d="M20.1,9.6c0.3-0.1,0.6-0.1,0.8,0c0.3,0,0.5,0.1,0.7,0.2c0.2,0.1,0.4,0.2,0.5,0.4c0.1,0.2,0.2,0.4,0.2,0.6
				c0,0.3,0,0.6-0.1,0.9c-0.1,0.3-0.3,0.6-0.5,0.9c-0.2,0.3-0.5,0.6-0.8,0.8c-0.3,0.2-0.7,0.4-1.1,0.6c-0.1,0-0.1,0-0.2,0.1
				c-0.1,0-0.1,0-0.2,0.1c-0.1,0-0.1,0-0.2,0c-0.1,0-0.1,0-0.2,0c-0.3,0-0.6,0.1-0.8,0c-0.3,0-0.5-0.1-0.7-0.2
				c-0.2-0.1-0.4-0.3-0.5-0.4c-0.1-0.2-0.2-0.4-0.2-0.6c0-0.3,0-0.6,0.2-0.9c0.1-0.3,0.3-0.6,0.5-0.9c0.2-0.3,0.5-0.5,0.8-0.8
				c0.3-0.2,0.7-0.4,1-0.6c0.1,0,0.1,0,0.2-0.1c0.1,0,0.1,0,0.2-0.1c0.1,0,0.1,0,0.2,0C20,9.6,20.1,9.6,20.1,9.6z"/>
		</g>
		<g>
			<path class="st2" d="M25.2,25.2C25.2,25.3,25.2,25.3,25.2,25.2c0,0.1,0,0.1,0,0.1c0,0,0,0,0,0.1c0,0,0,0,0,0.1c0,0,0,0,0-0.1
				c0,0,0,0,0-0.1C25.1,25.4,25.1,25.3,25.2,25.2C25.1,25.3,25.2,25.3,25.2,25.2z"/>
		</g>
		<g>
			<path class="st2" d="M52.7,3.2c0.3,0,0.5-0.1,0.8-0.1c0.3,0,0.5,0,0.8,0.1c0.2,0,0.5,0.1,0.7,0.2c0.2,0.1,0.4,0.2,0.6,0.4
				c0.3,0.2,0.4,0.5,0.5,0.8c0.1,0.3,0.1,0.6,0,0.9c-0.1,0.3-0.3,0.7-0.5,1c-0.2,0.3-0.6,0.6-1,0.9c-0.1,0.1-0.3,0.2-0.4,0.3
				c-0.2,0.1-0.3,0.1-0.5,0.2c-0.2,0.1-0.3,0.1-0.5,0.2C53.1,8,53,8,52.8,8c-0.3,0-0.6,0.1-0.8,0.1c-0.3,0-0.5,0-0.8-0.1
				c-0.2-0.1-0.5-0.1-0.7-0.2c-0.2-0.1-0.4-0.2-0.6-0.4c-0.2-0.2-0.4-0.5-0.5-0.8c-0.1-0.3-0.1-0.6,0-0.9C49.6,5.3,49.7,5,50,4.7
				c0.2-0.3,0.6-0.6,0.9-0.8c0.1-0.1,0.3-0.2,0.4-0.2c0.1-0.1,0.3-0.1,0.4-0.2c0.2-0.1,0.3-0.1,0.5-0.2C52.4,3.2,52.6,3.2,52.7,3.2z
				"/>
		</g>
		<g>
			<path class="st3" d="M4.5,37.8C4.6,37.8,4.6,37.8,4.5,37.8C4.6,37.8,4.6,37.8,4.5,37.8c0.1,0,0.1,0,0.1,0c0,0,0,0,0,0
				c0.4,0,0.7,0.1,1,0.2c0.3,0.2,0.5,0.4,0.7,0.7c0.2,0.3,0.3,0.6,0.3,1c0,0.4,0,0.8-0.2,1.2c-0.1,0.4-0.3,0.8-0.6,1.2
				c-0.3,0.4-0.6,0.7-0.9,1c-0.3,0.3-0.7,0.5-1.1,0.7c-0.4,0.2-0.8,0.3-1.2,0.3c0,0,0,0,0,0c0,0,0,0,0,0c0,0,0,0,0,0c0,0,0,0,0,0
				c-0.4,0-0.7-0.1-1-0.3c-0.3-0.2-0.5-0.4-0.7-0.7c-0.2-0.3-0.2-0.6-0.3-1c0-0.4,0.1-0.8,0.2-1.2c0.1-0.4,0.4-0.8,0.6-1.2
				c0.3-0.4,0.6-0.7,0.9-1c0.3-0.3,0.7-0.5,1.1-0.7C3.8,38,4.2,37.9,4.5,37.8z"/>
		</g>
		<g>
			<path class="st3" d="M17.6,34.5c0.1,0.1,0.1,0.1,0.2,0.2c0.1,0.1,0.1,0.1,0.2,0.2c0.1,0.1,0.1,0.1,0.2,0.2
				c0.1,0.1,0.1,0.1,0.2,0.2c0,0,0,0-0.1,0c0,0,0,0-0.1,0c0,0,0,0-0.1,0c0,0,0,0-0.1,0c0,0-0.1-0.1-0.1-0.1c0,0-0.1-0.1-0.1-0.1
				c0,0-0.1-0.1-0.1-0.1C17.7,34.6,17.7,34.6,17.6,34.5z"/>
		</g>
		<g>
			<path class="st1" d="M33.1,8.6c0.6-0.1,1.2-0.2,1.9-0.2c0.6,0,1.2-0.1,1.8,0c0.6,0,1.2,0.1,1.8,0.1c0.6,0.1,1.2,0.2,1.7,0.3
				c-0.1,0-0.2,0.1-0.3,0.1c-0.1,0-0.2,0.1-0.3,0.1c-0.1,0-0.2,0.1-0.3,0.1c-0.1,0-0.2,0.1-0.3,0.1c0,0-0.1,0-0.1,0c0,0-0.1,0-0.1,0
				c0,0-0.1,0-0.1,0c0,0-0.1,0-0.1,0c-0.1,0-0.1,0-0.2,0.1c-0.1,0-0.1,0-0.2,0.1c-0.1,0-0.1,0-0.2,0.1c-0.1,0-0.1,0-0.2,0.1
				c0,0-0.1,0-0.1,0c0,0-0.1,0-0.1,0c0,0-0.1,0-0.1,0c0,0-0.1,0-0.1,0c-0.1,0-0.2,0.1-0.3,0.1c-0.1,0-0.2,0.1-0.3,0.1
				c-0.1,0-0.2,0.1-0.3,0.1c-0.1,0-0.2,0.1-0.3,0.1c-0.1,0-0.2,0.1-0.3,0.1c-0.1,0-0.2,0.1-0.3,0.1c-0.1,0-0.2,0.1-0.3,0.1
				c-0.1,0-0.2,0.1-0.3,0.1c0,0-0.1,0-0.1,0c0,0-0.1,0-0.1,0c0,0-0.1,0-0.1,0c0,0-0.1,0-0.1,0c-0.1,0-0.1,0.1-0.2,0.1
				c-0.1,0-0.1,0.1-0.2,0.1c-0.1,0-0.1,0.1-0.2,0.1c-0.1,0-0.1,0.1-0.2,0.1c0,0-0.1,0-0.1,0c0,0-0.1,0-0.1,0c0,0-0.1,0-0.1,0
				c0,0-0.1,0-0.1,0c-0.1,0-0.2,0.1-0.3,0.1c-0.1,0-0.2,0.1-0.3,0.1c-0.1,0.1-0.2,0.1-0.3,0.2c-0.1,0.1-0.2,0.1-0.2,0.2
				c-0.3,0.2-0.7,0.4-1,0.7c-0.3,0.2-0.6,0.5-1,0.7c-0.3,0.2-0.6,0.5-0.9,0.7c-0.3,0.3-0.6,0.5-0.9,0.8c-0.1,0.1-0.2,0.2-0.2,0.2
				c-0.1,0.1-0.2,0.2-0.2,0.2c-0.1,0.1-0.2,0.2-0.2,0.2c-0.1,0.1-0.2,0.2-0.2,0.2c-0.5,0.6-1,1.2-1.5,1.8c-0.5,0.6-0.9,1.3-1.3,1.9
				c-0.4,0.7-0.7,1.3-1,2c-0.3,0.7-0.6,1.4-0.8,2.1c-0.2,0.5-0.3,1.1-0.4,1.6c-0.1,0.5-0.2,1.1-0.2,1.6c0,0.5,0,1.1,0,1.6
				c0,0.5,0.1,1.1,0.2,1.6c0.1,0.3,0.1,0.7,0.2,1c0.1,0.3,0.2,0.7,0.3,1c0.1,0.3,0.2,0.6,0.4,1c0.1,0.3,0.3,0.6,0.5,0.9
				c0.1,0.2,0.3,0.4,0.4,0.7c0.1,0.2,0.3,0.4,0.4,0.6c0.2,0.2,0.3,0.4,0.5,0.6c0.2,0.2,0.3,0.4,0.5,0.6c-0.1,0-0.2,0-0.3,0
				c-0.1,0-0.2,0-0.2,0c-0.1,0-0.2,0-0.2,0c-0.1,0-0.1,0-0.2,0c0,0,0,0-0.1,0c0,0,0,0-0.1,0c0,0,0,0-0.1,0c0,0-0.1,0-0.1,0
				c-0.1,0-0.1,0-0.2,0c-0.1,0-0.1,0-0.2,0c-0.1,0-0.1,0-0.2,0c-0.1,0-0.1,0-0.2,0c0,0-0.1,0-0.1,0c0,0-0.1,0-0.1,0c0,0-0.1,0-0.1,0
				c0,0-0.1,0-0.1,0c-0.1,0-0.1,0-0.2,0c-0.1,0-0.1,0-0.2,0c-0.1,0-0.1,0-0.2,0c-0.1,0-0.1,0-0.2,0c0,0,0,0-0.1,0c0,0,0,0-0.1,0
				c0,0,0,0-0.1,0c0,0,0,0-0.1,0c-0.1,0-0.1,0-0.2-0.1c-0.1,0-0.1,0-0.2-0.1c-0.1,0-0.1,0-0.2-0.1c-0.1,0-0.1-0.1-0.2-0.1
				c-0.7-0.3-1.4-0.6-2.1-1c-0.6-0.4-1.2-0.8-1.7-1.3c-0.5-0.5-0.9-1-1.3-1.6c-0.4-0.6-0.7-1.1-1-1.8c-0.1-0.3-0.2-0.5-0.3-0.8
				c-0.1-0.3-0.2-0.5-0.2-0.8c-0.1-0.3-0.1-0.6-0.1-0.8c0-0.3-0.1-0.6-0.1-0.9c0-0.1,0-0.2,0-0.2c0-0.1,0-0.2,0-0.2
				c0-0.1,0-0.2,0-0.2c0-0.1,0-0.2,0-0.2c0,0,0,0,0-0.1c0,0,0,0,0-0.1c0,0,0,0,0-0.1c0,0,0,0,0-0.1c0-0.1,0-0.1,0-0.2
				c0-0.1,0-0.1,0-0.2c0-0.1,0-0.1,0-0.2c0-0.1,0-0.1,0-0.2c0,0,0-0.1,0-0.1c0,0,0-0.1,0-0.1c0,0,0-0.1,0-0.1c0,0,0-0.1,0-0.1
				c0,0,0-0.1,0-0.1c0,0,0-0.1,0-0.1c0,0,0-0.1,0-0.1c0,0,0-0.1,0-0.1c0,0,0-0.1,0-0.1c0,0,0-0.1,0-0.1c0,0,0-0.1,0-0.1
				c0,0,0-0.1,0-0.1c0,0,0-0.1,0-0.1c0,0,0-0.1,0-0.1c0,0,0-0.1,0-0.1c0,0,0-0.1,0-0.1c0,0,0-0.1,0-0.1c0,0,0-0.1,0-0.1
				c0,0,0-0.1,0-0.1c0,0,0-0.1,0-0.1c0,0,0-0.1,0-0.1c0,0,0-0.1,0-0.1c0,0,0-0.1,0-0.1c0,0,0-0.1,0-0.1c0,0,0-0.1,0-0.1
				c0,0,0-0.1,0-0.1c0,0,0-0.1,0-0.1c0,0,0-0.1,0-0.1c0,0,0-0.1,0.1-0.1c0,0,0-0.1,0.1-0.1c0,0,0-0.1,0.1-0.1c0,0,0-0.1,0.1-0.1
				c0,0,0-0.1,0-0.1c0,0,0-0.1,0-0.1c0,0,0-0.1,0-0.1c0,0,0-0.1,0-0.1c0,0,0-0.1,0.1-0.1c0,0,0-0.1,0.1-0.1c0,0,0-0.1,0.1-0.1
				c0,0,0-0.1,0.1-0.1c0,0,0-0.1,0-0.1c0,0,0-0.1,0-0.1c0,0,0-0.1,0.1-0.1c0,0,0-0.1,0.1-0.1c0,0,0-0.1,0.1-0.1c0,0,0-0.1,0.1-0.1
				c0,0,0-0.1,0.1-0.1c0,0,0-0.1,0.1-0.1c0.6-1.1,1.3-2.1,2.1-3c0.8-0.9,1.7-1.8,2.7-2.6c1-0.8,2-1.5,3.1-2.1
				c1.1-0.6,2.3-1.2,3.5-1.6c0.3-0.1,0.6-0.2,1-0.3c0.3-0.1,0.6-0.2,1-0.3c0.3-0.1,0.6-0.2,1-0.2C32.5,8.7,32.8,8.7,33.1,8.6z"/>
		</g>
		<g>
			<path class="st3" d="M12.7,44c0.5,0.3,1,0.6,1.5,0.9c0.5,0.3,1.1,0.5,1.7,0.7c0.6,0.2,1.2,0.3,1.9,0.4c0.7,0.1,1.4,0.2,2.1,0.2
				c-0.7,0-1.4-0.1-2.1-0.2c-0.7-0.1-1.3-0.3-1.9-0.4c-0.6-0.2-1.2-0.4-1.7-0.7C13.7,44.6,13.1,44.3,12.7,44z"/>
		</g>
		<g>
			<path class="st2" d="M57.2,13.3c0.7,0.7,1.3,1.4,1.8,2.2c0.5,0.8,0.9,1.6,1.2,2.5c0.3,0.9,0.5,1.9,0.5,2.8c0.1,1,0,2-0.2,3.1
				c-0.1-0.1-0.1-0.2-0.2-0.2c-0.1-0.1-0.1-0.2-0.2-0.2c-0.1-0.1-0.1-0.2-0.2-0.2c-0.1-0.1-0.1-0.2-0.2-0.2c0,0,0,0-0.1-0.1
				c0,0,0,0-0.1-0.1c0,0,0,0-0.1-0.1c0,0,0,0-0.1-0.1c-0.1-0.1-0.1-0.1-0.2-0.2c-0.1-0.1-0.1-0.1-0.2-0.2c-0.1-0.1-0.1-0.1-0.2-0.2
				c-0.1-0.1-0.1-0.1-0.2-0.2c0,0,0,0-0.1-0.1c0,0,0,0-0.1-0.1c0,0,0,0-0.1-0.1c0,0,0,0-0.1-0.1c-0.1-0.1-0.1-0.1-0.2-0.2
				c-0.1-0.1-0.1-0.1-0.2-0.2c-0.1-0.1-0.1-0.1-0.2-0.2c-0.1-0.1-0.1-0.1-0.2-0.2c-0.1-0.1-0.2-0.1-0.2-0.2
				c-0.1-0.1-0.2-0.1-0.2-0.2c-0.1-0.1-0.2-0.1-0.2-0.2c-0.1-0.1-0.2-0.1-0.2-0.2c0,0,0,0-0.1-0.1c0,0,0,0-0.1-0.1c0,0,0,0-0.1-0.1
				c0,0,0,0-0.1,0c-0.1,0-0.1-0.1-0.2-0.1c-0.1,0-0.1-0.1-0.2-0.1c-0.1,0-0.1-0.1-0.2-0.1c-0.1,0-0.1-0.1-0.2-0.1c0,0-0.1,0-0.1,0
				c0,0-0.1,0-0.1,0c0,0-0.1,0-0.1,0c0,0-0.1,0-0.1,0c-0.1-0.1-0.2-0.1-0.3-0.2c-0.1,0-0.2-0.1-0.3-0.1c-0.1,0-0.2-0.1-0.3-0.1
				c-0.1,0-0.2-0.1-0.3-0.1c-0.4-0.2-0.7-0.4-1.1-0.5c-0.4-0.2-0.8-0.3-1.2-0.4c-0.4-0.1-0.8-0.3-1.2-0.4c-0.4-0.1-0.8-0.2-1.2-0.3
				c-0.6-0.1-1.3-0.2-1.9-0.3c-0.6-0.1-1.3-0.1-2-0.1c-0.6,0-1.3,0-2,0c-0.7,0-1.3,0.1-2,0.2c-0.3,0-0.7,0.1-1,0.2
				c-0.3,0.1-0.7,0.1-1,0.2c-0.3,0.1-0.7,0.2-1,0.2c-0.3,0.1-0.6,0.2-1,0.3c-0.5,0.1-0.9,0.3-1.4,0.5c-0.5,0.2-0.9,0.3-1.3,0.5
				c-0.4,0.2-0.9,0.4-1.3,0.6c-0.4,0.2-0.8,0.4-1.3,0.7c-0.2,0.1-0.3,0.2-0.4,0.3c-0.1,0.1-0.3,0.2-0.4,0.3s-0.3,0.2-0.4,0.3
				c-0.1,0.1-0.3,0.2-0.4,0.3c-0.3,0.2-0.7,0.5-1,0.7c-0.3,0.3-0.7,0.5-1,0.8c-0.3,0.3-0.6,0.5-0.9,0.8c-0.3,0.3-0.6,0.6-0.9,0.9
				c-0.2,0.2-0.4,0.4-0.6,0.7c-0.2,0.2-0.4,0.5-0.6,0.7c-0.2,0.2-0.4,0.5-0.6,0.7c-0.2,0.2-0.4,0.5-0.5,0.7c0-0.1,0-0.1,0-0.2
				c0-0.1,0-0.1,0-0.2c0-0.1,0-0.1,0-0.2c0-0.1,0-0.1,0-0.2c0,0,0,0,0-0.1c0,0,0,0,0-0.1c0,0,0,0,0-0.1c0,0,0,0,0-0.1
				c0,0,0-0.1,0-0.1c0,0,0-0.1,0-0.1c0,0,0-0.1,0-0.1c0,0,0-0.1,0-0.1c0,0,0,0,0-0.1c0,0,0,0,0-0.1c0,0,0,0,0-0.1c0,0,0,0,0-0.1
				c0,0,0-0.1,0-0.1c0,0,0-0.1,0-0.1c0,0,0-0.1,0-0.1c0,0,0-0.1,0-0.1c0,0,0,0,0-0.1c0,0,0,0,0-0.1c0,0,0,0,0-0.1c0,0,0,0,0-0.1
				c0-0.1,0-0.1,0-0.2c0-0.1,0-0.1,0-0.2c0-0.1,0-0.1,0.1-0.2c0-0.1,0-0.1,0.1-0.2c0.2-0.7,0.5-1.5,0.8-2.2c0.3-0.7,0.7-1.4,1.1-2.1
				c0.4-0.7,0.9-1.3,1.4-2c0.5-0.6,1.1-1.2,1.7-1.8c0.3-0.2,0.5-0.5,0.8-0.7c0.3-0.2,0.5-0.5,0.8-0.7c0.3-0.2,0.6-0.4,0.9-0.6
				c0.3-0.2,0.6-0.4,0.9-0.6c0.7-0.4,1.3-0.8,2-1.2c0.7-0.4,1.4-0.7,2.1-0.9c0.7-0.3,1.5-0.5,2.2-0.7c0.8-0.2,1.5-0.4,2.3-0.5
				c0,0,0,0,0,0c0,0,0,0,0,0c0,0,0,0,0,0c0,0,0,0,0,0c1.4-0.2,2.7-0.3,4-0.3c1.3,0,2.6,0.2,3.8,0.5c1.2,0.3,2.4,0.8,3.5,1.3
				C55.3,11.7,56.3,12.5,57.2,13.3z"/>
		</g>
		<g>
			<path class="st3" d="M34.3,37.3c0.3-0.1,0.7-0.2,1-0.3c0.3-0.1,0.6-0.2,1-0.4c0.3-0.1,0.6-0.3,0.9-0.4c0.3-0.1,0.6-0.3,0.9-0.4
				c-0.1,0.1-0.1,0.2-0.1,0.2c0,0.1-0.1,0.2-0.1,0.2c0,0.1-0.1,0.1-0.1,0.2c0,0.1-0.1,0.1-0.1,0.2c0,0,0,0,0,0.1c0,0,0,0,0,0.1
				s0,0,0,0.1c0,0,0,0,0,0.1c0,0.1-0.1,0.1-0.1,0.2c0,0.1-0.1,0.1-0.1,0.2c0,0.1-0.1,0.1-0.1,0.2c0,0.1-0.1,0.1-0.1,0.2
				c0,0,0,0.1-0.1,0.1c0,0,0,0.1-0.1,0.1c0,0,0,0.1-0.1,0.1c0,0,0,0.1-0.1,0.1c0,0.1-0.1,0.1-0.1,0.2c0,0.1-0.1,0.1-0.1,0.2
				c0,0.1-0.1,0.1-0.1,0.2c0,0.1-0.1,0.1-0.1,0.1c0,0,0,0-0.1,0.1c0,0,0,0-0.1,0.1c0,0,0,0-0.1,0.1c0,0,0,0-0.1,0.1
				c-0.1,0.1-0.1,0.1-0.2,0.2c-0.1,0.1-0.1,0.1-0.2,0.2c-0.1,0.1-0.1,0.1-0.2,0.2c-0.1,0.1-0.1,0.1-0.2,0.2
				c-0.7,0.7-1.5,1.4-2.3,2.1c-0.8,0.6-1.7,1.2-2.6,1.7c-0.9,0.5-1.8,1-2.7,1.3c-0.9,0.4-1.9,0.7-2.9,0.9c-0.3,0.1-0.6,0.1-0.9,0.2
				c-0.3,0.1-0.6,0.1-0.9,0.2c-0.3,0-0.6,0.1-0.9,0.1c-0.3,0-0.6,0-0.9,0.1c-0.1,0-0.2,0-0.2,0c-0.1,0-0.2,0-0.2,0
				c-0.1,0-0.2,0-0.2,0c-0.1,0-0.2,0-0.2,0c-0.7,0-1.4-0.1-2.1-0.2c-0.7-0.1-1.3-0.3-1.9-0.4c-0.6-0.2-1.2-0.4-1.7-0.7
				c-0.5-0.3-1.1-0.6-1.5-0.9c0,0,0,0,0,0c0,0,0,0,0,0c0,0,0,0,0,0c0,0,0,0,0,0c-0.1-0.1-0.1-0.1-0.2-0.2c-0.1-0.1-0.1-0.1-0.2-0.2
				c-0.1-0.1-0.1-0.1-0.2-0.2c-0.1-0.1-0.1-0.1-0.2-0.2c-0.9-0.8-1.6-1.7-2.1-2.7c-0.5-1-0.9-2-1.1-3.1c-0.2-1.1-0.3-2.2-0.2-3.4
				c0.1-1.2,0.3-2.4,0.7-3.6c0.3-0.9,0.7-1.8,1.1-2.7c0.4-0.9,0.9-1.7,1.5-2.5c0.6-0.8,1.2-1.6,1.9-2.3c0.7-0.7,1.4-1.4,2.2-2.1
				c0,0.1-0.1,0.2-0.1,0.2c0,0.1-0.1,0.2-0.1,0.2c0,0.1-0.1,0.2-0.1,0.2c0,0.1-0.1,0.2-0.1,0.2c0,0,0,0,0,0.1c0,0,0,0,0,0.1
				c0,0,0,0,0,0.1c0,0,0,0,0,0.1c0,0.1,0,0.1-0.1,0.2c0,0.1,0,0.1-0.1,0.2c0,0.1,0,0.1-0.1,0.2c0,0.1,0,0.1,0,0.2c0,0,0,0,0,0.1
				c0,0,0,0,0,0.1c0,0,0,0,0,0.1c0,0,0,0,0,0.1c0,0.1,0,0.1-0.1,0.2c0,0.1,0,0.1-0.1,0.2c0,0.1,0,0.1-0.1,0.2c0,0.1,0,0.1,0,0.2
				c0,0.1,0,0.2,0,0.3c0,0.1,0,0.2,0,0.2c0,0.1,0,0.2,0,0.2c0,0.1,0,0.2,0,0.2c0,0,0,0,0,0.1c0,0,0,0,0,0.1c0,0,0,0,0,0.1
				c0,0,0,0,0,0.1c0,0.1,0,0.1,0,0.2c0,0.1,0,0.1,0,0.2c0,0.1,0,0.1,0,0.2c0,0.1,0,0.1,0,0.2c0,0,0,0,0,0.1c0,0,0,0,0,0.1
				c0,0,0,0,0,0.1c0,0,0,0,0,0.1c0,0.1,0,0.2,0,0.2c0,0.1,0,0.2,0,0.2c0,0.1,0,0.2,0,0.2c0,0.1,0,0.2,0,0.2c0,0.3,0,0.6,0.1,1
				c0,0.3,0.1,0.6,0.2,0.9c0.1,0.3,0.1,0.6,0.2,0.9c0.1,0.3,0.2,0.6,0.3,0.9c0,0.1,0.1,0.2,0.1,0.2c0,0.1,0.1,0.2,0.1,0.2
				c0,0.1,0.1,0.2,0.1,0.2c0,0.1,0.1,0.2,0.1,0.2l0.1,0.1c0,0.1,0.1,0.1,0.1,0.2c0,0.1,0.1,0.1,0.1,0.2c0,0.1,0.1,0.1,0.1,0.2
				c0,0.1,0.1,0.1,0.1,0.2l0.1,0.2c0,0.1,0.1,0.1,0.1,0.2c0,0.1,0.1,0.1,0.1,0.2c0,0.1,0.1,0.1,0.1,0.2c0,0.1,0.1,0.1,0.2,0.2
				l0.1,0.1c0.1,0.1,0.1,0.1,0.2,0.2c0.1,0.1,0.1,0.1,0.2,0.2c0.1,0.1,0.1,0.1,0.2,0.2c0.1,0.1,0.1,0.1,0.2,0.2
				c0.1,0,0.1,0.1,0.1,0.1c0,0,0.1,0.1,0.1,0.1c0,0,0.1,0.1,0.1,0.1c0,0,0.1,0.1,0.1,0.1c0,0,0,0,0.1,0c0,0,0,0,0.1,0c0,0,0,0,0.1,0
				c0,0,0,0,0.1,0c0,0,0.1,0,0.1,0.1c0,0,0.1,0,0.1,0.1c0,0,0.1,0,0.1,0.1c0,0,0.1,0,0.1,0.1c0,0,0.1,0.1,0.1,0.1
				c0,0,0.1,0.1,0.1,0.1c0,0,0.1,0.1,0.1,0.1c0,0,0.1,0.1,0.1,0.1c0,0,0.1,0,0.1,0.1c0,0,0.1,0,0.1,0.1c0,0,0.1,0,0.1,0.1
				c0,0,0.1,0,0.1,0.1c0.1,0,0.1,0.1,0.2,0.1c0.1,0,0.1,0.1,0.2,0.1c0.1,0,0.1,0.1,0.2,0.1c0.1,0,0.1,0.1,0.2,0.1c0,0,0.1,0,0.1,0
				c0,0,0.1,0,0.1,0c0,0,0.1,0,0.1,0c0,0,0.1,0,0.1,0c0.1,0,0.2,0.1,0.3,0.1c0.1,0,0.2,0.1,0.3,0.1c0.1,0,0.2,0.1,0.3,0.1
				c0.1,0,0.2,0.1,0.3,0.1c0.5,0.2,1.1,0.4,1.7,0.6c0.6,0.2,1.2,0.3,1.8,0.4c0.6,0.1,1.2,0.2,1.9,0.2c0.6,0,1.3,0,2,0c0,0,0,0,0.1,0
				c0,0,0,0,0.1,0c0,0,0,0,0.1,0c0,0,0,0,0.1,0c0.4,0,0.8-0.1,1.3-0.1c0.4-0.1,0.8-0.1,1.3-0.2c0.4-0.1,0.9-0.2,1.3-0.3
				C33.5,37.5,33.9,37.4,34.3,37.3z"/>
		</g>
		<g>
			<path class="st4" d="M42.6,25.5c0.1,0.1,0.1,0.1,0.2,0.2c0.1,0,0.1,0.1,0.2,0.1c0.1,0,0.1,0.1,0.2,0.1c0.1,0,0.1,0.1,0.2,0.1
				c0,0,0,0,0.1,0.1c0,0,0,0,0.1,0.1c0,0,0,0,0.1,0.1c0,0,0,0,0.1,0.1c0,0,0.1,0.1,0.1,0.1c0,0,0.1,0.1,0.1,0.1c0,0,0.1,0.1,0.1,0.1
				c0,0,0.1,0.1,0.1,0.1c0,0,0,0,0.1,0.1c0,0,0,0,0.1,0.1c0,0,0,0,0.1,0.1c0,0,0,0,0.1,0.1c0,0,0.1,0.1,0.1,0.1c0,0,0.1,0.1,0.1,0.1
				c0,0,0.1,0.1,0.1,0.1c0,0,0.1,0.1,0.1,0.1c0,0,0,0,0,0.1c0,0,0,0,0,0.1c0,0,0,0,0,0.1c0,0,0,0,0,0.1c0,0.1,0.1,0.1,0.1,0.2
				c0,0.1,0.1,0.1,0.1,0.2c0,0.1,0.1,0.1,0.1,0.2c0,0.1,0.1,0.1,0.1,0.2c0.5,0.7,0.9,1.4,1.2,2.2c0.3,0.8,0.6,1.6,0.8,2.5
				c0.2,0.9,0.3,1.8,0.4,2.7c0,0.9,0,1.9-0.1,2.9c-0.1,0.4-0.1,0.8-0.2,1.2c-0.1,0.4-0.2,0.8-0.3,1.2c-0.1,0.4-0.3,0.8-0.4,1.3
				c-0.1,0.4-0.3,0.8-0.5,1.2c-0.4,0.9-0.9,1.8-1.4,2.7c-0.5,0.9-1.1,1.7-1.8,2.5c-0.7,0.8-1.4,1.6-2.1,2.3c-0.8,0.7-1.6,1.4-2.4,2
				c-0.9,0.7-1.9,1.2-2.9,1.7c-1,0.5-2,0.9-3,1.3c-1,0.3-2.1,0.6-3.1,0.7c-1,0.2-2,0.2-3,0.2c-0.6,0-1.2,0-1.8-0.1
				c-0.6-0.1-1.1-0.2-1.7-0.3c-0.6-0.1-1.1-0.3-1.6-0.4c-0.5-0.2-1-0.4-1.5-0.6c-1-0.5-2-1.1-2.8-1.7c-0.8-0.7-1.6-1.4-2.2-2.2
				c-0.6-0.8-1.1-1.7-1.6-2.6c-0.4-0.9-0.7-1.9-0.9-2.9c0.1,0,0.1,0.1,0.2,0.1c0.1,0,0.2,0.1,0.2,0.1c0.1,0,0.2,0.1,0.2,0.1
				c0.1,0,0.2,0.1,0.2,0.1c0,0,0,0,0.1,0c0,0,0,0,0.1,0c0,0,0,0,0.1,0c0,0,0,0,0.1,0c0.1,0,0.1,0.1,0.2,0.1c0.1,0,0.1,0.1,0.2,0.1
				c0.1,0,0.1,0.1,0.2,0.1c0.1,0,0.1,0.1,0.2,0.1c0,0,0.1,0,0.1,0c0,0,0.1,0,0.1,0c0,0,0.1,0,0.1,0c0,0,0.1,0,0.1,0
				c0.1,0,0.2,0.1,0.3,0.1c0.1,0,0.2,0.1,0.3,0.1c0.1,0,0.2,0.1,0.3,0.1c0.1,0,0.2,0.1,0.3,0.1c0.1,0,0.2,0.1,0.3,0.1
				c0.1,0,0.2,0,0.3,0.1c0.1,0,0.2,0,0.3,0.1c0.1,0,0.2,0,0.3,0.1c0,0,0.1,0,0.1,0c0,0,0.1,0,0.1,0c0,0,0.1,0,0.1,0c0,0,0.1,0,0.1,0
				c0.1,0,0.1,0,0.2,0c0.1,0,0.1,0,0.2,0c0.1,0,0.1,0,0.2,0c0.1,0,0.1,0,0.2,0c0,0,0.1,0,0.1,0c0,0,0.1,0,0.1,0c0,0,0.1,0,0.1,0
				c0,0,0.1,0,0.1,0c0.1,0,0.2,0,0.3,0c0.1,0,0.2,0,0.3,0c0.1,0,0.2,0,0.3,0c0.1,0,0.2,0,0.3,0c0.1,0,0.2,0,0.3,0c0.1,0,0.2,0,0.3,0
				c0.1,0,0.2,0,0.3,0c0.1,0,0.2,0,0.3,0c0.1,0,0.3,0,0.4,0c0.1,0,0.3,0,0.4,0c0.1,0,0.3,0,0.4,0c0.1,0,0.3,0,0.4,0
				c0.1,0,0.2,0,0.3,0c0.1,0,0.2,0,0.3,0c0.1,0,0.2,0,0.3-0.1c0.1,0,0.2,0,0.3-0.1c0.1,0,0.2,0,0.3-0.1c0.1,0,0.2,0,0.3-0.1
				c0.1,0,0.2,0,0.3-0.1c0.1,0,0.2-0.1,0.3-0.1c0.1,0,0.3-0.1,0.4-0.1c0.1,0,0.3-0.1,0.4-0.1c0.1,0,0.3-0.1,0.4-0.1
				c0.1,0,0.3-0.1,0.4-0.1c0.9-0.3,1.9-0.7,2.8-1.1c0.9-0.4,1.8-0.9,2.6-1.4c0.9-0.5,1.7-1.1,2.5-1.8c0.8-0.6,1.6-1.3,2.3-2.1
				c0.1-0.1,0.1-0.1,0.2-0.2c0.1-0.1,0.1-0.1,0.2-0.2c0.1-0.1,0.1-0.1,0.2-0.2c0.1-0.1,0.1-0.1,0.2-0.2c0,0,0.1-0.1,0.1-0.1
				c0,0,0.1-0.1,0.1-0.1c0,0,0.1-0.1,0.1-0.1c0,0,0.1-0.1,0.1-0.1c0,0,0.1-0.1,0.1-0.1c0,0,0.1-0.1,0.1-0.1c0,0,0.1-0.1,0.1-0.1
				c0,0,0.1-0.1,0.1-0.1c0,0,0.1-0.1,0.1-0.1c0,0,0.1-0.1,0.1-0.1c0,0,0.1-0.1,0.1-0.1c0,0,0.1-0.1,0.1-0.1c0,0,0.1-0.1,0.1-0.1
				c0,0,0.1-0.1,0.1-0.1c0,0,0.1-0.1,0.1-0.1c0,0,0.1-0.1,0.1-0.1c0,0,0.1-0.1,0.1-0.1c0,0,0.1-0.1,0.1-0.1c0,0,0.1-0.1,0.1-0.1
				c0,0,0.1-0.1,0.1-0.1c0,0,0.1-0.1,0.1-0.1c0,0,0.1-0.1,0.1-0.1c0,0,0.1-0.1,0.1-0.1c0,0,0.1-0.1,0.1-0.1c0,0,0-0.1,0.1-0.1
				c0,0,0-0.1,0.1-0.1c0,0,0-0.1,0.1-0.1c0,0,0-0.1,0.1-0.1c0,0,0.1-0.1,0.1-0.1c0,0,0.1-0.1,0.1-0.1c0,0,0.1-0.1,0.1-0.1
				c0,0,0-0.1,0.1-0.1c0,0,0-0.1,0.1-0.1c0,0,0-0.1,0.1-0.1c0,0,0-0.1,0.1-0.1c0,0,0-0.1,0.1-0.1c0,0,0.1-0.1,0.1-0.1
				c0,0,0-0.1,0.1-0.1c0,0,0-0.1,0.1-0.1c0,0,0-0.1,0.1-0.1c0,0,0-0.1,0.1-0.1c0,0,0-0.1,0.1-0.1c0,0,0-0.1,0.1-0.1
				c0,0,0-0.1,0.1-0.1c0,0,0-0.1,0.1-0.1c0,0,0-0.1,0.1-0.1c0,0,0-0.1,0.1-0.1c0,0,0-0.1,0.1-0.1c0,0,0-0.1,0-0.1c0,0,0-0.1,0-0.1
				c0,0,0-0.1,0-0.1c0,0,0-0.1,0-0.1c0,0,0-0.1,0.1-0.1c0,0,0-0.1,0.1-0.1c0,0,0-0.1,0.1-0.1c0,0,0-0.1,0.1-0.1
				c0.2-0.4,0.3-0.8,0.5-1.2c0.1-0.4,0.3-0.8,0.4-1.2c0.1-0.4,0.2-0.8,0.3-1.2c0.1-0.4,0.1-0.8,0.2-1.2c0-0.3,0.1-0.6,0.1-0.9
				c0-0.3,0-0.6,0-0.8c0-0.3,0-0.6,0-0.8C42.7,26,42.7,25.7,42.6,25.5z"/>
		</g>
		<g>
			<path class="st5" d="M41.9,18.4c0.4-0.1,0.8-0.1,1.1-0.1c0.4,0,0.8-0.1,1.1-0.1c0.4,0,0.8,0,1.1,0c0.4,0,0.8,0,1.1,0.1
				c0.2,0,0.4,0,0.7,0.1c0.2,0,0.4,0.1,0.7,0.1c0.2,0,0.4,0.1,0.7,0.1c0.2,0,0.4,0.1,0.6,0.1c0.4,0.1,0.7,0.2,1.1,0.3
				c0.4,0.1,0.7,0.2,1.1,0.3c0.4,0.1,0.7,0.3,1,0.4c0.3,0.1,0.7,0.3,1,0.5c0.7,0.4,1.4,0.8,2.1,1.3c0.7,0.5,1.3,1,1.8,1.6
				c0.6,0.6,1.1,1.2,1.5,1.8c0.5,0.7,0.9,1.4,1.2,2.1c0.6,1.3,1,2.7,1.2,4.2c0.2,1.5,0.2,3-0.1,4.5c-0.2,1.5-0.7,3.1-1.4,4.6
				c-0.7,1.5-1.6,3-2.8,4.4c-0.9,1.1-1.9,2.1-3,3c-1.1,0.9-2.3,1.7-3.5,2.4c-1.2,0.7-2.5,1.2-3.8,1.7c-1.3,0.4-2.7,0.7-4,0.9
				c0.1-0.1,0.2-0.2,0.3-0.3c0.1-0.1,0.2-0.2,0.3-0.3c0.1-0.1,0.2-0.2,0.3-0.3c0.1-0.1,0.2-0.2,0.3-0.3c0,0,0.1-0.1,0.1-0.1
				c0,0,0.1-0.1,0.1-0.1s0.1-0.1,0.1-0.1c0,0,0.1-0.1,0.1-0.1c0.1-0.1,0.1-0.1,0.2-0.2c0.1-0.1,0.1-0.1,0.2-0.2
				c0.1-0.1,0.1-0.1,0.2-0.2c0.1-0.1,0.1-0.1,0.2-0.2c0,0,0-0.1,0.1-0.1c0,0,0-0.1,0.1-0.1c0,0,0-0.1,0.1-0.1c0,0,0-0.1,0.1-0.1
				c0.1-0.1,0.2-0.2,0.2-0.3c0.1-0.1,0.2-0.2,0.2-0.3c0.1-0.1,0.2-0.2,0.2-0.3c0.1-0.1,0.1-0.2,0.2-0.3c0.1-0.1,0.2-0.2,0.2-0.3
				c0.1-0.1,0.1-0.2,0.2-0.3c0.1-0.1,0.1-0.2,0.2-0.3c0.1-0.1,0.1-0.2,0.2-0.3c0,0,0-0.1,0.1-0.1c0,0,0-0.1,0.1-0.1
				c0,0,0-0.1,0.1-0.1c0,0,0-0.1,0.1-0.1c0-0.1,0.1-0.2,0.1-0.2c0-0.1,0.1-0.2,0.1-0.2c0-0.1,0.1-0.2,0.1-0.2c0-0.1,0.1-0.2,0.1-0.2
				c0,0,0-0.1,0.1-0.1c0,0,0-0.1,0.1-0.1c0,0,0-0.1,0.1-0.1c0,0,0-0.1,0.1-0.1c0.1-0.1,0.1-0.2,0.2-0.3c0.1-0.1,0.1-0.2,0.2-0.3
				c0.1-0.1,0.1-0.2,0.2-0.3c0.1-0.1,0.1-0.2,0.2-0.3c0.2-0.5,0.4-0.9,0.5-1.4c0.2-0.5,0.3-0.9,0.4-1.4c0.1-0.5,0.2-0.9,0.3-1.4
				c0.1-0.5,0.2-0.9,0.2-1.4c0.1-1.1,0.2-2.2,0.1-3.2c-0.1-1-0.2-2-0.4-3c-0.2-0.9-0.5-1.9-0.9-2.7c-0.4-0.9-0.9-1.7-1.4-2.4
				c-0.3-0.5-0.7-1-1.1-1.4c-0.4-0.4-0.8-0.8-1.3-1.2c-0.4-0.4-0.9-0.7-1.4-1.1c-0.5-0.3-1-0.6-1.5-0.9c-0.3-0.2-0.7-0.3-1-0.5
				c-0.3-0.1-0.7-0.3-1.1-0.4c-0.4-0.1-0.7-0.2-1.1-0.3c-0.4-0.1-0.7-0.2-1.1-0.3c-0.3-0.1-0.6-0.1-0.8-0.1c-0.3,0-0.6-0.1-0.8-0.1
				c-0.3,0-0.6-0.1-0.8-0.1c-0.3,0-0.6,0-0.8,0c0.1,0,0.1-0.1,0.2-0.1c0.1,0,0.1-0.1,0.2-0.1c0.1,0,0.2-0.1,0.2-0.1
				c0.1,0,0.2-0.1,0.2-0.1c0,0,0,0,0.1,0c0,0,0,0,0.1,0c0,0,0,0,0.1,0c0,0,0,0,0.1,0c0.1,0,0.1,0,0.2-0.1c0.1,0,0.1,0,0.2-0.1
				c0.1,0,0.1,0,0.2-0.1c0.1,0,0.1,0,0.2-0.1c0,0,0.1,0,0.1,0c0,0,0.1,0,0.1,0c0,0,0.1,0,0.1,0c0,0,0.1,0,0.1,0c0.1,0,0.1,0,0.2-0.1
				c0.1,0,0.1,0,0.2-0.1c0.1,0,0.1,0,0.2-0.1c0.1,0,0.1,0,0.2-0.1c0,0,0,0,0.1,0c0,0,0.1,0,0.1,0c0,0,0.1,0,0.1,0s0.1,0,0.1,0
				c0.1,0,0.2-0.1,0.2-0.1c0.1,0,0.2-0.1,0.2-0.1c0.1,0,0.2-0.1,0.2-0.1c0.1,0,0.2-0.1,0.2-0.1c0.3-0.1,0.6-0.2,0.9-0.2
				c0.3-0.1,0.6-0.1,0.9-0.2c0.3-0.1,0.6-0.1,0.9-0.2C41.3,18.5,41.6,18.5,41.9,18.4z"/>
		</g>
		<g>
			<path class="st5" d="M68.8,31.6c0.3,0,0.5,0,0.8,0c0.3,0,0.5,0,0.8,0.1c0.3,0,0.5,0.1,0.8,0.2c0.2,0.1,0.5,0.2,0.7,0.3
				c0.5,0.3,1,0.7,1.3,1.1c0.3,0.4,0.6,0.9,0.7,1.4c0.1,0.5,0.1,1,0,1.5c-0.1,0.5-0.3,1-0.7,1.5c-0.2,0.3-0.4,0.5-0.7,0.7
				c-0.3,0.2-0.6,0.4-0.9,0.5c-0.3,0.1-0.6,0.3-1,0.3c-0.3,0.1-0.7,0.1-1,0.2c-0.3,0-0.5,0-0.8,0c-0.3,0-0.5-0.1-0.8-0.1
				c-0.3-0.1-0.5-0.1-0.8-0.2c-0.2-0.1-0.5-0.2-0.7-0.4c-0.5-0.3-1-0.7-1.3-1.1C65,37,64.8,36.5,64.7,36c-0.1-0.5-0.1-1,0-1.5
				c0.1-0.5,0.4-0.9,0.7-1.4c0.2-0.2,0.4-0.5,0.7-0.6c0.3-0.2,0.5-0.4,0.8-0.5c0.3-0.1,0.6-0.2,0.9-0.3
				C68.1,31.7,68.5,31.6,68.8,31.6z"/>
		</g>
		<g>
			<path class="st4" d="M30.9,59.8c0.1,0,0.2,0,0.4,0c0.1,0,0.2,0,0.4,0.1c0.1,0,0.2,0.1,0.4,0.1c0.1,0,0.2,0.1,0.4,0.1
				c0.5,0.2,0.9,0.6,1.3,1c0.4,0.4,0.6,0.9,0.8,1.5c0.2,0.5,0.2,1.1,0.2,1.8c0,0.6-0.2,1.2-0.5,1.9c-0.2,0.5-0.5,0.9-0.8,1.3
				c-0.3,0.4-0.7,0.7-1,0.9c-0.4,0.3-0.8,0.4-1.2,0.6c-0.4,0.1-0.9,0.2-1.3,0.2c-0.1,0-0.3,0-0.4,0c-0.1,0-0.3,0-0.4-0.1
				c-0.1,0-0.2-0.1-0.4-0.1c-0.1,0-0.2-0.1-0.4-0.2c-0.5-0.3-0.9-0.6-1.3-1.1c-0.3-0.4-0.6-1-0.7-1.5c-0.1-0.6-0.2-1.1-0.1-1.7
				c0.1-0.6,0.2-1.2,0.5-1.8c0.2-0.4,0.5-0.8,0.8-1.2c0.3-0.3,0.6-0.6,1-0.9c0.4-0.2,0.7-0.4,1.1-0.5C30.1,59.8,30.5,59.8,30.9,59.8
				z"/>
		</g>
	</g>
</g>
<g>
	<path d="M84.3,17.7c1.5-1.1,2.1-1.9,3-3c0.2-0.2,0.4-0.5,0.9-0.5c0.5,0,0.8,0.4,0.8,0.8c0,1.3-3.9,4.7-4.7,4.7
		c-0.3,0-0.9-0.2-0.9-1C83.5,18.3,83.6,18.2,84.3,17.7z M87,11.2c-0.4,0-0.6-0.3-0.8-0.5c-0.7-0.9-1.1-1.3-2-2.1
		c-0.2-0.2-0.3-0.3-0.3-0.5c0-0.6,0.4-0.8,0.8-0.8c0.6,0,1.9,1.4,2.6,2.2c0.5,0.6,0.5,0.7,0.5,1.1C87.9,10.7,87.5,11.2,87,11.2z
		 M94.5,11.2c0,1.4,0,5,3.4,8.2c0.2,0.2,1.5,1.2,1.7,1.5c0.1,0.1,0.1,0.3,0.1,0.5c0,0.5-0.4,0.9-0.9,0.9c-1.4,0-4.1-3.3-5.3-6.1
		c-1.5,4.3-5.2,6-5.8,6c-0.4,0-0.9-0.4-0.9-1c0-0.4,0.1-0.5,1.2-1.1c1.2-0.7,3-2,4-4.7c0.6-1.7,0.6-2.5,0.6-4.1v-1.1h-1.5
		c-0.6,1.2-1.6,2.8-2.3,2.8c-0.4,0-0.9-0.4-0.9-0.9c0-0.2,0.1-0.3,0.6-1c1-1.3,1.5-2.6,1.9-4.4c0.1-0.5,0.5-0.7,0.8-0.7
		c0.5,0,0.9,0.4,0.9,0.8c0,0.4-0.3,1.3-0.4,1.7h5.5c1,0,1.9,0,1.9,1.3c0,1.6-0.5,3.1-1.4,4.4c-0.4,0.6-0.6,0.8-1.1,0.8
		c-0.5,0-0.9-0.4-0.9-0.9c0-0.3,0.1-0.5,0.4-0.8c0.8-1.2,1-2.2,1-2.7c0-0.4-0.2-0.4-0.5-0.4h-2.4V11.2z"/>
	<path d="M105.6,7.3c0-0.7,0-1.4,0.9-1.4c0.9,0,0.9,0.7,0.9,1.4v2h3v-2c0-0.7,0-1.4,0.9-1.4c1,0,1,0.6,1,1.4v2h3v-2
		c0-0.7,0-1.4,0.9-1.4c0.9,0,0.9,0.7,0.9,1.4v2h0.9c0.7,0,1.4,0,1.4,0.9c0,0.9-0.7,0.9-1.4,0.9h-0.9v4.4c0,0.7-0.1,1.6-1.4,1.6H112
		c-1.6,0-1.6-1-1.6-1.6v-4.3h-3v8.3c0,0.2,0,0.5,0.4,0.5h9.5c0.7,0,1.4,0,1.4,0.9c0,0.9-0.8,0.9-1.4,0.9h-9.9
		c-1.4,0-1.8-0.8-1.8-1.7v-8.9h-0.9c-0.7,0-1.4,0-1.4-0.9c0-0.9,0.7-0.9,1.4-0.9h0.9V7.3z M115.3,11.1h-3v3.6c0,0.3,0,0.5,0.3,0.5
		h2.3c0.2,0,0.4-0.2,0.4-0.5V11.1z"/>
	<path d="M127.3,20.6c0,0.6,0,1.4-0.8,1.4c-0.9,0-0.9-0.8-0.9-1.4v-7.8c-0.5,0.7-1.1,1.5-1.6,1.5c-0.4,0-0.9-0.4-0.9-0.8
		c0-0.3,0.1-0.5,0.6-1c1.4-1.7,2-3.5,2.7-5.8c0.1-0.2,0.2-0.8,0.8-0.8c0,0,0.9,0,0.9,0.8c0,0.2-0.1,0.9-0.7,2.7V20.6z M137.5,9.9
		c0.6,0,1.4,0,1.4,0.9c0,0.9-0.8,0.9-1.4,0.9l-4.1,0.1c0.5,5.3,2.6,8,3.4,8c0.4,0,0.5-0.9,0.5-1.3c0.1-0.7,0.1-1.3,0.9-1.3
		c0.5,0,0.8,0.4,0.8,0.9c0,0.8-0.2,2.1-0.6,2.9c-0.1,0.3-0.4,1-1.4,1c-2.1,0-4.7-3.5-5.4-10.1l-2.6,0.1c-0.6,0-1.4,0-1.4-0.9
		c0-0.8,0.8-0.9,1.4-0.9l2.5-0.1c-0.1-0.8-0.1-2-0.1-2.8c0-0.6,0-1.3,0.8-1.3c0.6,0,0.8,0.5,0.8,0.7c0,0.4,0.1,2.9,0.1,3.4
		L137.5,9.9z M137.1,9.3c-0.4,0-0.5-0.1-1.1-0.9c-0.1-0.2-0.9-1-1-1.2c-0.1-0.2-0.2-0.4-0.2-0.6c0-0.4,0.4-0.8,0.8-0.8
		c0.4,0,0.7,0.3,1.2,0.9c0.4,0.5,1.2,1.4,1.2,1.8C138,8.7,137.8,9.3,137.1,9.3z"/>
	<path d="M150.2,9.9c0.9,0,1.6,0,1.6,0.9c0,0.9-0.7,0.9-1.6,0.9v2.1c0,0.7,0,1.4-0.9,1.4c-0.9,0-0.9-0.7-0.9-1.4v-2.1h-1.6
		c-0.1,2.2-1.9,3.9-2.9,3.9c-0.4,0-0.9-0.3-0.9-0.9c0-0.5,0.2-0.6,0.7-1c0.3-0.2,1.1-0.8,1.3-2.1h-0.7c-0.7,0-1.4,0-1.4-0.9
		c0-0.9,0.7-0.9,1.4-0.9h0.7V8h-0.4c-0.6,0-1.4,0-1.4-0.8c0-0.8,0.8-0.8,1.4-0.8h5.5c0.6,0,1.4,0,1.4,0.8c0,0.7-0.6,0.8-1,0.8h-0.4
		V9.9z M156.5,16.9c0.7,0,1.4,0,1.4,0.9c0,0.9-0.8,0.9-1.4,0.9H152V20h5.5c0.6,0,1.4,0,1.4,0.8c0,0.8-0.8,0.8-1.4,0.8h-12.8
		c-0.6,0-1.4,0-1.4-0.8c0-0.8,0.8-0.8,1.4-0.8h5.5v-1.3h-4.8c-0.7,0-1.4,0-1.4-0.9c0-0.9,0.8-0.9,1.4-0.9h4.8v-0.8
		c0-0.7,0-1.4,0.9-1.4c0.9,0,0.9,0.8,0.9,1.4v0.8H156.5z M148.5,8h-1.6v1.9h1.6V8z M154.8,11.7c0,0.7,0,1.4-0.8,1.4
		c-0.9,0-0.9-0.8-0.9-1.4v-4c0-0.7,0-1.4,0.9-1.4c0.8,0,0.8,0.8,0.8,1.4V11.7z M158.3,13.8c0,0.5-0.2,1-0.5,1.4
		c-0.4,0.4-0.9,0.6-1.9,0.6c-2,0-2.3-0.5-2.3-1.1c0-0.5,0.4-0.9,0.9-0.9c0.1,0,0.8,0.1,0.9,0.1c0.2,0,0.4,0,0.5,0
		c0.3,0,0.9,0,0.9-0.8V7.3c0-0.6,0-1.4,0.8-1.4c0.8,0,0.8,0.8,0.8,1.4V13.8z"/>
	<path d="M166.1,20.7c0,0.6,0,1.4-0.8,1.4c-0.8,0-0.8-0.8-0.8-1.4v-6.8c-0.4,0.7-0.7,1.2-1.4,1.2c-0.3,0-0.8-0.1-0.8-0.8
		c0-0.4,0.1-0.5,0.7-1.6c1.4-2.4,1.8-4.3,2-5.5c0.1-0.6,0.3-1.2,0.9-1.2c0.6,0,1,0.4,1,0.8c0,0.2-0.1,1.1-0.9,3.5V20.7z M176.8,6.2
		c0.9,0,1.5,0.5,1.5,1.4v12.7c0,0.9-0.7,1.4-1.5,1.4h-8c-0.9,0-1.5-0.5-1.5-1.4V7.6c0-0.9,0.6-1.4,1.5-1.4H176.8z M169.3,7.8
		c-0.2,0-0.4,0-0.4,0.4v11.5c0,0.4,0.2,0.4,0.4,0.4h6.9c0.2,0,0.4,0,0.4-0.4V8.2c0-0.4-0.2-0.4-0.4-0.4H169.3z M171.9,12.9v-1.6
		h-1.1c-0.6,0-1.4,0-1.4-0.8c0-0.8,0.8-0.8,1.4-0.8h1.1V9.5c0-0.7,0-1.4,0.8-1.4s0.9,0.8,0.9,1.4v0.3h1.2c0.6,0,1.4,0,1.4,0.8
		c0,0.8-0.8,0.8-1.4,0.8h-1.2v1.6h0.9c0.2,0,1.2,0.2,1.2,1.4v2.9c0,1.1-1,1.4-1.2,1.4H171c-0.2,0-1.2-0.2-1.2-1.4v-2.9
		c0-1.1,1-1.4,1.2-1.4H171.9z M173.8,16.9c0.2,0,0.3-0.2,0.3-0.3v-1.9c0-0.1-0.2-0.3-0.3-0.3h-2c-0.2,0-0.3,0.2-0.3,0.3v1.9
		c0,0.1,0.2,0.3,0.3,0.3H173.8z"/>
	<path d="M190,14.2c1.8,0,1.8,1,1.8,2.3c0,4.5-0.9,5.4-3,5.4c-2.1,0-2.6-0.4-2.6-1c0-0.5,0.3-0.9,0.8-0.9c0.2,0,1.2,0.2,1.4,0.2
		c0.5,0,1-0.1,1.3-0.5c0.3-0.5,0.4-2,0.4-2.5c0-1,0-1.2-0.6-1.2h-3c-0.7,4-2.5,6.1-3.2,6.1c-0.5,0-0.9-0.5-0.9-0.9
		c0-0.3,0.1-0.5,0.7-1.4c1.7-2.6,1.8-5.3,1.8-6.8h-0.3c-0.7,0-1.7,0-1.7-1.5V7.7c0-1.5,1.1-1.5,1.7-1.5h5.2c0.6,0,1.7,0,1.7,1.5v3.6
		c0,1.5-1.1,1.5-1.7,1.5h-3.1c0,0.3,0,0.7-0.1,1.3H190z M185.2,8c-0.4,0-0.6,0-0.6,0.5v2c0,0.6,0.3,0.6,0.6,0.6h4
		c0.4,0,0.7,0,0.7-0.6v-2c0-0.5-0.3-0.5-0.7-0.5H185.2z M196.1,7.1c0-0.7,0-1.4,0.9-1.4c0.9,0,0.9,0.7,0.9,1.4v12.6
		c0,1.2-0.1,2.2-2.5,2.2c-2.2,0-2.8-0.3-2.8-1.1c0-0.4,0.3-0.9,0.8-0.9c0.1,0,0.7,0.1,0.8,0.1c0.4,0.1,0.8,0.1,1.1,0.1
		c0.7,0,0.7-0.4,0.7-0.9V7.1z M194.8,16.4c0,0.7,0,1.4-0.9,1.4c-0.9,0-0.9-0.7-0.9-1.4V7.7c0-0.7,0-1.4,0.9-1.4
		c0.9,0,0.9,0.7,0.9,1.4V16.4z"/>
	<path d="M206.9,8.9c0.6,0,1.4,0,1.4,0.8c0,0.8-0.8,0.8-1.4,0.8h-0.5v3c0.2-0.1,1.1-0.4,1.3-0.4c0.4,0,0.8,0.3,0.8,0.8
		c0,0.5-0.2,0.8-2,1.4v4.8c0,1.4-0.7,1.8-2.2,1.8c-0.8,0-1.8-0.1-1.8-1c0-0.4,0.3-0.8,0.8-0.8c0.1,0,0.5,0.1,0.7,0.1
		c0.8,0,0.8-0.1,0.8-0.5v-3.9c-0.3,0.1-1.5,0.3-1.7,0.3c-0.4,0-0.9-0.3-0.9-0.9c0-0.4,0.3-0.8,0.7-0.8c0.7-0.1,1-0.2,1.8-0.4v-3.5
		h-1c-0.6,0-1.4,0-1.4-0.8c0-0.8,0.8-0.8,1.4-0.8h1V7.2c0-0.7,0-1.4,0.8-1.4s0.9,0.8,0.9,1.4v1.7H206.9z M216.1,13.9
		c1.2,0,1.7,0.7,1.7,1.5v4.7c0,0.9-0.6,1.5-1.7,1.5h-5.8c-1.2,0-1.7-0.7-1.7-1.5v-4.7c0-0.9,0.6-1.5,1.7-1.5H216.1z M210.6,10.6
		c0,0.3,0.1,0.8,0.9,0.8h3.8c0.6,0,1.1-0.2,1.2-0.8c0.1-0.6,0.1-1.1,0.8-1.1c0.2,0,0.9,0.1,0.9,0.9c0,1.4-0.8,2.6-2.6,2.6h-3.7
		c-1.8,0-3-0.4-3-1.8V7.2c0-0.6,0-1.4,0.8-1.4c0.8,0,0.8,0.8,0.8,1.4v0.5c1.8-0.2,2.5-0.2,4.3-0.8c0.3-0.1,1.5-0.5,1.8-0.5
		c0.5,0,0.8,0.5,0.8,0.9c0,0.6-0.5,0.8-1,1c-1.2,0.4-3.8,1-6,1.2V10.6z M216.1,16.9V16c0-0.4-0.3-0.5-0.6-0.5H211
		c-0.4,0-0.6,0.1-0.6,0.5v0.9H216.1z M210.4,18.4v1.1c0,0.4,0.2,0.5,0.6,0.5h4.5c0.3,0,0.6-0.1,0.6-0.5v-1.1H210.4z"/>
	<path d="M228,16.8c-0.7,0-2.3,0-3.1-1.3c-0.6,0.4-1.7,1.1-2.2,1.1c-0.4,0-0.8-0.3-0.8-0.8c0-0.4,0.3-0.6,0.7-0.8
		c1-0.5,1.6-0.8,1.9-1v-1.6c0-0.4-0.1-0.4-0.6-0.4h-0.5c-0.6,0-1.4,0-1.4-0.8c0-0.7,0.8-0.7,1.4-0.7h1.5c0.4,0,1.3,0,1.3,1.1v2.3
		c0,0.6,0,1.7,2.1,1.7h8.4c0.9,0,1.4,0,1.4,0.6s-0.5,0.6-1.4,0.6h-1.3v0.6h1.3c0.9,0,1.4,0,1.4,0.7c0,0.7-0.5,0.7-1.4,0.7h-1.3v1.1
		c0,1.5-0.2,2.2-2.3,2.2c-3,0-3.5-0.4-3.5-1.1c0-0.2,0.1-0.7,0.8-0.7c0.2,0,1,0.1,1.3,0.1c0.5,0.1,1,0.1,1.1,0.1
		c0.8,0,0.8-0.1,0.8-0.9v-0.8h-7.2c0.6,0.5,1.9,1.6,1.9,2.1c0,0.3-0.1,0.9-0.9,0.9c-0.3,0-0.4-0.1-0.9-0.6c-0.8-0.8-0.9-0.8-1.3-1.2
		c-0.1-0.1-0.3-0.3-0.3-0.6c0-0.2,0.1-0.4,0.2-0.6h-1.5c-0.8,0-1.4,0-1.4-0.7c0-0.7,0.5-0.7,1.4-0.7h10v-0.6H228z M225.1,9.1
		c-0.3,0-0.4-0.1-1.1-0.8c-0.2-0.2-1.1-0.9-1.3-1.1c-0.1-0.1-0.2-0.2-0.2-0.5c0-0.7,0.6-0.8,0.8-0.8c0.4,0,1,0.6,1.4,0.9
		c1.1,0.9,1.1,1.1,1.1,1.4C226,8.7,225.7,9.1,225.1,9.1z M231.2,8.3h-3.9c-0.3,0-0.9,0-0.9-0.6c0-0.7,0.6-0.7,0.9-0.7h1.9
		C229,6.6,229,6.5,229,6.4c0-0.4,0.5-0.7,0.9-0.7c0.6,0,0.7,0.3,1.3,1.3h2.2c0.3-0.9,0.5-1.3,1.2-1.3c0.4,0,0.9,0.2,0.9,0.7
		c0,0.2-0.1,0.3-0.2,0.6h1.9c0.3,0,0.9,0,0.9,0.7c0,0.6-0.6,0.6-0.9,0.6H233l-0.2,0.6h2.8c1.5,0,1.5,1.2,1.5,1.5v2.9
		c0,0.3,0,1.5-1.5,1.5H229c-1.5,0-1.5-1.2-1.5-1.5v-2.9c0-0.3,0-1.5,1.5-1.5h2L231.2,8.3z M235.6,10.6c0-0.2-0.1-0.3-0.1-0.4
		c-0.1-0.1-0.2-0.1-0.4-0.1h-5.3c-0.3,0-0.5,0.2-0.5,0.5H235.6z M229.2,11.6v0.6h6.4v-0.6H229.2z M229.2,13.2c0,0.4,0.2,0.6,0.5,0.6
		h5.3c0.4,0,0.5-0.2,0.5-0.6H229.2z"/>
</g>
</svg>
